<?xml version="1.0" encoding="UTF-8"?>
<svg id="Layer_2" data-name="Layer 2" xmlns="http://www.w3.org/2000/svg" viewBox="0 0 242 79.22">
  <defs>
    <style>
      .cls-1 {
        fill: #808860;
      }

      .cls-1, .cls-2, .cls-3, .cls-4, .cls-5, .cls-6, .cls-7, .cls-8 {
        stroke-width: 0px;
      }

      .cls-2 {
        fill: #008480;
      }

      .cls-3 {
        fill: #86700f;
      }

      .cls-4 {
        fill: #804a6b;
      }

      .cls-5 {
        fill: #ca801d;
      }

      .cls-6 {
        fill: #bc6148;
      }

      .cls-7 {
        fill: #57201b;
      }

      .cls-8 {
        fill: #fff;
      }
    </style>
  </defs>
  <g id="Hlavna_Lista">
    <g id="HlavnaLista">
      <g id="_01" data-name="01">
        <g>
          <g>
            <path class="cls-4" d="M23.1,28.26L0,64.79c3.88-3.13,10.78-9.59,30.3-36.86l-7.2.34Z"/>
            <path class="cls-6" d="M39.58,3.51c1.99-4.48,8.56-4.31,10.19-1.52,1.45,2.48-3.31,4.97-4.79,8.29-.78,1.76-.12,3.67-.36,5.98-.2,1.9-2.83,7.13-7.17,9.2-12.16,5.81-19.18,1.24-19.18,1.24,2.43-2.4,13.97-11.54,17.3-16.19q2.38-3.33,4.01-7Z"/>
            <path class="cls-2" d="M36.99,21.26s-15.53,10.4-22.92,9.21l8.43-8.06,14.49-1.15Z"/>
            <path class="cls-1" d="M37.61,10.08c1.2-.04,4.79,1.66,3.29,5.7-4.32,11.69-22.62,10.85-22.62,10.85,12.59-12.69,15.42-16.42,19.33-16.54Z"/>
            <path class="cls-8" d="M41.67,4.87c1.33-3.04,3.43-3.03,5.03-2.65,3.72.86.4,8.22-1.89,7.74-2.6-.54-4.44-2.11-3.14-5.09Z"/>
            <path class="cls-3" d="M49.68,6.18c.66-2.24,1.93-.35-.32-1.01,0,0-2.46,1.69-3.31,2.97-.86,1.28-1,1.85-1,1.85,2.64.19,3.97-1.56,4.63-3.8Z"/>
            <path class="cls-5" d="M46.53,7.57s.51,1.25,1.97.62c1.45-.63,1.74-.4,2.05,0,.39.49.85.63.87.35.35-4.62-2.03-7.44-2.41-7.47-2-.16-2.83,6.17-2.48,6.51Z"/>
            <path class="cls-7" d="M43.31,5.14c-.21-.44-.03-.97.41-1.19.45-.21.98-.03,1.19.41.21.44-.36.17-.8.39-.44.21-.59.83-.8.39Z"/>
          </g>
          <g>
            <path class="cls-8" d="M235.09,29.56c0-.48.09-.93.27-1.34.18-.42.43-.79.74-1.1.31-.31.68-.56,1.1-.74.42-.18.87-.27,1.34-.27s.93.09,1.35.27c.42.18.78.43,1.1.74.31.31.56.68.74,1.1.18.42.27.87.27,1.34s-.09.93-.27,1.35c-.18.42-.43.79-.74,1.1-.31.31-.68.56-1.1.74-.42.18-.87.27-1.35.27s-.92-.09-1.34-.27c-.42-.18-.79-.43-1.1-.74-.31-.31-.56-.68-.74-1.1-.18-.42-.27-.87-.27-1.35ZM241.31,29.56c0-.39-.07-.75-.22-1.1-.15-.34-.34-.64-.59-.9-.25-.25-.54-.46-.88-.61-.34-.15-.7-.22-1.08-.22s-.74.07-1.08.22c-.34.15-.63.35-.88.61-.25.25-.45.55-.59.9-.15.34-.22.71-.22,1.1s.07.75.22,1.1c.15.34.34.64.59.9.25.25.54.46.88.61.34.15.7.22,1.08.22s.74-.07,1.08-.22c.34-.15.63-.35.88-.61.25-.25.45-.55.59-.9.15-.34.22-.71.22-1.1ZM237.24,27.55h1.53c.92,0,1.38.38,1.38,1.14,0,.19-.03.35-.08.49-.05.13-.13.24-.22.33-.1.09-.21.16-.33.21-.12.05-.25.08-.4.1l1.16,1.77h-.76l-1.15-1.75h-.49v1.75h-.63v-4.03ZM237.87,29.26h.72c.31,0,.54-.05.7-.14.16-.09.23-.25.23-.46,0-.19-.07-.32-.21-.41-.13-.09-.31-.13-.53-.13h-.92v1.13Z"/>
            <g>
              <path class="cls-8" d="M36.09,36.69h-5.32v-4.33h15.23v4.33h-5.32v27.76h-4.6v-27.76Z"/>
              <path class="cls-8" d="M52.67,32.36h4.6v32.09h-4.6v-32.09Z"/>
              <path class="cls-8" d="M66.24,32.36h4.42l5.9,16.99h.09l5.86-16.99h4.46v32.09h-4.6v-19.51h-.09l-4.55,13.79h-2.3l-4.51-13.79h-.09v19.51h-4.6v-32.09Z"/>
              <path class="cls-8" d="M95.8,32.36h6.71c1.47,0,2.73.23,3.76.68,1.04.45,1.89,1.05,2.55,1.8.66.75,1.13,1.62,1.42,2.59.29.98.43,1.99.43,3.04v1.17c0,.87-.07,1.61-.2,2.21-.14.6-.34,1.13-.61,1.58-.27.45-.6.85-.99,1.19-.39.35-.84.67-1.35.97,1.08.51,1.88,1.27,2.39,2.28.51,1.01.77,2.35.77,4.03v1.8c0,2.82-.68,4.99-2.05,6.49-1.37,1.5-3.55,2.25-6.56,2.25h-6.26v-32.09ZM100.4,45.52h2.07c1.53,0,2.56-.38,3.09-1.15.53-.77.79-1.89.79-3.36s-.29-2.52-.88-3.24-1.64-1.08-3.18-1.08h-1.89v8.83ZM100.4,59.85h1.98c.93,0,1.66-.14,2.19-.41.53-.27.92-.65,1.19-1.13.27-.48.44-1.05.5-1.71.06-.66.09-1.38.09-2.16s-.05-1.52-.14-2.12c-.09-.6-.28-1.1-.56-1.51-.29-.41-.68-.71-1.19-.92-.51-.21-1.19-.32-2.03-.32h-2.03v10.28Z"/>
              <path class="cls-8" d="M119.51,32.36h13.7v4.33h-9.1v9.42h7.93v4.33h-7.93v9.42h9.1v4.6h-13.7v-32.09Z"/>
              <path class="cls-8" d="M140.69,32.36h7.39c5.41,0,8.11,3.14,8.11,9.42,0,1.86-.29,3.46-.88,4.8-.59,1.34-1.62,2.41-3.09,3.22l4.96,14.65h-4.87l-4.28-13.7h-2.75v13.7h-4.6v-32.09ZM145.29,46.69h2.61c.81,0,1.46-.11,1.94-.34.48-.23.85-.55,1.1-.97.25-.42.43-.94.52-1.55.09-.62.14-1.33.14-2.14s-.05-1.52-.14-2.14c-.09-.62-.28-1.14-.56-1.58-.29-.44-.68-.76-1.19-.97-.51-.21-1.19-.32-2.03-.32h-2.39v10Z"/>
              <path class="cls-8" d="M164.39,32.36h4.42l5.9,16.99h.09l5.86-16.99h4.46v32.09h-4.6v-19.51h-.09l-4.55,13.79h-2.3l-4.51-13.79h-.09v19.51h-4.6v-32.09Z"/>
              <path class="cls-8" d="M199.05,32.36h3.83l7.17,32.09h-4.6l-1.35-6.9h-6.26l-1.35,6.9h-4.6l7.17-32.09ZM200.99,41.6h-.09l-2.25,11.63h4.6l-2.25-11.63Z"/>
              <path class="cls-8" d="M221.04,47.64l-5.99-15.28h4.87l3.47,9.51,3.52-9.51h4.87l-6.13,15.28,6.62,16.81h-4.87l-4.01-10.82-3.97,10.82h-4.87l6.49-16.81Z"/>
            </g>
            <g>
              <path class="cls-8" d="M41.48,76.53c-.2.87-.6,1.53-1.17,2-.59.46-1.3.69-2.11.69-.73-.02-1.35-.2-1.84-.54-.5-.33-.86-.71-1.09-1.14-.07-.14-.13-.28-.19-.4-.05-.13-.09-.3-.13-.5-.06-.38-.1-1.1-.1-2.16s.03-1.81.1-2.18c.07-.37.17-.66.31-.89.23-.43.59-.82,1.09-1.15.49-.34,1.1-.52,1.84-.53.9,0,1.64.28,2.2.8.57.53.93,1.18,1.08,1.97h-1.5c-.12-.38-.32-.7-.63-.96-.32-.25-.7-.38-1.15-.39-.33,0-.62.07-.86.2-.24.13-.44.29-.59.48-.18.2-.31.46-.36.77-.07.33-.1.96-.1,1.88s.03,1.54.1,1.86c.06.32.18.59.36.79.15.19.35.35.59.47.24.14.53.21.86.21.79,0,1.39-.42,1.78-1.27h1.5Z"/>
              <path class="cls-8" d="M44.79,74.47c0-1.08.03-1.81.1-2.18.07-.37.17-.66.31-.89.23-.43.59-.82,1.09-1.15.49-.34,1.1-.52,1.84-.53.74,0,1.36.18,1.86.53.49.34.85.72,1.06,1.15.16.23.27.52.33.89.06.37.08,1.09.08,2.18s-.03,1.79-.08,2.16c-.06.38-.17.68-.33.9-.22.43-.57.81-1.06,1.14-.5.34-1.11.52-1.86.54-.73-.02-1.35-.2-1.84-.54-.5-.33-.86-.71-1.09-1.14-.07-.14-.13-.28-.19-.4-.05-.13-.09-.3-.13-.5-.06-.38-.1-1.1-.1-2.16ZM46.21,74.47c0,.92.03,1.54.1,1.86.06.32.18.59.36.79.15.19.35.35.59.47.24.14.53.21.86.21s.63-.07.88-.21c.23-.12.42-.28.56-.47.18-.2.31-.46.38-.79.06-.32.1-.95.1-1.86s-.03-1.54-.1-1.88c-.07-.32-.19-.57-.38-.77-.14-.19-.33-.35-.56-.48-.25-.12-.54-.19-.88-.2-.33,0-.62.07-.86.2-.24.13-.44.29-.59.48-.18.2-.31.46-.36.77-.07.33-.1.96-.1,1.88Z"/>
              <path class="cls-8" d="M55.73,69.8h1.33l2.68,6.08,2.63-6.08h1.34v9.34h-1.42v-5.82h-.03l-1.95,4.48h-1.18l-1.95-4.48h-.03v5.82h-1.42v-9.34Z"/>
              <path class="cls-8" d="M68.29,69.8h3.38c.37,0,.72.03,1.06.1.34.09.69.27,1.04.55.29.21.53.51.72.9.19.38.29.82.29,1.33,0,.69-.24,1.32-.73,1.89-.5.6-1.23.91-2.19.92h-2.15v3.64h-1.42v-9.34ZM69.7,74.16h2.09c.53,0,.92-.17,1.18-.49.25-.31.38-.65.38-1.02,0-.31-.05-.57-.15-.79-.11-.19-.26-.34-.45-.45-.29-.18-.63-.27-1.01-.26h-2.04v3.02Z"/>
              <path class="cls-8" d="M78.37,74.47c0-1.08.03-1.81.1-2.18.07-.37.17-.66.31-.89.23-.43.59-.82,1.09-1.15.49-.34,1.1-.52,1.84-.53.74,0,1.36.18,1.86.53.49.34.85.72,1.06,1.15.16.23.27.52.33.89.06.37.08,1.09.08,2.18s-.03,1.79-.08,2.16c-.06.38-.17.68-.33.9-.22.43-.57.81-1.06,1.14-.5.34-1.11.52-1.86.54-.73-.02-1.35-.2-1.84-.54-.5-.33-.86-.71-1.09-1.14-.07-.14-.13-.28-.19-.4-.05-.13-.09-.3-.13-.5-.06-.38-.1-1.1-.1-2.16ZM79.79,74.47c0,.92.03,1.54.1,1.86.06.32.18.59.36.79.15.19.35.35.59.47.24.14.53.21.86.21s.63-.07.88-.21c.23-.12.42-.28.56-.47.18-.2.31-.46.38-.79.06-.32.1-.95.1-1.86s-.03-1.54-.1-1.88c-.07-.32-.19-.57-.38-.77-.14-.19-.33-.35-.56-.48-.25-.12-.54-.19-.88-.2-.33,0-.62.07-.86.2-.24.13-.44.29-.59.48-.18.2-.31.46-.36.77-.07.33-.1.96-.1,1.88Z"/>
              <path class="cls-8" d="M92.07,77.8c1.21-.02,1.83-.45,1.84-1.3,0-.7-.4-1.11-1.22-1.26-.38-.05-.79-.11-1.24-.17-.8-.13-1.41-.43-1.83-.89-.43-.47-.65-1.05-.65-1.73,0-.82.27-1.47.81-1.97.53-.5,1.27-.75,2.23-.76,1.16.03,2.17.35,3.03.97l-.79,1.17c-.7-.46-1.47-.7-2.31-.72-.44,0-.8.11-1.09.33-.3.23-.46.56-.47,1.01,0,.27.1.51.31.73.21.22.54.38,1.01.46.26.04.61.09,1.05.15.88.12,1.52.43,1.94.94.41.5.62,1.08.62,1.74-.05,1.78-1.14,2.69-3.28,2.72-1.38,0-2.57-.43-3.57-1.28l.93-1.06c.74.61,1.63.92,2.65.93Z"/>
              <path class="cls-8" d="M99.45,69.8h1.42v9.34h-1.42v-9.34Z"/>
              <path class="cls-8" d="M107.04,71.07h-2.56v-1.26h6.53v1.26h-2.55v8.07h-1.42v-8.07Z"/>
              <path class="cls-8" d="M114.64,69.8h5.96v1.34h-4.55v2.66h3.88v1.25h-3.88v2.74h4.55v1.34h-5.96v-9.34Z"/>
              <path class="cls-8" d="M130.32,69.8h5.96v1.34h-4.55v2.66h3.88v1.25h-3.88v2.74h4.55v1.34h-5.96v-9.34Z"/>
              <path class="cls-8" d="M140.72,79.14h-1.59l2.86-4.78-2.68-4.55h1.6l1.86,3.24,1.86-3.24h1.59l-2.67,4.55,2.86,4.78h-1.6l-2.04-3.48-2.05,3.48Z"/>
              <path class="cls-8" d="M149.57,74.47c0-1.08.03-1.81.1-2.18.07-.37.17-.66.31-.89.23-.43.59-.82,1.09-1.15.49-.34,1.1-.52,1.84-.53.74,0,1.36.18,1.86.53.49.34.85.72,1.06,1.15.16.23.27.52.33.89.06.37.08,1.09.08,2.18s-.03,1.79-.08,2.16c-.06.38-.17.68-.33.9-.22.43-.57.81-1.06,1.14-.5.34-1.11.52-1.86.54-.73-.02-1.35-.2-1.84-.54-.5-.33-.86-.71-1.09-1.14-.07-.14-.13-.28-.19-.4-.05-.13-.09-.3-.13-.5-.06-.38-.1-1.1-.1-2.16ZM150.99,74.47c0,.92.03,1.54.1,1.86.06.32.18.59.37.79.15.19.35.35.59.47.24.14.52.21.86.21s.63-.07.88-.21c.23-.12.42-.28.56-.47.18-.2.31-.46.38-.79.06-.32.1-.95.1-1.86s-.03-1.54-.1-1.88c-.07-.32-.19-.57-.38-.77-.14-.19-.33-.35-.56-.48-.25-.12-.54-.19-.88-.2-.33,0-.62.07-.86.2-.24.13-.44.29-.59.48-.18.2-.31.46-.37.77-.07.33-.1.96-.1,1.88Z"/>
              <path class="cls-8" d="M161.86,71.07h-2.56v-1.26h6.53v1.26h-2.56v8.07h-1.42v-8.07Z"/>
              <path class="cls-8" d="M169.46,69.8h1.42v9.34h-1.42v-9.34Z"/>
              <path class="cls-8" d="M181.75,76.53c-.2.87-.6,1.53-1.17,2-.59.46-1.3.69-2.11.69-.73-.02-1.35-.2-1.84-.54-.5-.33-.86-.71-1.09-1.14-.07-.14-.13-.28-.19-.4-.05-.13-.09-.3-.13-.5-.06-.38-.1-1.1-.1-2.16s.03-1.81.1-2.18c.07-.37.17-.66.31-.89.23-.43.59-.82,1.09-1.15.49-.34,1.1-.52,1.84-.53.9,0,1.63.28,2.2.8.57.53.93,1.18,1.08,1.97h-1.5c-.12-.38-.32-.7-.63-.96-.32-.25-.7-.38-1.15-.39-.33,0-.62.07-.86.2-.24.13-.44.29-.59.48-.18.2-.31.46-.37.77-.07.33-.1.96-.1,1.88s.03,1.54.1,1.86c.06.32.18.59.37.79.15.19.35.35.59.47.24.14.52.21.86.21.79,0,1.39-.42,1.78-1.27h1.5Z"/>
              <path class="cls-8" d="M190.3,69.8h1.49l1.47,6.63h.03l1.81-6.63h1.02l1.81,6.63h.03l1.47-6.63h1.49l-2.33,9.34h-1.18l-1.78-6.73h-.03l-1.79,6.73h-1.18l-2.33-9.34Z"/>
              <path class="cls-8" d="M204.36,74.47c0-1.08.03-1.81.1-2.18.07-.37.17-.66.31-.89.23-.43.59-.82,1.09-1.15.49-.34,1.1-.52,1.84-.53.74,0,1.36.18,1.86.53.49.34.85.72,1.06,1.15.16.23.27.52.33.89.06.37.08,1.09.08,2.18s-.03,1.79-.08,2.16c-.06.38-.17.68-.33.9-.22.43-.57.81-1.06,1.14-.5.34-1.11.52-1.86.54-.73-.02-1.35-.2-1.84-.54-.5-.33-.86-.71-1.09-1.14-.07-.14-.13-.28-.19-.4-.05-.13-.09-.3-.13-.5-.06-.38-.1-1.1-.1-2.16ZM205.78,74.47c0,.92.03,1.54.1,1.86.06.32.18.59.37.79.15.19.35.35.59.47.24.14.52.21.86.21s.63-.07.88-.21c.23-.12.42-.28.56-.47.18-.2.31-.46.38-.79.06-.32.1-.95.1-1.86s-.03-1.54-.1-1.88c-.07-.32-.19-.57-.38-.77-.14-.19-.33-.35-.56-.48-.25-.12-.54-.19-.88-.2-.33,0-.62.07-.86.2-.24.13-.44.29-.59.48-.18.2-.31.46-.37.77-.07.33-.1.96-.1,1.88Z"/>
              <path class="cls-8" d="M214.98,74.47c0-1.08.03-1.81.1-2.18.07-.37.17-.66.31-.89.23-.43.59-.82,1.09-1.15.49-.34,1.1-.52,1.84-.53.74,0,1.36.18,1.86.53.49.34.85.72,1.06,1.15.16.23.27.52.33.89.06.37.08,1.09.08,2.18s-.03,1.79-.08,2.16c-.06.38-.17.68-.33.9-.22.43-.57.81-1.06,1.14-.5.34-1.11.52-1.86.54-.73-.02-1.35-.2-1.84-.54-.5-.33-.86-.71-1.09-1.14-.07-.14-.13-.28-.19-.4-.05-.13-.09-.3-.13-.5-.06-.38-.1-1.1-.1-2.16ZM216.4,74.47c0,.92.03,1.54.1,1.86.06.32.18.59.37.79.15.19.35.35.59.47.24.14.52.21.86.21s.63-.07.88-.21c.23-.12.42-.28.56-.47.18-.2.31-.46.38-.79.06-.32.1-.95.1-1.86s-.03-1.54-.1-1.88c-.07-.32-.19-.57-.38-.77-.14-.19-.33-.35-.56-.48-.25-.12-.54-.19-.88-.2-.33,0-.62.07-.86.2-.24.13-.44.29-.59.48-.18.2-.31.46-.37.77-.07.33-.1.96-.1,1.88Z"/>
              <path class="cls-8" d="M225.92,69.8h3.27c1.26,0,2.21.53,2.84,1.58.23.35.37.72.43,1.1.05.38.07,1.05.07,1.99,0,1-.04,1.7-.11,2.1-.03.2-.09.38-.15.54-.07.15-.16.31-.26.48-.27.44-.65.8-1.14,1.09-.48.31-1.07.46-1.77.46h-3.17v-9.34ZM227.33,77.8h1.69c.79,0,1.37-.27,1.73-.81.16-.2.26-.45.3-.76.04-.3.06-.87.06-1.7s-.02-1.39-.06-1.74c-.05-.35-.17-.63-.37-.85-.39-.54-.95-.8-1.66-.79h-1.69v6.66Z"/>
            </g>
          </g>
        </g>
      </g>
    </g>
  </g>
</svg>