<?xml version="1.0" encoding="UTF-8"?>
<svg id="Layer_2" data-name="Layer 2" xmlns="http://www.w3.org/2000/svg" viewBox="0 0 1920.99 991.19">
  <defs>
    <style>
      .cls-1 {
        stroke-dasharray: 9.55 2.87;
      }

      .cls-1, .cls-2, .cls-3, .cls-4, .cls-5, .cls-6, .cls-7, .cls-8, .cls-9, .cls-10, .cls-11, .cls-12, .cls-13, .cls-14, .cls-15, .cls-16, .cls-17, .cls-18, .cls-19, .cls-20, .cls-21, .cls-22, .cls-23, .cls-24, .cls-25, .cls-26, .cls-27, .cls-28, .cls-29, .cls-30, .cls-31, .cls-32, .cls-33, .cls-34, .cls-35, .cls-36, .cls-37, .cls-38, .cls-39, .cls-40, .cls-41, .cls-42, .cls-43, .cls-44, .cls-45, .cls-46, .cls-47, .cls-48, .cls-49, .cls-50, .cls-51, .cls-52, .cls-53, .cls-54, .cls-55, .cls-56, .cls-57, .cls-58, .cls-59, .cls-60, .cls-61 {
        fill: none;
      }

      .cls-1, .cls-2, .cls-3, .cls-4, .cls-5, .cls-6, .cls-7, .cls-8, .cls-9, .cls-10, .cls-11, .cls-12, .cls-13, .cls-14, .cls-15, .cls-16, .cls-17, .cls-18, .cls-19, .cls-20, .cls-21, .cls-22, .cls-23, .cls-24, .cls-26, .cls-27, .cls-28, .cls-29, .cls-30, .cls-31, .cls-32, .cls-33, .cls-34, .cls-35, .cls-36, .cls-37, .cls-38, .cls-39, .cls-40, .cls-41, .cls-42, .cls-43, .cls-44, .cls-45, .cls-46, .cls-47, .cls-48, .cls-49, .cls-50, .cls-51, .cls-52, .cls-53, .cls-54, .cls-55, .cls-56, .cls-57, .cls-58, .cls-59, .cls-60, .cls-61 {
        stroke: #000;
        stroke-width: .75px;
      }

      .cls-62, .cls-63, .cls-64 {
        fill: #fff;
      }

      .cls-62, .cls-63, .cls-64, .cls-65, .cls-66, .cls-67, .cls-68 {
        font-family: Inter-Regular, Inter;
        font-variation-settings: 'wght' 400, 'slnt' 0;
      }

      .cls-62, .cls-63, .cls-64, .cls-66, .cls-67 {
        font-size: 15.66px;
      }

      .cls-62, .cls-66 {
        letter-spacing: .13em;
      }

      .cls-2 {
        stroke-dasharray: 11.88 3.56;
      }

      .cls-3 {
        stroke-dasharray: 10.36 3.11;
      }

      .cls-4 {
        stroke-dasharray: 9.6 2.88;
      }

      .cls-69 {
        fill: #313820;
      }

      .cls-5 {
        stroke-dasharray: 12.73 3.82;
      }

      .cls-6 {
        stroke-dasharray: 9.15 2.74;
      }

      .cls-63, .cls-67 {
        letter-spacing: .13em;
      }

      .cls-7 {
        stroke-dasharray: 7.36 2.21;
      }

      .cls-8 {
        stroke-dasharray: 6.95 2.08;
      }

      .cls-70 {
        fill: #c3c3c3;
      }

      .cls-9 {
        stroke-dasharray: 10.12 3.04;
      }

      .cls-10 {
        stroke-dasharray: 12.6 3.78;
      }

      .cls-11 {
        stroke-dasharray: 6.58 1.97;
      }

      .cls-64 {
        letter-spacing: .13em;
      }

      .cls-12 {
        stroke-dasharray: 7.33 2.2;
      }

      .cls-13 {
        stroke-dasharray: 7.52 2.26;
      }

      .cls-14 {
        stroke-dasharray: 10.53 3.16;
      }

      .cls-15 {
        stroke-dasharray: 9.24 2.77;
      }

      .cls-16 {
        stroke-dasharray: 9.65 2.9;
      }

      .cls-17 {
        stroke-dasharray: 7.7 2.31;
      }

      .cls-18 {
        stroke-dasharray: 5.14 1.54;
      }

      .cls-19 {
        stroke-dasharray: 10.05 3.02;
      }

      .cls-20 {
        stroke-dasharray: 10.86 3.26;
      }

      .cls-21 {
        stroke-dasharray: 5.98 1.79;
      }

      .cls-71 {
        fill: #8d8d8d;
      }

      .cls-22 {
        stroke-dasharray: 9.27 2.78;
      }

      .cls-65 {
        letter-spacing: .13em;
      }

      .cls-65, .cls-68 {
        fill: #bdbdbd;
        font-size: 20px;
      }

      .cls-23 {
        stroke-dasharray: 12.92 3.88;
      }

      .cls-24 {
        stroke-dasharray: 7.44 2.23;
      }

      .cls-25 {
        stroke: #3f3a33;
        stroke-width: .5px;
      }

      .cls-25, .cls-44 {
        stroke-linejoin: round;
      }

      .cls-66, .cls-67 {
        fill: #cbcbcb;
      }

      .cls-26 {
        stroke-dasharray: 8.93 2.68;
      }

      .cls-27 {
        stroke-dasharray: 10.2 3.06;
      }

      .cls-28 {
        stroke-dasharray: 8.84 2.65;
      }

      .cls-29 {
        stroke-dasharray: 9.62 2.89;
      }

      .cls-72 {
        fill: #63683e;
      }

      .cls-30 {
        stroke-dasharray: 7.46 2.24;
      }

      .cls-31 {
        stroke-dasharray: 7.68 2.3;
      }

      .cls-32 {
        stroke-dasharray: 8.9 2.67;
      }

      .cls-33 {
        stroke-dasharray: 6.85 2.05;
      }

      .cls-34 {
        stroke-dasharray: 8.73 2.62;
      }

      .cls-35 {
        stroke-dasharray: 9.16 2.75;
      }

      .cls-36 {
        stroke-dasharray: 10.04 3.01;
      }

      .cls-37 {
        stroke-dasharray: 10.13 3.04;
      }

      .cls-38 {
        stroke-dasharray: 5.1 1.53;
      }

      .cls-39 {
        stroke-dasharray: 8.04 2.41;
      }

      .cls-40 {
        stroke-dasharray: 10.25 3.08;
      }

      .cls-41 {
        stroke-dasharray: 9.86 2.96;
      }

      .cls-42 {
        stroke-dasharray: 10.06 3.02;
      }

      .cls-43 {
        stroke-dasharray: 9.26 2.78;
      }

      .cls-44 {
        opacity: .85;
        stroke-linecap: round;
      }

      .cls-45 {
        stroke-dasharray: 9.35 2.81;
      }

      .cls-46 {
        stroke-dasharray: 8.87 2.66;
      }

      .cls-48 {
        stroke-dasharray: 9.87 2.96;
      }

      .cls-49 {
        stroke-dasharray: 8.6 2.58;
      }

      .cls-50 {
        stroke-dasharray: 10.87 3.26;
      }

      .cls-51 {
        stroke-dasharray: 11.19 3.36;
      }

      .cls-52 {
        stroke-dasharray: 9.05 2.71;
      }

      .cls-53 {
        stroke-dasharray: 9.81 2.94;
      }

      .cls-54 {
        stroke-dasharray: 9.63 2.89;
      }

      .cls-68 {
        letter-spacing: .13em;
      }

      .cls-55 {
        stroke-dasharray: 8.62 2.59;
      }

      .cls-56 {
        stroke-dasharray: 5.72 1.72;
      }

      .cls-57 {
        stroke-dasharray: 8.59 2.58;
      }

      .cls-58 {
        stroke-dasharray: 10.1 3.03;
      }

      .cls-59 {
        stroke-dasharray: 5.11 1.53;
      }

      .cls-60 {
        stroke-dasharray: 10.19 3.06;
      }

      .cls-73 {
        opacity: .62;
      }

      .cls-61 {
        stroke-dasharray: 9.7 2.91;
      }
    </style>
  </defs>
  <g id="Cennik">
    <g id="ReferencieMapa">
      <g id="Mapavzorkovni">
        <g>
          <polyline class="cls-69" points=".61 12.95 1920.61 12.95 1920.61 991.19 .61 991.19"/>
          <path class="cls-44" d="M514.74,14.64c3.83,5.32,7.26,10.31,10.95,15.11,1.2,1.57,2.94,3.45,4.64,3.69,1.61.22,3.49-1.53,4.9-2.24,12.49,6.69,14.28,19.25,17.51,30.31,3.99,1.14,7.14,2.04,10.24,2.92-.9,7.45,4.87,9.6,8.9,12.8,7.87-.71,14.74-2.46,18.09-10.74,5.44,2.48,8.5-1.13,11.31-4.39,2.48,1.53,4.44,2.75,7.53,4.66.35-4.26.6-7.37.83-10.2-3.51-.4-6.11-.69-10.61-1.2,3.15-4.03,5.19-6.64,7.36-9.43,4.86,3.06,8.7,5.47,10.93,6.87,2.17,5.99,3.82,10.52,5.47,15.06l.78,1.55c3.42.82,6.84,1.63,11.19,2.67.37-.59,1.24-1.99,2.15-3.45h7.56c-.6,10.96,6.67,11.4,14.09,11.41.96,3.82,1.87,7.42,3.02,11.97,1.44.8,3.77,2.1,7.04,3.93,2.39-2.81,4.65-5.48,7.03-8.28,3.78.66,8.39,1.47,14.67,2.56,5.68,3.38,13.06,7.78,21.11,12.57,2.06-4.12,3.51-7.02,4.99-9.99,1.49.37,3.33.83,5.48,1.37v15.84c1.68.84,3.76,1.87,6.28,3.13-2.24,3.83-4.46,7.64-7.15,12.26,3.98,8.54,8.19,17.58,12.64,27.14-.19,2.07-.45,4.92-.85,9.23,5.51,1.48,11.06,2.96,17.05,4.57,1.64,2.45,3.68,5.49,5.63,8.39,7.78-3.26,8.87-3.15,16.18.94,3.75,13.34,1.52,27.81,9.48,40.43-.84,2.51-3.75,7.77-4.78,10.88"/>
          <path class="cls-44" d="M293.74,10.37c7.31,12.41,14.77,23.53,30.64,25.16,4.84-4.96,10.34-10.61,15.84-16.25.46.43.92.86,1.38,1.29,3.35-7.22,3.89-16.18,13.12-20.19"/>
          <path class="cls-44" d="M374.08,517.86c-4.53-.05-3.87-3.36-3.88-6.22-.02-5.44.24-10.9-.1-16.32-.2-3.21-1.32-6.37-2.35-11.02-8.17,1.63-15.4,3.08-23.69,4.73-3.88-2.59-9.02-6.02-13.83-9.23-3.24.96-6.07,1.79-9.1,2.69-.81-4.77-1.56-9.18-2.55-15.05-5.15-1.04-10.87-2.19-18.73-3.78-1.78-1.65-5.28-4.9-9.06-8.42-1.77,1.62-3.41,3.11-5.12,4.68-3.62-1.21-6.95-2.32-11.31-3.78-3.18,12.46-11.8,20.45-22.96,26.17-.63-1.26-1.15-2.3-1.67-3.34-.26-.26-.74-.75-.75-.74-1.33,1.26-2.62,2.56-3.76,3.69-9.99-1.51-19.81-4.03-29.7-4.29-19.4-.5-36.17-6.67-50.43-20.21.21-.99.53-2.53.64-3.09-3.15-2.23-5.85-4.15-8.55-6.06-5.8-4.04-13.99-4.75-16.52-13.32-3.88.21-8.02.43-12.12.65-1.73,2.27-3.51,4.62-4.68,6.17-14.85,3.8-21.82-7.55-31.01-14.12-9.11,1.19-18.13-3.48-22.8-10.77-1.69-2.65-5.33-6.28-7.58-5.96-11.01,1.58-16.97-6.82-24.93-11.21-.2-.11-.51-.01.39-.01-5.82-.35-10.77,4.55-14.92-1.16-1.59,4.09-3.01,7.77-4.63,11.93-7.9-5.47-10.53.32-18.02,1.68"/>
          <path class="cls-44" d="M1920.61,748.3c-6.27-6.78-12.74-8.1-21.32-5.93-3.87-3.44-7.81-6.49-11.19-10.07-3.7-3.91-11.91,2.37-12.06-5.38h-12.08c-2.11,11.48-15.58,0-19.52,11.91-7.2-25.89-24.28-22.74-43.26-17.49-1.83-2.6-3.98-5.66-5.15-7.33-9.05-1.02-17.24,2.56-22.38-6.49-2.77,6.16-5.29,11.75-7.92,17.6-11.21-5.22-21.83-10.16-32.59-15.16-.47-2.16-.92-4.25-1.4-6.47-3.27-1.45-6.66-2.95-10.31-4.57,2.62-6.06.65-11.07-3.22-15.13h-16.09c-.94-1.83-1.77-3.43-3.1-6.02-4.31,3.06-8.28,5.88-12.68,9.01-1.88,8.49-3.84,17.33-5.72,25.82-5.62,1.35-11.12,2.67-17.99,4.32-4.28-1.88-10.13-4.45-17.02-7.47,1.58,5.85,2.83,10.46,4.13,15.25-.65.78-1.22,2.1-1.85,2.12-7.86.3-11.38,5.57-14.89,11.68-4.83,8.41-12.82,11.87-23.22,10.81,1.54,4.64,2.73,8.22,4.08,12.29-2.78,4.64-5.97,8.63-12.25,5.67-6.62,3.79-3.46,14.45-12.02,16.3-7.9,1.71-15.92,2.85-23.11,4.11-5.82-4.65-10.6-8.47-15.52-12.4-2.4.67-4.46,1.25-6.68,1.87-1.37,6.73-2.7,13.26-4.15,20.39-7.63-2.41-14.82-4.68-22.55-7.13-.57,2.24-1.11,4.39-1.65,6.5-3.51,1-6.9,1.97-10.23,2.93-1,4.02-1.98,7.92-3.12,12.5-6.5-.44-7.07,4.75-8.61,9.36-2.46,7.39-5.23,14.68-7.87,22-3.49-.44-6.33-.79-9.68-1.21-2.2,3.61-4.45,7.29-6.79,11.14-4.61-.11-8.5,1.17-9.03,6.94l1.55,1.55c-2.58-2.15-4.31-2.52-5.53,1.53-1.72,5.72-4.05,11.26-6.1,16.84,8.62,10.39,7.58,20.49.48,31-10.02-2.45-16.99,1.92-20.61,11.29-2.78,7.21-9.06,13.7-5.38,22.4-2.98,5.03-5.89,9.93-8.78,14.81.93,2.61-1.11,21.72,0,24.84"/>
          <path class="cls-25" d="M1639.34,728.48c-4.01-3.53-8.02-7.06-11.59-10.2,2.74-5.49,5.68-11.4,8.67-17.39-3.13-4.31-5.71-7.85-8.28-11.4-.92.62-1.85,1.24-2.77,1.85,3.35-8.45-2.42-11.51-7.16-14.71-1.21-.82-4.21,1.01-7.55,1.95-1.97.22-5.79-.35-8.54,1.1-12.13,6.44-12.02,6.65-25.81,2.7-.68-4.27-1.43-8.89-2.53-15.75-2.12-2.43-7.53-6.28-4.16-13.77-2.78-1.42-5.46-2.79-7.88-4.03-4.05-13.71-19.67-18-31.73-8.55-3.98-7.14-11.15-12.57-9.71-22.19.17-1.15-1.69-2.48-2.15-3.88-1.13-3.45-1.99-6.99-3.34-11.86-1.79-.41-5.44-1.26-9.41-2.18-1.67-2.44-3.45-5.05-5.32-7.78,1.43-2.26,2.85-4.51,3.85-6.1-3.36-1.86-6.51-3.6-11-6.09-2.82,1.69-7.34,3.93-11.3,6.91-4.1,3.09-7.65,6.89-11.59,10.51-2.53-1.89-3.86-2.88-5.8-4.34-.57.12-2.12.44-4.25.89-1.85-.96-4.13-2.14-6.42-3.32.12.48.25.95.37,1.43-10.56,2.91-21.11,5.83-33.04,9.12-.76-.35-2.97-1.39-6.23-2.92-.39,3.48-.69,6.09-1.11,9.84-6.96-1.11-14.17-2.26-22.07-3.53-1.57-3.03-3.33-6.42-5.42-10.45-2.15-.93-5.02-2.17-6.93-2.99-4.22-13.41-8.24-26.15-12.01-38.13h-15.05c-2.37-4.67-4.03-10.24-7.53-14.18-3.61-4.07-9.01-6.55-13.98-9.96-1.58,2.36-3.01,4.51-4.97,7.43h-20.17c-1.65,4.28-3.09,8.05-4.72,12.28-5.07-1.69-9.73-3.24-14.66-4.89-4.44,2.07-9.39,4.38-14.34,6.68-.36-.61-.73-1.22-1.09-1.83-1.66,2.93-3.33,5.87-5.85,10.31-2.61-1.31-6.01-1.96-7.68-4.02-7.23-8.91-13.6-11.19-24.23-7.65-1.55.52-3.03,1.23-4.8,1.96-2.81-4.49-5.48-8.76-8-12.79-3.73.95-7.08,1.8-11.62,2.96-1.77-2.54-3.59-5.13-5.4-7.73.29-.68.58-1.36.88-2.03-9.01,1.47-17.97,3.46-27.04,4.27-9.16.82-17.26,3.42-25.03,8.43-2.58,1.66-7.13.26-11.36.26-.44.74-1.37,2.35-2.43,4.15-1.9-.63-3.7-1.22-5.87-1.94v12.92c-6.46,8.56-12.58,16.65-18.14,24.01-1.14,4.58-2.12,8.47-3.34,13.37.11.54,1.34,2.73.75,4.16-4.5,10.92-20.44,30.43-26.58,32.81-2.44-1.74-5.01-3.57-7.77-5.53-3.42,2.73-7.03,5.6-10.52,8.39-4.19-.24-8.33-.47-12.89-.73-.39,3.93-.7,7.07-1,10.05-3.81,2.73-7.42,5.33-11.06,7.91-3.27,2.32.22,9.13-9.15,8.46-7.99-2.36-11.48-.99-18.15,7.79-2.31,3.04-5.8,5.18-8.78,7.76-.59-5.47-1.01-9.37-1.58-14.7-8.56.67-15.82,1.24-24.33,1.91.45-2.13,1.08-5.16,1.78-8.52-8.6-9.77-11.03-10.43-16.73-4.25-7.55.25-8.13-5.96-9.94-11.19-2.66-1.2-5.29-2.38-7.65-3.44-8.21,6.24-16.39,12.27-24.3,18.62-1.36,1.09-2.41,3.58-2.29,5.33.73,10.07-4.7,17.99-8.79,26.73-1.51-1.26-2.95-2.46-4.39-3.66-.01.66-.03,1.31-.04,1.97-8.33.72-16.67,2.15-24.98,1.98-8.63-.18-14.55,3.03-19,10.55-6.96-1.87-14.18-3.81-19.48-5.23-5.73.57-9.61.95-13.48,1.33-.13-.47-.27-.93-.4-1.4-1.95,1.47-3.91,2.94-5.79,4.36-3-1.91-5.85-3.72-8.69-5.53l-1.55,1.55c-2.64,2.42-4.67,4.34-9.33,4.29-9.36-.11-18.74,2.07-28.03,3.29-1.15,6.11-2.12,11.31-3.19,16.98-4.05,1.8-8.39,3.73-13.22,5.88,1.88,2.25,3.07,3.69,4.39,5.28-4.02,8.92-5.11,17.96-1.85,27.65,3.2,1.6,6.62,3.31,8.36,4.18,3.89,4.81,6.69,8.28,9.69,11.99-8,.63-15.82,1.25-23.88,1.88-2.52,10.73-11.06,13.71-19.08,16.43-8.67-.41-17.2-.05-25.66.95-5.16.61-10.17,3.38-14.96-1.47-.76-.77-3.98.78-6.03,1.39-15.51,4.61-30.26,10.71-47.57,5.13-12.38-3.99-26.09-5.65-39.5-2.1-1.69.45-4.07.76-5.34-.07-4.11-2.7-7.95-1.64-11.72.17-7.73,3.71-15.96,2.81-24.11,3.13-12.98.52-23.95-3.31-32.69-13.24-3.99-4.53-8.51-8.6-12.68-12.78-3.33.81-6.14,1.49-9.55,2.32-4.06-11.96-11.2-20.53-24.22-21.63-3.7-16.21-16.03-25.21-25.75-35.57h-12.58c-2.13-2.48-4.64-5.41-6.97-8.13-12.98-.48-21.69,7.55-31.08,16.71,1.55.82,3.07,1.64,4.43,2.36-1.46,3.32-2.59,5.87-3.69,8.35,3.81,4.65,3.47,6.78-2.7,18.96-5.12,1.7-9.79,3.24-15.25,5.05,4.74,5.69,8.99,10.78,13.13,15.76-1.56,1.86-3.22,3.84-5.08,6.08,2.34,8.61,4.6,16.92,7.11,26.17-14.03,2.14-28.77,4.38-42.91,6.53-1.7-3.99-2.74-6.43-4.04-9.49-2.94,4.42-5.21,7.83-7.4,11.12q-16.24,0-22.22-16.87c-4.38-.74-9.04-1.54-14.5-2.46-1.08-1.42-2.74-3.62-4.31-5.68-6.15.79-11.86,1.52-17.4,2.22-3.43,4.62.87,11.85-5.58,15-4.92,2.4-9.92,4.64-14.88,6.95-.27-.53-.54-1.05-.81-1.58-1.51,2.61-3.02,5.23-4.6,7.95,6.19,2.14,10.82,9.4,18.82,5.28,6.48,5.62,13.03,11.19,22.35,5.68,3.73,2.87,7.1,5.46,10.44,8.03-.62,4-1.18,7.62-1.76,11.33,3.46,2.88,6.98,5.81,10.39,8.65-1.76,3.49-3.22,6.39-4.52,8.97-2.56.55-4.64,1-7.05,1.52,1.02,3.6,1.96,6.92,2.9,10.24-2.22,12.01-17.5,10.73-21.26,21.26-3.56-.28-7.19-.57-11.49-.91-1.22,1.11-2.85,2.61-4.49,4.1.07-.66.13-1.33.2-1.99-3.39-.92-6.78-1.84-10.76-2.92q1.74,13.38-2.14,19.38c9.32,6.37,12.44,19.2,6.82,29.07-2.13.34-4.48.72-5.06.82-1.82,6.98-3.43,13.12-5.27,20.18,1.78.43,4.16,1.01,6.86,1.66,1.58,3.45,4.3,7.34-.16,12.16"/>
          <path class="cls-44" d="M421.62,713.44c-4.97,3.09-9.5,7.39-14.19,11.97,1.55.82,3.07,1.64,4.43,2.36-1.46,3.32-2.59,5.87-3.69,8.35,3.81,4.65,3.47,6.78-2.7,18.96-5.12,1.7-9.79,3.24-15.25,5.05,4.74,5.69,8.99,10.78,13.13,15.76-1.56,1.86-3.22,3.84-5.08,6.08,2.34,8.61,4.6,16.92,7.11,26.17-14.03,2.14-28.77,4.38-42.91,6.53-1.7-3.99-2.74-6.43-4.04-9.49-2.94,4.42-5.21,7.83-7.4,11.12q-16.24,0-22.22-16.87c-4.38-.74-9.04-1.54-14.5-2.46-1.08-1.42-2.74-3.62-4.31-5.68-6.15.79-11.86,1.52-17.4,2.22-3.43,4.62.87,11.85-5.58,15-4.92,2.4-9.92,4.64-14.88,6.95-.27-.53-.54-1.05-.81-1.58-1.51,2.61-3.02,5.23-4.6,7.95,6.19,2.14,10.82,9.4,18.82,5.28,6.48,5.62,13.03,11.19,22.35,5.68,3.73,2.87,7.1,5.46,10.44,8.03-.62,4-1.18,7.62-1.76,11.33,3.46,2.88,6.98,5.81,10.39,8.65-1.76,3.49-3.22,6.39-4.52,8.97-2.56.55-4.64,1-7.05,1.52,1.02,3.6,1.96,6.92,2.9,10.24-2.22,12.01-17.5,10.73-21.26,21.26-3.56-.28-7.19-.57-11.49-.91-1.22,1.11-2.85,2.61-4.49,4.1.07-.66.13-1.33.2-1.99-3.39-.92-6.78-1.84-10.76-2.92q1.74,13.38-2.14,19.38c9.32,6.37,12.44,19.2,6.82,29.07-2.13.34-4.48.72-5.06.82-1.82,6.98-3.43,13.12-5.27,20.18,1.78.43,4.16,1.01,6.86,1.66,1.58,3.45,4.3,7.34-.16,12.16"/>
          <path class="cls-44" d="M1639.34,728.48c-4.01-3.53-8.02-7.06-11.59-10.2,2.74-5.49,5.68-11.4,8.67-17.39-3.13-4.31-5.71-7.85-8.28-11.4-.92.62-1.85,1.24-2.77,1.85,3.35-8.45-2.42-11.51-7.16-14.71-1.21-.82-4.21,1.01-7.55,1.95-1.97.22-5.79-.35-8.54,1.1-12.13,6.44-12.02,6.65-25.81,2.7-.68-4.27-1.43-8.89-2.53-15.75-2.12-2.43-7.53-6.28-4.16-13.77-2.78-1.42-5.46-2.79-7.88-4.03-4.05-13.71-19.67-18-31.73-8.55-3.98-7.14-11.15-12.57-9.71-22.19.17-1.15-1.69-2.48-2.15-3.88-1.13-3.45-1.99-6.99-3.34-11.86-1.79-.41-5.44-1.26-9.41-2.18-1.67-2.44-3.45-5.05-5.32-7.78,1.43-2.26,2.85-4.51,3.85-6.1-3.36-1.86-6.51-3.6-11-6.09-2.82,1.69-6.17,3.09-10.13,6.07"/>
          <path class="cls-44" d="M1742.24,12.95c-9.48,9.14-28.45,27.47-33.81,38.93-6.52,13.94-16.83,24.5-24.92,36.89-6.36,9.74-13.74,18.83-20.94,27.99-1.8,2.29-4.66,3.74-8.16,6.45.65,6.41-3.21,11.93-9.41,17.18-4.95,4.19-8.01,10.61-11.86,16.08-1.62,2.29-2.59,5.5-4.76,6.85-15.27,9.57-19.26,26.95-28.66,40.56-4.48,6.5-8.81,13.1-13.2,19.66-.61-.3-1.23-.61-1.85-.91.91,2.28,1.82,4.56,2.8,6.99,2.91,1.45,6.02,3.01,9.14,4.56,3.63,17.88,8.12,35.63,10.55,53.67,1.48,10.99,1.87,22.8-6.17,33.2,1.83,1.31,3.77,2.69,6.08,4.34-2.55,4.35-5.13,8.77-7.72,13.19.55.45,1.1.9,1.64,1.35,1.96-1.35,3.91-2.71,5.87-4.06.4.34.81.68,1.21,1.02-.44,2.05-.88,4.09-1.35,6.29,3.09.39,6.21.78,9.34,1.17,1.05,13.07,13.08,14.58,21.45,20.76-11.18,8.52-2.59,16.82,1.24,25.89-3.6,1.3-6.55,2.37-7.82,2.83-6.71-5.54-12.64-10.43-18.57-15.32-.11.41-.22.82-.33,1.23-3.87-.4-7.74-.81-13.13-1.37-1.05.52-3.54,1.76-7.04,3.5-5.18-5.68-10.37-11.36-15.61-17.1-2.24.34-5.69.86-7.63,1.14"/>
          <path class="cls-72" d="M420.71,712.94c-2.95-2.53-5.9-5.06-8.95-7.67-2.26,1.34-3.94,2.34-4.3,2.55-2.22-1.19-3.74-2-4.11-2.19,1.12-8.14,2.09-15.18,3.03-22.01-2.64-4.38-5.27-8.75-8.09-13.43-6.05-.06-6.6.36-12.43-7.09-7.38-9.43-11.25-20.24-7.35-32.33-3.17-1.16-5.8-2.11-7.68-2.8-1.99-3.98-3.65-7.3-5.31-10.61.85-1.78,1.71-3.56,2.58-5.39-5.54-1.24-6.8-7.95-12.61-9.02-1.06-.19-2.68-7.12-1.36-8.69,6-7.14,4.53-14.39,1.65-22.37,6.41-8.23,12.84-16.5,19.27-24.76.57.34,1.13.68,1.7,1.02-.38-4.65-.57-9.33-1.17-13.96-.91-6.97-2.11-13.54,2.16-20.35,3.65-5.81,4.89-13.08,8.1-19.24,5.92-11.35,9.03-24.32,19.93-32.91,3.23-2.55,4.44-7.67,6.31-11.13,6.44-5.2,12.76-10.3,19.58-15.79,4.67,2.09,9.87,5.59,15.52,6.67,7.71,1.47,10.98,7.85,16.47,11.63,2.46,1.69,7.62,1.43,10.54,0,3.58-1.76,6.11-5.68,9.26-8.84,6.1,3.63,11.79,7.02,18.09,10.77,3.43-.38,5.05-8.48,10.87-3.37,3.61-6.91,9.77-9.19,16.33-9.78,6.29-.56,11.01-3.14,14.74-7.93,3.63-4.66,7.18-9.38,11-14.37h19.71c3.8-10.91,7.52-21.59,11.1-31.86,8.22-.74,16.23-1.46,24.24-2.18.45.52.9,1.05,1.35,1.57,1.11-1.74,2.2-3.5,3.34-5.22,5.33-8.03,12.36-15.33,9.45-26.46-.85-3.25-.62-6.79,2.85-9.46,1.33-1.02,1.21-3.96,1.67-6.05.57-2.58,1.05-5.18,1.57-7.77,1.06-5.31,2.12-10.63,3.18-15.94-.44-.05-.88-.11-1.32-.16,3.04-4.52,6.08-9.04,8.82-13.11,11.09-3.95,22.62-7.36,33.55-12.14,11.91-5.21,14.57-11.4,12.35-24.85,3.06.24,5.89.46,9.77.76,5.84-7.43,12.18-15.5,19.08-24.28-.4-1.5-1.07-4.04-2.07-7.84,4.4-2.24,8.84-4.51,13.29-6.78,5.33,10.86,11.84,2.41,18.76,2.52,8.09,7.26,16.6,5.84,25.41-1.35,2.56-2.09,7.06-1.99,10.72-2.47,4.11-.53,8.3-.44,12.42-.87,7.86-.82,12.85,4.4,11.64,12.46-.46,3.12-1.11,6.2-1.71,9.46,2.02,2.41,4.05,4.84,6.05,7.22-1.77,2.74-3.21,4.98-4.45,6.89,1.21,2.06,2.15,3.67,2.44,4.17,9.61,5.21,14.31-2.05,19.66-6.3,9.29,5.55,21.76,5.55,26.98.33-.78-1.55-1.55-3.11-2.61-5.21,2.55-2.37,5.23-4.87,8.16-7.6,3.75-7.51-2.4-18.53,5.63-23.29,9.71-1.73,17.27-3.08,25.34-4.52v-10.23c7.47,2.1,7.16-3.9,8.79-7.26,2.64-.57,4.72-1.02,5.11-1.1,2.11-2.8,3.33-4.42,5.48-7.27.44,3.52.14,6.13.9,6.49,11.34,5.35,13.96,15.24,15.8,26.53,1.1,6.75,5.48,12.96,9.06,20.9,3.1.55,7.25,1.28,12.22,2.16-.37,2.96-.89,7.07-1.43,11.42,5.96,2.4,11.98,4.82,18.66,7.51,3.91-3.24,7.42-9.84,15.45-5.41.67,11.87,1.34,23.74,2.01,35.62-1.4.81-2.8,1.62-4.2,2.43,2.67,1.28,5.33,2.57,8.35,4.02-3.45,1.72-5.53,2.75-7.12,3.54-2.17,6.24-4.22,12.12-6.21,17.85,3.73,3.34,7.33,5.51,11.59,2.37,9.58,6,16.44,2.71,20.1-10.17,5.2.33,10.63.68,16.54,1.05,3.43,10.08,12.46,12.51,21.13,17.11.98-15.86,3.44-30.71,11.88-42.58,1.1.45,2.38.98,4.38,1.8.87-2.18,1.48-5.65,3.41-8.05,2.38-2.96,5.86-5.04,8.27-7,7.35.88,13.8,1.65,19.83,2.37,1.01-7.22,1.88-13.47,2.45-17.54,4.7-1.17,7.98-1.99,11.27-2.82v3.11c4.03,4.99,6.1-1.49,9.3-1.81,1.4-.14,2.52-3.07,4.74-6.04,8.69,4.4,18.3,9.26,29.3,14.82,2.5-4,5.06-8.09,7.86-12.57,2.06,1.19,4.56,2.64,7.14,4.13,3.02-2.17,6.07-4.35,9.81-7.02,4.09,2.16,8.3,4.38,12.68,6.69v9.98c2.23-.56,3.44-.87,2.8-.7,4.85,4.84,8.99,8.99,12.8,12.79,3.49-1.79,5.44-2.79,8.14-4.18,1.1,3.27,1.89,5.64,2.69,8.02.33-.35.66-.7.98-1.04,3.52,3.25,7.04,6.49,10.49,9.67,3.62-1.45,7.06-2.83,10.5-4.21-.5-.52-1.01-1.04-1.51-1.55,4.55-5.83,9.09-11.66,13.61-17.45,5.54,3.7,8.68,1.92,11.11-2.36-3.6-4.5-7.09-8.86-10.55-13.18,6.41-1.87,11.54-3.35,16.65-4.88.07-.02-.09-.59.04-.72.13-.13.49-.03.58-.03,5.32,4.12,8.6,11.66,17.98,9.62.08-9.56,8.85-11.93,13.63-16.94,4.73.86,9.13,1.66,13.45,2.45,3.62,1.87,7.33,3.77,11.03,5.68.27-.53.55-1.06.82-1.59,10.18,10.18,13.77,10.61,19.43,2.33,2.07,1.04,4.15,2.07,6.2,3.09,4.98-11.49,18.09-.02,23.82-9.9,2.73,4.25,4.74,7.39,6.82,10.63,3.85.48,8,1,12.04,1.51,4.66,5.4,9.22,10.69,13.23,15.33,3.57-2.83,7.63-6.05,10.73-8.5,6.52,4.97,11.72,8.93,18.22,13.88h10.99c-.27,11.29,8.22,17.18,14.73,23.89-.31,6.04-.6,11.48-.88,16.88,12.29,3.68,24.3,6.48,32.77,15.83,2.62-1.3,4.69-2.34,6.54-3.26,4.5,2.37,4.03,5.64,1.38,8.99,11.22,6.44,18.7,7.23,29.87,3.35,5.73,5.15,6.3,17.53,18.58,13.09,7.95,6.6,13.38,6.6,23.44,5.15-1.29,8.03-6.06,17.45-4.4,26.77-17.78,1.22-19.31,16.5-23.57,29.59-2.04,6.27-2.56,13.47-10.88,16.09-.32,10.96,6.03,23.56-6.98,30.69-.19,6.6,3.82,11.62,1.32,18.69-2.4,6.82-6.05,10.79-11.37,14.67-4.26,3.11-7.7,7.32-11.78,10.73-3.74,3.13-7.85,5.83-13.66,10.08-5.79,10.32-5.32,24.52-7.13,38.17-.87,6.62-.27,13.46-.05,20.18.04,1.32,1.91,3.39,2.68,4.69l.05-.04c-.41.29-.82.58-1.22.88-4.1,3.09-7.65,6.89-11.59,10.51-2.53-1.89-3.86-2.88-5.8-4.34-.57.12-2.12.44-4.25.89-1.85-.96-4.13-2.14-6.42-3.32.12.48.25.95.37,1.43-10.56,2.91-21.11,5.83-33.04,9.12-.76-.35-2.97-1.39-6.23-2.92-.39,3.48-.69,6.09-1.11,9.84-6.96-1.11-14.17-2.26-22.07-3.53-1.57-3.03-3.33-6.42-5.42-10.45-2.15-.93-5.02-2.17-6.93-2.99-4.22-13.41-8.24-26.15-12.01-38.13h-15.05c-2.37-4.67-4.03-10.24-7.53-14.18-3.61-4.07-9.01-6.55-13.98-9.96-1.58,2.36-3.01,4.51-4.97,7.43h-20.17c-1.65,4.28-3.09,8.05-4.72,12.28-5.07-1.69-9.73-3.24-14.66-4.89-4.44,2.07-9.39,4.38-14.34,6.68-.36-.61-.73-1.22-1.09-1.83-1.66,2.93-3.33,5.87-5.85,10.31-2.61-1.31-6.01-1.96-7.68-4.02-7.23-8.91-13.6-11.19-24.23-7.65-1.55.52-3.03,1.23-4.8,1.96-2.81-4.49-5.48-8.76-8-12.79-3.73.95-7.08,1.8-11.62,2.96-1.77-2.54-3.59-5.13-5.4-7.73.29-.68.58-1.36.88-2.03-9.01,1.47-17.97,3.46-27.04,4.27-9.16.82-17.26,3.42-25.03,8.43-2.58,1.66-7.13.26-11.36.26-.44.74-1.37,2.35-2.43,4.15-1.9-.63-3.7-1.22-5.87-1.94v12.92c-6.46,8.56-12.58,16.65-18.14,24.01-1.14,4.58-2.12,8.47-3.34,13.37.11.54,1.34,2.73.75,4.16-4.5,10.92-20.44,30.43-26.58,32.81-2.44-1.74-5.01-3.57-7.77-5.53-3.42,2.73-7.03,5.6-10.52,8.39-4.19-.24-8.33-.47-12.89-.73-.39,3.93-.7,7.07-1,10.05-3.81,2.73-7.42,5.33-11.06,7.91-3.27,2.32.22,9.13-9.15,8.46-7.99-2.36-11.48-.99-18.15,7.79-2.31,3.04-5.8,5.18-8.78,7.76-.59-5.47-1.01-9.37-1.58-14.7-8.56.67-15.82,1.24-24.33,1.91.45-2.13,1.08-5.16,1.78-8.52-8.6-9.77-11.03-10.43-16.73-4.25-7.55.25-8.13-5.96-9.94-11.19-2.66-1.2-5.29-2.38-7.65-3.44-8.21,6.24-16.39,12.27-24.3,18.62-1.36,1.09-2.41,3.58-2.29,5.33.73,10.07-4.7,17.99-8.79,26.73-1.51-1.26-2.95-2.46-4.39-3.66-.01.66-.03,1.31-.04,1.97-8.33.72-16.67,2.15-24.98,1.98-8.63-.18-14.55,3.03-19,10.55-6.96-1.87-14.18-3.81-19.48-5.23-5.73.57-9.61.95-13.48,1.33-.13-.47-.27-.93-.4-1.4-1.95,1.47-3.91,2.94-5.79,4.36-3-1.91-5.85-3.72-8.69-5.53l-1.55,1.55c-2.64,2.42-4.67,4.34-9.33,4.29-9.36-.11-18.74,2.07-28.03,3.29-1.15,6.11-2.12,11.31-3.19,16.98-4.05,1.8-8.39,3.73-13.22,5.88,1.88,2.25,3.07,3.69,4.39,5.28-4.02,8.92-5.11,17.96-1.85,27.65,3.2,1.6,6.62,3.31,8.36,4.18,3.89,4.81,6.69,8.28,9.69,11.99-8,.63-15.82,1.25-23.88,1.88-2.52,10.73-11.06,13.71-19.08,16.43-8.67-.41-17.2-.05-25.66.95-5.16.61-10.17,3.38-14.96-1.47-.76-.77-3.98.78-6.03,1.39-15.51,4.61-30.26,10.71-47.57,5.13-12.38-3.99-26.09-5.65-39.5-2.1-1.69.45-4.07.76-5.34-.07-4.11-2.7-7.95-1.64-11.72.17-7.73,3.71-15.96,2.81-24.11,3.13-12.98.52-23.95-3.31-32.69-13.24-3.99-4.53-8.51-8.6-12.68-12.78-3.33.81-6.14,1.49-9.55,2.32-4.06-11.96-11.2-20.53-24.22-21.63-3.7-16.21-16.03-25.21-25.75-35.57h-12.58c-2.13-2.48-4.64-5.41-6.97-8.13-6.49-.24-11.91,1.65-16.89,4.74l-.91-.5Z"/>
          <g class="cls-73">
            <g>
              <line class="cls-47" x1="1023.31" y1="424.47" x2="1027.87" y2="422.43"/>
              <polyline class="cls-47" points="1032.63 419.61 1032.82 419.46 1035.14 417.04 1035.6 415.71 1035.1 414.97 1032.75 414.52 1031.7 414.12 1031.04 413.42 1030.8 412.96"/>
              <polyline class="cls-31" points="1029.99 410.81 1029.27 408.09 1028.97 405.28 1028.28 403.74 1027.26 402.42 1025.97 401.17 1021.11 394.79"/>
              <polyline class="cls-47" points="1020.41 393.87 1018.72 391.66 1018.52 390.3 1018.75 389.49 1019.45 389.29 1020.97 389.49 1022.12 389.44 1023.56 388.75"/>
              <polyline class="cls-9" points="1026.28 387.71 1026.63 387.33 1027.03 385.36 1027.22 381.28 1028.24 376.63 1028.51 373.93 1028.57 370.35 1029.55 363.28"/>
              <polyline class="cls-47" points="1029.76 361.77 1029.89 360.8 1029.73 358.27 1029.13 356.91 1028.01 357.01 1026.9 357.37 1024.45 358.51"/>
              <polyline class="cls-47" points="1019.93 359.46 1019.84 359.47 1019.02 359.47 1018.33 358.89 1017.67 358.03 1017.01 356.81 1016.38 356.47 1015.86 356.74 1015.3 357.31 1014.64 357.03 1013.82 355.86 1012.74 353.22"/>
              <polyline class="cls-47" points="1008.89 349.48 1008.84 349.46 1007.29 349.65 1006.47 350.15 1005.74 350.97 1005.35 351.57 1004.75 351.72 1004.06 351.29 1003.08 349.5 1002.81 347.43 1002.81 347.38"/>
              <polyline class="cls-12" points="1002.76 345.18 1002.71 343.43 1001.92 340.39 1000.87 337.79 1000.5 337.15"/>
              <line class="cls-47" x1="999.94" y1="336.2" x2="997.4" y2="331.9"/>
            </g>
            <g>
              <polyline class="cls-47" points="1529.46 438.89 1529.32 438.85 1524.5 438.29"/>
              <polyline class="cls-20" points="1521.26 437.91 1517.59 437.49 1516.54 437.57 1511.07 439.19 1504.09 439.59 1503 439.19 1502.24 438.44 1502.01 436.8 1501.88 434.71 1498.62 426.94 1498.23 425.41 1498.18 424.22 1497.96 422.95 1497.26 421.72 1494.32 420.02"/>
              <polyline class="cls-47" points="1492.81 419.59 1487.81 419.66 1484.87 423.71"/>
              <polyline class="cls-43" points="1483.24 425.95 1479.9 430.53 1475.39 432.47 1474.8 433.07 1474.07 433.92 1473.98 434.62 1474 435.36 1474.18 436.15 1475.03 439.12 1475.62 442.2 1475.72 443.71 1475.46 444.71 1475.03 445.01 1474.26 445.2 1462.04 445.47 1455.69 446.52 1451.74 446.41 1447.25 445.25 1441.55 441.79"/>
              <polyline class="cls-47" points="1440.36 441.08 1437.57 439.39 1436.28 438.22 1436.34 437.74 1435.82 437.19 1434.67 436.47 1432.08 435.2"/>
              <polyline class="cls-49" points="1429.64 434.36 1411.24 428.36 1409.53 428.31"/>
              <polyline class="cls-47" points="1408.24 428.27 1403.24 428.13 1403.1 433.13"/>
              <polyline class="cls-4" points="1403.02 436 1403.01 436.32 1403.14 436.92 1403.34 437.54 1403.47 438.47 1403.47 442.72 1403.6 443.95 1404.49 447.29 1404.62 447.94 1404.49 449.97 1404.59 450.79 1404.89 451.76 1406.07 454.59 1406.4 455.9 1406.44 457.07 1406.11 458.47 1405.45 460.22 1404.59 461.19 1403.41 461.9 1399.38 463.25 1395.89 466.42 1391.05 467.32 1389.63 468.01 1389.43 468.45 1389.13 469.53 1388.8 470.04 1388.24 470.51 1387.39 470.99 1386.2 471.41 1384.52 471.71 1382.48 471.48 1380.18 470.73 1376.19 467.76 1374.67 467.13 1372.93 466.95 1369.21 467.12 1363.73 466.13 1350.39 460.85 1344.24 449.67 1343.24 448.16 1342.03 445.7 1341.36 443.72 1341.1 440.48 1340.87 438.9 1340.78 438.68"/>
              <polyline class="cls-47" points="1340.24 437.34 1338.37 432.71 1335.37 434.21 1334.84 434.75 1334.1 435.25"/>
              <polyline class="cls-47" points="1328.43 434.54 1327.79 434.22 1326.87 433.07 1326.31 432.03 1326.21 431.23 1325.95 430.45 1325.58 430.41 1325.12 431.04 1324.89 433.48 1324.63 434.77 1324.27 435.41 1323.71 435.23 1322.85 434.25 1321.34 432.97 1320.55 432.72 1319.52 432.75 1317.54 433.42 1316.78 433.96 1316.52 434.55 1317.21 435.85 1317.47 436.62 1317.54 437.64 1317.33 439.32"/>
              <polyline class="cls-42" points="1316.88 442.3 1316.39 444.12 1315.76 445.5 1315.04 446.22 1314.25 446.62 1313.56 446.82 1310.17 447.17 1307.67 448.19 1306.7 448.36 1303.64 448.34 1302.55 448.52 1301.73 448.87 1301.24 449.44 1300.91 450.06 1300.74 450.76 1300.78 451.43 1300.97 452.08 1301.3 452.58 1302.32 453.41 1302.65 453.78 1302.68 454.02 1302.49 454.33 1301.89 454.58 1299.06 454.89 1296.5 454.61 1294.18 453.42 1290.3 449.89 1287.99 446.16 1287.89 445.35 1287.86 444.71 1288.06 444 1288.49 443.31 1289.71 441.8 1290.03 441.14 1290.46 440.56 1291.75 439.32 1292.04 438.82 1292.11 438.34 1291.75 437.24 1291.65 436.67 1291.35 436.26 1290.76 436.14 1289.44 436.7 1288.26 436.77 1287.2 436.47 1285.76 435.36 1284.27 434.68 1282.22 434.63 1279.13 433.48 1274.78 434.33 1273.53 433.78 1271.66 432.07 1270.62 430.89 1269.97 429.96 1269.57 429.29 1268.98 428.66 1268.19 428.08 1267.14 427.46 1266.48 426.97 1265.69 426.71 1264.67 426.64 1260.78 427.89 1259.78 427.94 1255.7 427.41 1247.63 424.67 1244.7 425.01 1244.11 425.21 1243.28 425.39 1242.46 425.09 1241.6 424.3 1240.39 422.44 1239.96 421.4 1239.73 420.63 1239.7 420.1 1239.1 419.21 1235.58 415.82 1234.62 414.39 1234.15 412.88 1234.22 412 1234.22 411.25 1234.12 410.44 1233.56 408.74 1232.74 408.29 1232 408.2"/>
              <polyline class="cls-47" points="1230.51 408.28 1228.59 408.57 1227.37 409.01 1226.65 409.42 1226.48 409.83 1226.19 410.23 1225.23 410.04 1221.87 407.83"/>
              <polyline class="cls-18" points="1220.58 406.98 1219.27 406.11 1214.98 405.45"/>
              <polyline class="cls-47" points="1214.37 405.01 1210.6 401.72 1205.71 402.78"/>
              <polyline class="cls-47" points="1200.81 402.38 1199.11 401.59 1198.44 400.77 1198.41 399.96 1199.26 399.03 1199.07 398.39 1197.95 397.75 1194.98 397.06"/>
              <polyline class="cls-47" points="1191.36 395.5 1189.59 394.7 1187.22 394.11 1186.61 394.25 1186.38 395.13 1186.55 395.78 1187.07 396.91 1187.14 397.69 1187.04 398.64 1186.95 399.06"/>
              <polyline class="cls-47" points="1186.95 399.09 1186.78 399.91 1186.68 400.72 1186.68 401.3 1186.91 401.65 1187.28 401.99 1188.34 402.74 1188.73 403.12 1188.66 403.48 1188.29 403.74 1187.57 404.04 1184.21 403.47"/>
              <polyline class="cls-50" points="1181 402.92 1174.26 401.79 1170.37 402.04 1169.03 402.44 1168.14 402.87 1167.91 403.31 1167.87 403.79 1168 404.31 1168.6 405.58 1168.7 406 1168.56 406.32 1167.48 407.5 1166.89 408.01 1166.03 408.56 1163.82 409.57 1161.18 409.89 1158.71 409.71 1157.39 409.12 1154.79 404.78 1154.4 403.98 1153.31 403.44 1151.56 403.02 1147.11 402.54 1142.01 399.51 1137.01 395.64"/>
              <polyline class="cls-47" points="1135.78 394.58 1135.29 394.11 1134.83 393.16 1135.32 390.84 1135.15 389.96 1134.07 389.55 1133.08 389.85 1131.4 391.57 1130.81 392.67 1130.55 393.69 1131.63 395.67 1131.7 396.24 1130.94 396.67 1125.93 398.41 1125.33 398.71 1125.24 399.2 1125.3 399.91 1125.66 401.54 1126.03 402.39 1126.42 402.94 1126.78 403.23 1127.01 403.49 1127.11 403.84 1126.72 403.58 1125.93 402.69 1124.02 399.95"/>
              <polyline class="cls-47" points="1120.63 396.56 1117.8 394.61 1116.27 394.26 1116.05 393.86 1115.52 393.39 1114.99 393.18 1114.13 393.61 1111.23 396.42"/>
              <polyline class="cls-57" points="1109 397.37 1108.7 397.2 1108.14 397.25 1107.58 397.6 1106.1 398.86 1096.81 402.99 1094.01 404.85 1092.92 405.93 1091.49 407.96"/>
              <polyline class="cls-47" points="1090.75 409.01 1090.25 409.73 1087.75 412.08 1087.65 412.77 1088.24 413.45 1090.71 413.84 1092.23 414.33"/>
              <polyline class="cls-47" points="1093.49 414.75 1096.58 418.69 1092.38 421.4"/>
              <polyline class="cls-39" points="1090.35 422.71 1090.28 422.75 1089.09 423.97 1087.65 426.12 1085.84 430.64"/>
              <polyline class="cls-47" points="1085.39 431.76 1085.14 432.38 1082.02 435.38"/>
            </g>
            <g>
              <polyline class="cls-47" points="375.89 542.54 376.35 540.9 377.06 540.81 381.15 539.55"/>
              <polyline class="cls-52" points="383.74 538.75 389.91 536.84 393.85 536.67"/>
              <polyline class="cls-47" points="395.21 536.61 399.5 536.42 400.19 536.28 400.32 535.75 400.09 534.96 399.47 533.46 400.75 533.37 403.53 534.14 404.28 534.5"/>
              <polyline class="cls-1" points="406.86 535.74 412.84 538.61 414.93 539.29 416.18 538.99 425 535.16 427.87 533.37 431.69 532.3 434.32 532.17 435.97 531.7 436.89 530.77 437.75 528.71 438.55 527.75 439.47 527.14 441.41 526.28 443.06 525.15 443.49 524.7 443.85 524.13 444.31 522.78 444.64 522.12 445.16 521.45 446.12 520.53 447.4 519.57 447.83 519.41 448.26 519.33 448.59 519.19 448.82 518.89 449.03 518.43 454.18 510.04"/>
              <polyline class="cls-47" points="454.93 508.82 455.02 508.67 456.89 506.28 458.28 505.14 459.3 505.41 459.86 505.84 460.28 506.28 460.71 506.62 462.7 507.21"/>
              <polyline class="cls-51" points="465.28 509.27 465.33 509.33 466.15 510.51 466.94 512.02 467.47 514.31 467.57 517.33 466.35 521.02 465.23 523.23 461.47 528.32 460.78 529.05 460.15 529.31 459.43 529.38 458.74 529.31 458.01 529.43 457.59 529.96 457.02 531.48"/>
              <polyline class="cls-47" points="456.44 533.05 456.1 533.97 455.74 534.55 455.25 535.01 452.88 536.23 452.94 538.25 451.86 540.77 455.4 544.3"/>
              <polyline class="cls-47" points="459.85 548.72 463.39 552.25 461.4 553.57 460.55 554.45 459.72 555.57"/>
              <polyline class="cls-56" points="458.79 557 456.3 560.96 455.46 562.67"/>
              <polyline class="cls-47" points="455.08 563.44 454.49 564.63 455.22 568.23 457.95 569.3 460.01 569.26"/>
              <polyline class="cls-38" points="461.52 569.41 461.78 569.55 462.24 569.94 462.83 570.61 464.38 571.78 465.59 572.99 465.94 573.21"/>
              <polyline class="cls-47" points="466.65 573.48 467.08 573.58 470.86 573.71 471.52 574.11 471.62 574.79 471.12 576.03 470.7 576.66 470.6 577.32 470.99 578.01 471.57 578.49"/>
              <polyline class="cls-41" points="473.75 580.49 475.18 582.76 476.83 584.45 477.78 585.97 481.34 593.12 482.2 594.23 482.85 594.79 484.07 594.86 484.91 595.23 485.59 595.9 486.78 597.29 487.47 598.32 488.07 599.45 488.56 600.09 488.56 601.36 488.07 603.11 486.25 607.29 484.66 610.04 484.53 610.82 484.5 611.48 485.78 615.09 492.25 620.34"/>
              <polyline class="cls-47" points="493.4 621.27 497.28 624.42 494.07 628.26"/>
              <polyline class="cls-30" points="492.64 629.97 491.42 631.43 490.4 633.4 490.2 634.98 490.63 637.88 491.06 638.9 491.59 639.41 492.54 639.61 496.93 641.64 497.39 642.73 497.37 643.52"/>
              <polyline class="cls-47" points="497.29 644.64 496.93 647.64 497.39 648.83 497.87 649.34 498.77 649.06 499.14 649.08 499.4 649.31 499.83 650.08 500.16 650.49 500.16 651.48 499.97 652.41"/>
              <polyline class="cls-47" points="499.37 654.22 498.51 656.45 497.79 657.81 497 658.52 495.87 658.1 493.5 658.85 492.47 659.66"/>
              <polyline class="cls-23" points="489.41 662.04 486.78 664.1 481.14 666.63 480.12 666.65 479.2 666.29 477.59 665.02 476.6 664.56 476.41 664.54"/>
              <polyline class="cls-47" points="474.49 664.33 473.74 664.25 473.14 664.02 472.9 663.69 472.84 663.16 473.08 662.51 474.02 660.78 473.67 659.64 473.43 659.14 473.34 658.62 473.17 658.13 472.75 658.03 472.08 658.25 470.76 659.1 469.91 659.44 469.18 659.95 468.91 660.37"/>
              <polyline class="cls-55" points="468.25 662.84 468.03 663.95 468.13 664.84 468.33 665.43 468.59 665.99 469.64 667.17 470.07 667.75 470.33 668.26 470.4 668.7 470.14 669.26 469.54 669.94 468.19 670.48 467.41 670.69 466.52 671.12 465.63 671.82 464.01 673.36 461.93 674.76 461.05 674.99 458.67 675.09 458.1 674.95"/>
              <polyline class="cls-47" points="456.85 674.65 453.67 673.88 452.91 673.9 452.48 674.18 452.35 674.62 453.57 676.62 453.64 677.34 453.57 678.14 453.35 679.25"/>
              <polyline class="cls-2" points="454.75 682.13 455.25 682.5 456.4 683.68 456.86 683.97 457.32 684.1 460.71 683.81 461.07 683.89 461.45 684.09 461.71 684.37 462.06 684.98 461.97 685.32 461.07 686.22 458.74 687.69 458.19 688.14"/>
              <polyline class="cls-47" points="456.83 689.28 455.51 690.38 454.03 691.02 453.01 691.12 452.45 690.79 451.96 690.97 451.63 691.61 451.59 693.5 451.82 694.73 452 695.32"/>
              <polyline class="cls-48" points="450.88 697.67 449.09 698.68 447.96 699.51 444.05 704.26 443.79 705.98"/>
              <polyline class="cls-47" points="443.58 707.45 442.87 712.29 442.86 712.39"/>
            </g>
            <g>
              <line class="cls-47" x1="474.19" y1="453.07" x2="471.12" y2="457.01"/>
              <polyline class="cls-47" points="466.64 461.76 463.03 465.22 467.69 467.02"/>
              <polyline class="cls-47" points="472.59 466.29 475.71 462.39 476.76 462.54 477.88 463.74 479.22 465.6"/>
              <polyline class="cls-61" points="480.97 467.92 482.46 469.63 482.79 469.86 483.15 470.16 483.58 470.44 484.04 470.64 485.85 471.09 486.52 471.64 487.41 472.68 489.12 475.1 490.24 477.17 490.9 479.2 490.76 481.41 490.44 482.28 489.58 483.16 489.28 483.76 488.99 484.92 488.59 485.76 487.77 487.3 487.41 488.12 487.08 489.26 487.18 490.07 487.57 490.82 488.76 491.87 489.35 492.87 489.97 496.44 490.57 497.34 491.46 498.48 493.5 500.53 495.9 503.98 497.8 508.21"/>
              <polyline class="cls-47" points="498.4 509.54 500.45 514.1 504.23 510.82"/>
              <polyline class="cls-47" points="507.37 508.48 507.69 508.13 508.29 508.02 508.71 508.02 511.75 509.75 518.63 507.63 519.23 506.43 519.88 505.59 519.85 504.95 519.85 504.44 519.92 503.98 519.95 503.53 519.85 502.51 519.95 501.09 520.08 500.49 520.25 500.01 520.61 499.87 521.07 500.01 522.56 501.66 523.09 501.82 524.44 501.82"/>
              <polyline class="cls-45" points="526.96 500.88 527.73 500.15 534.39 497.3 537.91 496.31 540.77 497.73 542.62 500.03 544.92 504.32 545.38 504.86 546.08 505.35 550.03 507.29 553.92 507.9 556.12 507.86"/>
              <polyline class="cls-47" points="557.52 507.83 561.27 507.75 562.49 507.47 562.62 507.03 562.55 506.54 562.45 506.08 562.42 505.64 562.52 505.26 562.75 505.01 563.34 505.2 564.13 505.78 565.78 507.37 566.37 508.31"/>
              <polyline class="cls-59" points="567.2 509.6 567.49 510.06 568.45 511.02 569.24 511.24 570.43 510.79 571.19 510.38 571.95 510.05 572.13 510.07"/>
              <polyline class="cls-47" points="572.89 510.15 573.13 510.18 574.15 510.66 575.5 512.12 575.99 512.85 576.32 513.53 581.21 514.6"/>
              <line class="cls-8" x1="583.24" y1="515.04" x2="591.05" y2="516.75"/>
              <line class="cls-47" x1="592.07" y1="516.97" x2="596.95" y2="518.04"/>
            </g>
            <g>
              <polyline class="cls-47" points="677.24 288.52 681.06 289.77 681.13 292.29 681.19 292.88 681.32 293.55 681.55 294.13 681.85 294.62"/>
              <polyline class="cls-15" points="683.28 297 694.63 315.98 695.16 317.1 695.42 317.92 695.32 318.4 695 319.23 694.96 319.63 695.13 320.23 696.18 322.26 696.41 322.95 696.51 323.5 696.48 323.8 696.81 324.53 699.47 329.41 700.63 331 701.82 332.16 706.92 335.56 707.25 335.65 707.97 335.65 708.5 335.79 709.19 336.28 711.76 338.69 712.66 339.3 713.48 339.64 714.67 339.94 718.65 342.45 719.7 343.43 721.42 345.85 722.04 347.44 722.14 349.8 722.01 351.06 722.08 351.51"/>
              <polyline class="cls-47" points="722.37 352.86 722.44 353.08 724.98 357.11 719.28 363.13 718.49 364.3 718.78 364.94 719.14 365.05 720 365.05 723.04 365.96 723.46 366.26 723.52 366.31"/>
              <polyline class="cls-16" points="725.13 368.66 725.34 369.22 725.61 369.59 725.9 369.88 726.73 370.33 727.09 370.6 727.45 371.02 727.71 371.44 727.78 371.94 727.71 372.52 727.38 373.83 727.32 374.38 727.35 374.87 727.48 375.29 727.52 375.77 727.42 376.29 727.05 377.2 726.86 377.87 726.82 378.53 727.45 382.84 726.99 384.66 725.9 386.84 723.11 390.87 720.66 393.8 718.68 395.4 712.29 397.22 710.97 398.05 709.72 399.25 707.71 402.72 706.49 403.99 705.64 404.73 704.96 405.13"/>
              <polyline class="cls-47" points="703.71 405.87 699.41 408.41 700.6 411.01 702.3 412.31"/>
              <polyline class="cls-5" points="706.03 413.09 706.26 413.13 709.23 414.12 710.05 414.27 711.63 413.92 717.3 410.58 718.75 409.22 718.89 409.01"/>
              <polyline class="cls-47" points="719.63 407.3 719.7 406.98 720.03 406.48 722.8 403.48 723.3 403.48 723.83 403.96 725.15 406.61 725.54 407.21 727.61 407.27 730.42 406.43"/>
              <polyline class="cls-13" points="732.58 405.79 734.46 405.23 743.29 407.51 747.35 407.91 748.54 408.61 749.36 409.22 749.89 409.9"/>
              <polyline class="cls-47" points="750.57 410.8 753.61 414.77 752.55 415.74 752.16 416.36 751.6 416.94 751.17 417.32 750.74 417.58 750.41 417.89 750.25 418.29 750.24 418.36"/>
              <polyline class="cls-54" points="749.13 420.99 749.06 421.09 748.77 421.8 748.83 423.04 750.05 427.96 750.15 429.6 750.09 430.89 749.49 432.82 749.36 433.66 749.36 434.57 749.66 436.05 749.72 436.84 749.66 437.63 749.36 439.67 749.39 441.51 749.85 442.54 750.74 443.75 755.55 448.14 756.11 448.52 756.6 448.72 757.59 449.02 758.15 449.31 758.92 449.82 759.44 450.07 760.33 450.33 760.89 450.86"/>
              <polyline class="cls-47" points="761.93 451.86 763.69 453.56 764.94 454.28 765.57 454.8 765.63 455.09 765.14 455.69 765.01 456.49 765.11 457.56 765.72 459.81"/>
              <polyline class="cls-29" points="767.06 462.36 767.9 463.66 773.83 471.1"/>
              <polyline class="cls-47" points="774.73 472.23 775.16 472.76 775.78 473.77 776.34 476.85"/>
            </g>
            <g>
              <polyline class="cls-47" points="815.61 690.86 815.54 686.93 815.92 685.92"/>
              <polyline class="cls-32" points="817.4 683.7 818.34 682.31 818.98 680.74 819.57 679.87 820.36 679.09 821.41 678.42 822.37 677.62 823.62 676.22 825.17 674.15 825.92 671.97 826.02 669.77 824.74 663.94 824.67 662.23 825.26 659.89 825.69 658.6 826.12 657.67 827.07 656.3 827.31 655.64 827.37 655.03 827.37 654.1"/>
              <polyline class="cls-47" points="827.2 652.81 827.17 652.71 826.91 652.19 824.05 648.96 820.62 652.12 820.35 652.33"/>
              <polyline class="cls-53" points="817.77 653.61 817.39 653.65 816.66 653.64 815.41 653.39 814.82 653.5 814.06 653.8 810.51 654.66 807.54 656.22 806.43 656.61 805 656.81 803.29 657.36 802.5 657.91 801.71 658.28 800.13 658.74 799.44 659.23 798.78 660.09 798.12 661.4 797.86 662.42 797.76 663.05 797.63 663.4 797.43 663.59 797.03 663.64 795.72 663.48 794.75 663.54 792.71 664.18 791.66 664.28 790.6 664.13 788.89 663.64 788.27 663.61 787.12 663.8 786.52 663.77 785.63 663.54 784.61 662.96 780.52 659.69 779.63 659.2 778.45 658.92 777.39 658.82 776.47 658.87 775.78 659.23 775.25 659.82 774.76 660.93 774.33 661.58 773.81 662.02 773.28 662.14 772.72 662.01 772.19 661.58 771.54 660.65 771.14 659.34 770.83 657.72 770.83 655.84 771.16 654.46 772.33 652.8 773.71 651.5 774.6 650.38 775.62 649.87 775.91 649.33 775.88 648.37 775.02 646.29 773.28 643.17 773.12 642.65"/>
              <polyline class="cls-47" points="773.04 641.22 773.05 641.17 773.84 640.46 774.14 639.99 774.14 639.49 772.19 637.42 772.33 636.3 773.12 634.75 774.38 633.04"/>
              <polyline class="cls-14" points="776.4 630.62 778.12 628.9 778.78 627.4 779.2 626.21 780.98 617.17 772.65 598.04 771.34 596.47 765.83 591.82 759.73 582.77 757.23 582.1 756.27 582.48 755.09 583.26 753.08 585.66 750.02 588.71 749.43 589.53 748.67 590.89 747.44 592.22 747.18 592.82 747.09 593.6 746.83 594.38 746.39 595.07 745.47 596.1 745.3 597.09 745.24 598.13 745.04 598.85 744.51 599.73 737.7 601.94 724.39 604.01 721.71 604.93 719.93 606.88 719.33 607.84"/>
              <polyline class="cls-47" points="718.49 609.18 718.12 609.67 716.64 610.92 716.05 611.58 715.36 612.98 714.4 612.88 712.26 609.3 713.32 607.84 715.1 606.02 715.48 605.49"/>
              <polyline class="cls-37" points="716.54 602.69 716.77 602.3 718.19 601.15 718.91 600.32 719.77 598.98 720.33 597.43 720.82 595.48 721.02 593.37 720.76 590.83 719.9 586.66 718.29 583.57 717.14 582.22 716.18 581.88 715.56 581.82 715.1 581.37 714.9 580.33 715.13 578.54 715.13 576.63 714.63 574.82 712.86 571.58 712.2 569.84 712.25 569.17"/>
              <polyline class="cls-47" points="712.4 567.67 712.92 566.78 714.7 564.43 714.96 563.85 714.83 563.49 713.61 563.24 713.25 562.76 713.15 561.88 713.52 559.81 713.53 559.64"/>
              <polyline class="cls-21" points="713.7 557.86 713.75 556.84 713.32 555.38 712.59 554.48 710.81 553.84 709.53 553.84"/>
              <polyline class="cls-47" points="708.64 553.9 703.76 554.98 703.24 554.55 703.5 553.39 704.85 550.88 707.97 547.05 708.44 546.29 708.04 545.26 706.59 544.24 703.5 539.49 705.9 534.31 710.86 533.68"/>
              <line class="cls-33" x1="712.9" y1="533.43" x2="720.71" y2="532.44"/>
              <polyline class="cls-47" points="721.73 532.31 726.69 531.68 726.76 530.97 726.89 530.47 727.61 528.37 727.68 527.82 727.68 527.33 727.65 526.83"/>
              <polyline class="cls-22" points="728.42 524.2 728.67 523.75 729.66 522.34 732.82 518.64 734.83 515.71"/>
              <polyline class="cls-47" points="735.62 514.56 738.45 510.44 743.28 511.74"/>
              <polyline class="cls-47" points="747.81 512.95 750.09 513.57 751.27 513.52 752.69 513.18 752.72 511.89 752.26 509.08 752.62 508.38 752.67 508.33"/>
              <polyline class="cls-34" points="754.56 506.52 756.37 504.95 757.19 503.88 762.24 494.26 763.26 492.92 764.45 492.3 767.57 492.19 768.56 491.87 769.32 491.35 772.26 486.83 774.24 482.65"/>
              <polyline class="cls-47" points="774.8 481.47 775.52 480.41 775.95 479.61 776.21 479 776.34 476.85 780.43 473.97"/>
              <polyline class="cls-47" points="783.58 471.75 785.44 470.44 788.04 469.61 788.4 470.11 788.66 470.76 788.83 471.41 789.12 471.93 789.39 472.31 789.78 472.71 790.28 473.6 790.37 474.04 793.96 474.89 795.27 474.97"/>
              <line class="cls-7" x1="797.48" y1="475.1" x2="805.93" y2="475.59"/>
              <polyline class="cls-47" points="807.03 475.66 812.02 475.95 814.4 471.55"/>
              <polyline class="cls-35" points="815.32 468.99 815.41 468.64 816.1 464.85 816.2 463.27 816.07 462.24 815.77 461.8 812.94 459.22 811.73 456.94 811.53 455.51 811.79 454.52 812.42 453.78 813.24 452.54 813.44 451.17 813.24 449.29 812.09 445.31 812.05 444.22 812.52 443.46 816.04 441.69 817.06 440.62 817.58 439.95"/>
              <polyline class="cls-47" points="818.16 438.71 820.13 434.12 825.12 434.41"/>
              <polyline class="cls-46" points="827.78 434.56 830.21 434.7 860.73 430.29"/>
              <polyline class="cls-47" points="862.05 430.1 865.32 429.63 867.01 429.66 867.31 430.2 867.64 431.35 868 431.73 868.66 432.07 869.15 432.78 869.58 433.96 869.94 436.54 870.04 437.74 869.98 438.52 869.74 438.69 868.99 438.79 868.69 438.94 868.46 439.34 867.97 440.68 868.36 440.89 869.02 440.92 872.87 440.32"/>
              <polyline class="cls-36" points="875.84 439.86 877.68 439.57 878.84 439.19 879.96 438.35 880.39 437.82 880.68 437.29 880.88 436.64 881.18 434.58 881.54 433.37 883.81 430.38 888.29 427.78 895.37 419 931.02 412.9 947.13 414.9 960.77 419.98 962.38 421.23 963.54 422.54 964.33 422.99 966.44 423.54 967.23 423.92 967.86 424.54 968.41 425.26 969.5 426.32 970.32 426.64 971.11 426.63 973.66 425.19 983.37 422.35 985.36 422.4 991.31 424.07 1011.64 424.52 1012.2 424.34 1014.74 424.09 1018.46 422.27 1019.61 422.23 1020.53 422.35 1023.31 424.47 1053.88 428.29 1057.9 427.99 1061.19 425.06 1062.61 425.04 1066.49 427.06 1070.65 428.43 1071.8 429.05 1073.35 430.29 1076.41 432.09"/>
              <polyline class="cls-47" points="1077.71 432.85 1082.02 435.38 1077.24 436.86"/>
              <polyline class="cls-40" points="1075.52 439.4 1067.22 451.91 1066.3 453.78 1066.49 455.36 1066.43 456.35 1066.3 457.15 1066.16 460.26 1066.13 462.79 1066.76 465.97 1066.85 467.65 1065.97 469.05 1064.95 470.33 1063.83 471.39 1063.1 472.29 1062.61 473.12 1062.44 474.56 1062.51 476.47 1063.27 480.28 1064.09 482.24 1065.77 483.87 1068.15 484.37 1068.63 484.66 1079.54 493.71 1080.7 496.08 1085.11 508.98 1086.56 514.89 1086.36 515.47 1086.17 516.05 1086.07 516.72 1086.1 517.45 1086.46 518.05 1087.25 518.79 1089.16 519.79 1090.67 520.25 1092.99 520.58 1093.71 520.82 1095.49 521.8 1097.37 522.54 1097.83 522.89 1097.93 523.41 1097.33 525.6 1096.51 529.77 1096.18 530.79 1095.79 531.53 1095.23 532.32 1094.67 533.36 1094.17 534.53 1093.62 536.34 1092.07 543.93 1091.5 545.24 1090.31 547.05 1089.52 548.64 1088.96 550.19 1088.57 552.23 1088.63 553.54 1088.9 554.67 1089.62 556.16 1089.85 557.03 1089.88 557.95 1089.72 558.76 1089.65 559.58 1090.18 560.6 1090.25 560.67"/>
              <polyline class="cls-47" points="1091.36 561.73 1094.93 563.94 1095.43 564.57 1095.26 565.08 1094.87 565.68 1094.6 566.23 1094.44 566.73 1094.5 567.1 1095.46 567.23 1099.48 566.89"/>
              <polyline class="cls-10" points="1103.25 566.57 1104.42 566.47 1107.75 566.92 1109.49 566.82 1113.18 564.75 1114.73 564.19 1117.06 564.17"/>
              <polyline class="cls-47" points="1118.95 564.16 1119.38 564.15 1122.93 566.78 1123.05 566.87"/>
            </g>
            <g>
              <polyline class="cls-47" points="539.87 786.36 539.92 786.31 541.6 784.52 542.42 782.21 542.43 782.19"/>
              <polyline class="cls-47" points="543.31 777.88 543.93 774.82 544.37 773.74 544.86 773.21 545.36 773.34 546.22 773.84 546.64 773.92 547.1 773.93 547.57 774.02 548.06 774.21 549.28 773.84 549.56 773.68"/>
              <polyline class="cls-3" points="552.16 772 555 769.77 556.55 768.28 557.45 766.99 557.52 760.19 558.27 758.07 559.06 756.56 560.22 755.31 560.84 754.74 561.4 754.54 561.83 754.68 562.65 754.25 564.27 753.06 566.67 749.52 571.71 744.99 575.27 742.7 576.62 741.41 576.88 740.26 576.22 738.78 574.81 736.36 575.2 732.59 575.63 731.53"/>
              <polyline class="cls-47" points="575.97 730.02 576.03 729.35 575.8 728.12 575.53 727.17 573.99 725.76 574.31 720.77"/>
              <polyline class="cls-60" points="574.5 717.72 574.51 717.55 573.03 706.54 574.02 699.64 573.95 697.95 573.43 696.67 572.87 696.26 572.34 696.08 571.62 696.08 571.22 696.03 570.33 695.7 568.84 695.51 568.16 695.26 567.23 694.48 566.9 693.98 566.96 693.17 567.82 690.66 567.42 689.54 566.77 689.15 565.48 689.34 561.99 690.56 560.84 690.66 559.92 690.31 558.47 689.1 557.88 688.31 557.75 687.31 558.14 686.11 559.89 681.71 559.99 679.11 558.83 676.92 553.13 670.6"/>
              <polyline class="cls-47" points="552.1 669.46 549.51 666.58 549.41 665.47 550.23 664.49 553.71 663.15"/>
              <polyline class="cls-58" points="556.6 663.62 557.08 663.85 558.54 664.77 559.13 664.96 559.72 664.93 560.38 664.69 560.97 664.35 561.5 663.85 561.9 663.31 562.42 661.78 562.52 659.95 561.86 658.15 561.86 658.15"/>
              <polyline class="cls-47" points="561.17 656.8 560.05 654.62 559.49 653.16 559.43 652.17 560.91 651.46 561.7 650.99 562.13 650.94 562.72 651.2 563.57 652.25"/>
              <polyline class="cls-28" points="565.25 654.31 565.68 654.84 566.11 655.13 566.67 655.02 569.04 653.06 572.5 651.04 573.39 650.25 574.05 649.09 574.71 646.79 574.74 645.06 574.38 643.78 573.66 642.75 571.55 640.55 570.99 640.09 570.46 639.96 569.9 639.44 569.28 638.51 568.45 635.98 568.25 634.85 568.49 633.87 569.08 633.23 569.71 632.14 569.71 631.25 569.25 630.33"/>
              <polyline class="cls-47" points="569.42 629.04 569.58 628.64 570.46 627.35 571.91 624.72 566.4 619.78 566.11 619.09 565.85 618.13 566.4 617.57 566.83 617.04 567.16 616.2 567.59 613.61"/>
              <polyline class="cls-26" points="568.03 610.97 568.05 610.87 568.16 609.57 568.38 608.31 568.64 607.39 569.61 602.65 573.13 599.08 588.12 571.91 588.52 571.46"/>
              <polyline class="cls-47" points="589.42 570.47 592.76 566.75 589.26 563.18"/>
              <polyline class="cls-24" points="587.7 561.58 583.31 557.11 578.63 553.28 577.84 552.87 577.24 552.78 573.32 550.75"/>
              <polyline class="cls-47" points="572.33 550.24 567.89 547.94 571.18 544.18"/>
              <line class="cls-27" x1="572.56" y1="541.48" x2="576.79" y2="530.54"/>
              <polyline class="cls-47" points="577.34 529.11 578.46 526.22 579.42 524.58 580.05 524.63 580.73 524.93 583.44 526.79 583.77 526.83"/>
              <polyline class="cls-11" points="585.73 526.8 586.54 526.69 592.78 524.15"/>
              <polyline class="cls-47" points="593.7 523.78 596.36 522.69 597.44 521.93 597.9 521.27 597.71 520.59 597.48 520.07 596.95 518.04 601.03 513.54 601.59 513.15 602.45 512.9 603.01 513.27 603.93 513.73 604.39 513.37 604.7 512.57 605.11 510.54 605.18 509.08 605.18 509.05"/>
              <polyline class="cls-6" points="604.88 506.33 604.7 505.25 604.45 504.84 604.26 504.56 603.99 504.28 603.8 504.03 603.6 503.53 603.5 503.38 603.17 503.22 603.01 503.09 602.88 502.84 601.95 500.74 601.72 499.72 601.53 499.25 601.33 498.88 601.13 498.72 600.9 498.15 600.74 497.23 600.77 495.04 600.67 493.68 600.47 492.34 600.01 490.32 599.98 489.26 600.18 488.37 601.23 487.03 602.39 486.1"/>
              <polyline class="cls-47" points="603.66 485.89 607.16 486.18 607.79 486.52 608.42 486.97 608.48 487.67 608.45 488.57 608.65 489.92 609.01 490.39 610.42 490.69"/>
              <polyline class="cls-19" points="613.36 491.33 624.13 493.66 625.87 494.73 630.52 499.56 631.64 501.13 633.98 505.46 635.69 507.84 644.89 513.12 648.57 514.11 650.98 516.47 652.69 519.34 652.8 521.28 651.57 524.3 649.76 527.07 648.05 530.27 647.88 532.36 648.31 533.67 648.84 534.37 649.53 535.1 649.59 536.59 650.15 537.19 651.07 537.47 653.62 537.41 654.44 537.77 655.2 538.45 656.32 539.69 660.47 542.5 661.42 543.54 663.44 547.98 663.79 549.02"/>
              <polyline class="cls-47" points="664.26 550.45 665.84 555.2 671.04 557.1 672.49 557.2 672.62 556.94 673.08 555.77 673.64 554.63 674.1 554.4 674.5 554.63 675.88 556.67 677.31 557.91 677.77 557.75 678.03 557.53 678.1 557.11 678.23 556.8 678.63 556.42 681.08 554.95"/>
              <polyline class="cls-17" points="682.9 553.54 688.54 548.58 698.24 542.69"/>
              <line class="cls-47" x1="699.23" y1="542.09" x2="703.5" y2="539.49"/>
            </g>
          </g>
          <g>
            <g>
              <path class="cls-70" d="M396.6,642.33c0-6.6,5.98-11.95,13.35-11.95s13.35,5.35,13.35,11.95c0,13.36-13.35,25.5-13.35,25.5,0,0-13.35-12.61-13.35-25.5Z"/>
              <circle class="cls-72" cx="409.95" cy="643.57" r="6.06"/>
            </g>
            <text class="cls-62" transform="translate(378.03 622.91)"><tspan x="0" y="0">BRATISLAVA</tspan></text>
          </g>
          <g>
            <g>
              <path class="cls-71" d="M271.07,627.33c0-6.6,5.98-11.95,13.35-11.95s13.35,5.35,13.35,11.95c0,13.36-13.35,25.5-13.35,25.5,0,0-13.35-12.61-13.35-25.5Z"/>
              <circle class="cls-69" cx="284.42" cy="628.57" r="6.06"/>
            </g>
            <text class="cls-66" transform="translate(250.14 607.91)"><tspan x="0" y="0">VIEDE</tspan></text>
          </g>
          <g>
            <g>
              <path class="cls-71" d="M789.6,837.33c0-6.6,5.98-11.95,13.35-11.95s13.35,5.35,13.35,11.95c0,13.36-13.35,25.5-13.35,25.5,0,0-13.35-12.61-13.35-25.5Z"/>
              <circle class="cls-69" cx="802.95" cy="838.57" r="6.06"/>
            </g>
            <text class="cls-66" transform="translate(754.33 817.91)"><tspan x="0" y="0">BUDAPE</tspan></text>
          </g>
          <text class="cls-65" transform="translate(1208.78 140.85)"><tspan x="0" y="0">PL</tspan></text>
          <text class="cls-65" transform="translate(1745.47 478.1)"><tspan x="0" y="0">UA</tspan></text>
          <text class="cls-68" transform="translate(1019.31 793.35)"><tspan x="0" y="0">HU</tspan></text>
          <text class="cls-68" transform="translate(119.26 704.64)"><tspan x="0" y="0">AT</tspan></text>
          <text class="cls-68" transform="translate(234.39 246.55)"><tspan x="0" y="0">CZ</tspan></text>
          <g>
            <g>
              <path class="cls-70" d="M1070.11,381.9c0-4.52,4.1-8.19,9.15-8.19s9.15,3.67,9.15,8.19c0,9.15-9.15,17.47-9.15,17.47,0,0-9.15-8.64-9.15-17.47Z"/>
              <circle class="cls-72" cx="1079.26" cy="382.75" r="4.15"/>
            </g>
            <text class="cls-64" transform="translate(1040.48 366.63)"><tspan x="0" y="0">POPRAD</tspan></text>
          </g>
          <g>
            <g>
              <path class="cls-70" d="M776.43,317.58c0-4.52,4.1-8.19,9.15-8.19s9.15,3.67,9.15,8.19c0,9.15-9.15,17.47-9.15,17.47,0,0-9.15-8.64-9.15-17.47Z"/>
              <circle class="cls-72" cx="785.58" cy="318.43" r="4.15"/>
            </g>
            <text class="cls-63" transform="translate(754 302.31)"><tspan x="0" y="0">ILINA</tspan></text>
          </g>
          <g>
            <g>
              <path class="cls-71" d="M1019.43,93.58c0-4.52,4.1-8.19,9.15-8.19s9.15,3.67,9.15,8.19c0,9.15-9.15,17.47-9.15,17.47,0,0-9.15-8.64-9.15-17.47Z"/>
              <circle class="cls-69" cx="1028.58" cy="94.43" r="4.15"/>
            </g>
            <text class="cls-67" transform="translate(1045.17 105.17)"><tspan x="0" y="0">KRAKOV</tspan></text>
          </g>
          <g>
            <g>
              <path class="cls-70" d="M1287.55,388.54c0-4.52,4.1-8.19,9.15-8.19s9.15,3.67,9.15,8.19c0,9.15-9.15,17.47-9.15,17.47,0,0-9.15-8.64-9.15-17.47Z"/>
              <circle class="cls-72" cx="1296.7" cy="389.39" r="4.15"/>
            </g>
            <text class="cls-64" transform="translate(1259.69 373.31)"><tspan x="0" y="0">PREOV</tspan></text>
          </g>
          <g>
            <g>
              <path class="cls-70" d="M1287.55,492.91c0-4.52,4.1-8.19,9.15-8.19s9.15,3.67,9.15,8.19c0,9.15-9.15,17.47-9.15,17.47,0,0-9.15-8.64-9.15-17.47Z"/>
              <circle class="cls-72" cx="1296.7" cy="493.76" r="4.15"/>
            </g>
            <text class="cls-62" transform="translate(1262.1 477.68)"><tspan x="0" y="0">KOICE</tspan></text>
          </g>
          <g>
            <g>
              <path class="cls-70" d="M490.57,583.78c0-4.52,4.1-8.19,9.15-8.19s9.15,3.67,9.15,8.19c0,9.15-9.15,17.47-9.15,17.47,0,0-9.15-8.64-9.15-17.47Z"/>
              <circle class="cls-72" cx="499.72" cy="584.63" r="4.15"/>
            </g>
            <text class="cls-62" transform="translate(462.83 567.58)"><tspan x="0" y="0">TRNAVA</tspan></text>
          </g>
          <g>
            <g>
              <path class="cls-71" d="M313.57,359.78c0-4.52,4.1-8.19,9.15-8.19s9.15,3.67,9.15,8.19c0,9.15-9.15,17.47-9.15,17.47,0,0-9.15-8.64-9.15-17.47Z"/>
              <circle class="cls-69" cx="322.72" cy="360.63" r="4.15"/>
            </g>
            <text class="cls-66" transform="translate(297.71 343.58)"><tspan x="0" y="0">BRNO</tspan></text>
          </g>
          <g>
            <g>
              <path class="cls-70" d="M601,608.05c0-4.52,4.1-8.19,9.15-8.19s9.15,3.67,9.15,8.19c0,9.15-9.15,17.47-9.15,17.47,0,0-9.15-8.64-9.15-17.47Z"/>
              <circle class="cls-72" cx="610.15" cy="608.9" r="4.15"/>
            </g>
            <text class="cls-62" transform="translate(582.79 591.85)"><tspan x="0" y="0">NITRA</tspan></text>
          </g>
          <g>
            <g>
              <path class="cls-70" d="M465.02,699.94c0-3.35,3.04-6.07,6.78-6.07s6.78,2.72,6.78,6.07c0,6.79-6.78,12.96-6.78,12.96,0,0-6.78-6.41-6.78-12.96Z"/>
              <circle class="cls-72" cx="471.81" cy="700.57" r="3.08"/>
            </g>
            <text class="cls-62" transform="translate(451.37 684.33)"><tspan x="0" y="0">AMORN</tspan></text>
          </g>
          <g>
            <g>
              <path class="cls-70" d="M832.79,512.18c0-4.52,4.1-8.19,9.15-8.19s9.15,3.67,9.15,8.19c0,9.15-9.15,17.47-9.15,17.47,0,0-9.15-8.64-9.15-17.47Z"/>
              <circle class="cls-72" cx="841.94" cy="513.03" r="4.15"/>
            </g>
            <text class="cls-63" transform="translate(805.72 495.98)"><tspan x="0" y="0">ZVOLEN</tspan></text>
          </g>
          <g>
            <g>
              <path class="cls-70" d="M610.71,775.52c0-4.52,4.1-8.19,9.15-8.19s9.15,3.67,9.15,8.19c0,9.15-9.15,17.47-9.15,17.47,0,0-9.15-8.64-9.15-17.47Z"/>
              <circle class="cls-72" cx="619.86" cy="776.37" r="4.15"/>
            </g>
            <text class="cls-63" transform="translate(573.58 759.32)"><tspan x="0" y="0">KOMRNO</tspan></text>
          </g>
        </g>
      </g>
    </g>
  </g>
</svg>