<?xml version="1.0" encoding="UTF-8"?>
<svg id="Layer_2" xmlns="http://www.w3.org/2000/svg" xmlns:xlink="http://www.w3.org/1999/xlink" viewBox="0 0 1920 947">
  <defs>
    <style>
      .cls-1 {
        stroke-dasharray: 9.55 2.87;
      }

      .cls-1, .cls-2, .cls-3, .cls-4, .cls-5, .cls-6, .cls-7, .cls-8, .cls-9, .cls-10, .cls-11, .cls-12, .cls-13, .cls-14, .cls-15, .cls-16, .cls-17, .cls-18, .cls-19, .cls-20, .cls-21, .cls-22, .cls-23, .cls-24, .cls-25, .cls-26, .cls-27, .cls-28, .cls-29, .cls-30, .cls-31, .cls-32, .cls-33, .cls-34, .cls-35, .cls-36, .cls-37, .cls-38, .cls-39, .cls-40, .cls-41, .cls-42, .cls-43, .cls-44, .cls-45, .cls-46, .cls-47, .cls-48, .cls-49, .cls-50, .cls-51, .cls-52, .cls-53, .cls-54, .cls-55, .cls-56, .cls-57, .cls-58, .cls-59, .cls-60, .cls-61, .cls-62 {
        fill: none;
      }

      .cls-1, .cls-2, .cls-3, .cls-4, .cls-5, .cls-6, .cls-7, .cls-8, .cls-9, .cls-10, .cls-11, .cls-12, .cls-13, .cls-14, .cls-15, .cls-16, .cls-17, .cls-18, .cls-19, .cls-20, .cls-22, .cls-23, .cls-24, .cls-25, .cls-26, .cls-27, .cls-28, .cls-29, .cls-30, .cls-31, .cls-32, .cls-33, .cls-34, .cls-35, .cls-36, .cls-37, .cls-38, .cls-39, .cls-40, .cls-41, .cls-43, .cls-44, .cls-45, .cls-46, .cls-47, .cls-48, .cls-49, .cls-50, .cls-51, .cls-52, .cls-53, .cls-54, .cls-55, .cls-56, .cls-57, .cls-58, .cls-59, .cls-60, .cls-61, .cls-62 {
        stroke: #000;
        stroke-width: .75px;
      }

      .cls-63, .cls-64, .cls-65, .cls-66, .cls-67, .cls-68, .cls-69, .cls-70 {
        font-family: Inter-Regular, Inter;
        font-variation-settings: 'wght' 400, 'slnt' 0;
      }

      .cls-63, .cls-64, .cls-66, .cls-67, .cls-68 {
        font-size: 15.66px;
      }

      .cls-63, .cls-64, .cls-67 {
        fill: #fff;
      }

      .cls-63, .cls-66 {
        letter-spacing: .13em;
      }

      .cls-2 {
        stroke-dasharray: 11.88 3.56;
      }

      .cls-3 {
        stroke-dasharray: 10.36 3.11;
      }

      .cls-4 {
        stroke-dasharray: 9.6 2.88;
      }

      .cls-5 {
        stroke-dasharray: 12.73 3.82;
      }

      .cls-6 {
        stroke-dasharray: 9.15 2.74;
      }

      .cls-64, .cls-68 {
        letter-spacing: .13em;
      }

      .cls-7 {
        stroke-dasharray: 7.36 2.21;
      }

      .cls-8 {
        stroke-dasharray: 6.95 2.08;
      }

      .cls-65 {
        fill: #bebebe;
      }

      .cls-65, .cls-69 {
        letter-spacing: .13em;
      }

      .cls-65, .cls-69, .cls-70 {
        font-size: 20px;
      }

      .cls-9 {
        stroke-dasharray: 10.12 3.04;
      }

      .cls-66, .cls-68 {
        fill: #ccc;
      }

      .cls-10 {
        stroke-dasharray: 12.6 3.78;
      }

      .cls-11 {
        stroke-dasharray: 6.58 1.97;
      }

      .cls-67 {
        letter-spacing: .13em;
      }

      .cls-12 {
        stroke-dasharray: 7.33 2.2;
      }

      .cls-13 {
        stroke-dasharray: 7.52 2.26;
      }

      .cls-14 {
        stroke-dasharray: 10.53 3.16;
      }

      .cls-15 {
        stroke-dasharray: 9.24 2.77;
      }

      .cls-16 {
        stroke-dasharray: 9.65 2.9;
      }

      .cls-17 {
        stroke-dasharray: 7.7 2.31;
      }

      .cls-18 {
        stroke-dasharray: 5.14 1.54;
      }

      .cls-19 {
        stroke-dasharray: 10.05 3.02;
      }

      .cls-20 {
        stroke-dasharray: 10.86 3.26;
      }

      .cls-22 {
        stroke-dasharray: 5.98 1.79;
      }

      .cls-23 {
        stroke-dasharray: 9.27 2.78;
      }

      .cls-24 {
        stroke-dasharray: 12.92 3.88;
      }

      .cls-71 {
        fill: #8e8e8e;
      }

      .cls-25 {
        stroke-dasharray: 7.44 2.23;
      }

      .cls-26 {
        stroke-dasharray: 8.93 2.68;
      }

      .cls-27 {
        stroke-dasharray: 10.2 3.06;
      }

      .cls-72 {
        fill: #303f30;
        opacity: .95;
      }

      .cls-28 {
        stroke-dasharray: 8.84 2.65;
      }

      .cls-29 {
        stroke-dasharray: 9.62 2.89;
      }

      .cls-69, .cls-70 {
        fill: #898989;
      }

      .cls-73 {
        fill: #c4c4c4;
      }

      .cls-70 {
        letter-spacing: .13em;
      }

      .cls-30 {
        stroke-dasharray: 7.46 2.24;
      }

      .cls-74 {
        fill: #646843;
      }

      .cls-31 {
        stroke-dasharray: 7.68 2.3;
      }

      .cls-32 {
        stroke-dasharray: 8.9 2.67;
      }

      .cls-33 {
        stroke-dasharray: 6.85 2.05;
      }

      .cls-34 {
        stroke-dasharray: 8.73 2.62;
      }

      .cls-35 {
        stroke-dasharray: 9.16 2.75;
      }

      .cls-36 {
        stroke-dasharray: 10.04 3.01;
      }

      .cls-37 {
        stroke-dasharray: 10.13 3.04;
      }

      .cls-38 {
        stroke-dasharray: 5.1 1.53;
      }

      .cls-39 {
        stroke-dasharray: 8.04 2.41;
      }

      .cls-40 {
        stroke-dasharray: 10.25 3.08;
      }

      .cls-41 {
        stroke-dasharray: 9.86 2.96;
      }

      .cls-42 {
        stroke: #3e3a34;
        stroke-width: .5px;
      }

      .cls-42, .cls-45 {
        stroke-linejoin: round;
      }

      .cls-43 {
        stroke-dasharray: 10.06 3.02;
      }

      .cls-44 {
        stroke-dasharray: 9.26 2.78;
      }

      .cls-45 {
        opacity: .85;
        stroke-linecap: round;
      }

      .cls-46 {
        stroke-dasharray: 9.35 2.81;
      }

      .cls-47 {
        stroke-dasharray: 8.87 2.66;
      }

      .cls-49 {
        stroke-dasharray: 9.87 2.96;
      }

      .cls-50 {
        stroke-dasharray: 8.6 2.58;
      }

      .cls-51 {
        stroke-dasharray: 10.87 3.26;
      }

      .cls-52 {
        stroke-dasharray: 11.19 3.36;
      }

      .cls-53 {
        stroke-dasharray: 9.05 2.71;
      }

      .cls-75 {
        fill: #323823;
      }

      .cls-54 {
        stroke-dasharray: 9.81 2.94;
      }

      .cls-55 {
        stroke-dasharray: 9.63 2.89;
      }

      .cls-56 {
        stroke-dasharray: 8.62 2.59;
      }

      .cls-57 {
        stroke-dasharray: 5.72 1.72;
      }

      .cls-58 {
        stroke-dasharray: 8.59 2.58;
      }

      .cls-59 {
        stroke-dasharray: 10.1 3.03;
      }

      .cls-76 {
        clip-path: url(#clippath);
      }

      .cls-60 {
        stroke-dasharray: 5.11 1.53;
      }

      .cls-61 {
        stroke-dasharray: 10.19 3.06;
      }

      .cls-77 {
        opacity: .62;
      }

      .cls-62 {
        stroke-dasharray: 9.7 2.91;
      }
    </style>
    <clipPath id="clippath">
      <rect class="cls-21" width="1920" height="947"/>
    </clipPath>
  </defs>
  <g id="MainScroll">
    <g id="_x38__x5F_Mapa">
      <g class="cls-76">
        <g>
          <g>
            <rect class="cls-75" x="-130" y="-107.32" width="2305.54" height="1060.64"/>
            <g>
              <g>
                <path class="cls-45" d="M88.8-238.97c2.4,1.99,21.33,21.93,25.1,25.06,5.98-1.78,13.13-3.92,21.06-6.29,7.26,6.89,6.15,17.9,11.61,26.85,8.55,3.6,15.2-10.25,24.83-4.35,2.63,6.19,5.27,12.39,7.9,18.55-2.31,1.76-4.51,3.43-7.45,5.66,2.87,1.68,4.98,2.91,7.46,4.36,2.45-1.77,4.8-3.46,6.18-4.46,3.66-6.16,6.93-11.66,10.11-17.01,7.8,3.59,15.63,4.35,18.13,11.85,9-.74,10.22-7.77,10.89-15.47,4.81,1.73,8.21,2.95,12.95,4.65,1.43-.1,4.54-.31,8.8-.61,7.49,8.27,15.38,16.98,24.02,26.51-4.12,2.48-6.81,4.1-9.74,5.87.27,1.56.59,3.36.66,3.78-1.07,3.46-1.78,5.72-2.48,7.98-.03-.28-.07-.56-.1-.84-2.95,4.56-5.89,9.11-8.84,13.67-.55-.43-1.11-.86-1.66-1.29-2.28-.91-4.56-1.82-7.08-2.83-1.01,2.76-1.96,5.39-3.06,8.39h-6.36c-5.56,5.14-10.26,9.47-14.76,13.63,1.22,3.26,2.17,5.78,3.32,8.86,1.04.13,2.83.35,5.99.73,2.14,3.41,5.12,8.15,8.43,13.43,4.8-6.86,10.8-4.1,16.73-2.07,0,2.85-.68,5.93.18,8.49.97,2.89,3.33,5.32,5.66,8.81,9.23-2.95,12.29,4,16.04,10.61,2.53,4.47,5.42,9.23,9.35,12.32,9.19,7.22,13.02,15.95,10.45,26.61,7.31,12.41,14.77,23.53,30.64,25.16,4.84-4.96,10.34-10.61,15.84-16.25.46.43.92.86,1.38,1.29,3.35-7.22,3.89-16.18,13.12-20.19,1.26.57,3.29,1.47,5.7,2.55,2.02-2.69,4.01-5.34,6.08-8.11h11.46l.78-1.55c1.21-1.62,2.43-3.23,4.04-5.38,1.81,2.96,3.34,5.48,5.11,8.39,2.4-1.56,4.29-2.78,5.86-3.8-2.56-4.13-4.15-6.7-5.65-9.12,1.45-2.41,2.82-4.69,4.07-6.77-2.2-9.63-11.04-10.45-16.79-14.11-2.41-8.45-4.71-16.49-6.61-23.14-4.4-2.73-7.57-4.69-10.6-6.57,2.78-5.59,3.33-11.92,10.85-12.58,4.33,3.07,8.89,6.32,13.33,9.47,2.03-1,3.8-1.87,4.12-2.03,8.73,3.05,16.14,5.65,23.55,8.24.45-.81.9-1.62,1.35-2.44,2.35,3.09,4.71,6.17,6.33,8.3,5.06-.39,8.71-.67,12.63-.98-.35,12.36,10.27,16.23,17.59,22.42,3.86-.98,6.97-1.76,9.65-2.44,9.34,4.72-3.96,15.52,6.25,20.4.8-2.32,1.55-4.49,2.31-6.69,3.56.51,6.69.95,10.03,1.43,1.13,2.58,2.19,5.01,3.43,7.87,12.3-7.31,24.84-10.18,39.92-4.28,4.05-2.78,9.13-6.28,14.26-9.81v-10.15c4.92,3.43,9.04,6.31,13.27,9.26-1.83,4.89-3.48,9.26-5.35,14.24,2.63,2.24,5.42,4.61,8.22,7.01-.49,3.56-.96,6.94-1.31,9.46-3.16.9-5.89,1.25-8.19,2.43-4.54,2.32-8.73,5.35-13.29,7.62-4.35,2.16-8.99,3.73-12.41,5.13,3.83,5.32,7.26,10.31,10.95,15.11,1.2,1.57,2.94,3.45,4.64,3.69,1.61.22,3.49-1.53,4.9-2.24,12.49,6.69,14.28,19.25,17.51,30.31,3.99,1.14,7.14,2.04,10.24,2.92-.9,7.45,4.87,9.6,8.9,12.8,7.87-.71,14.74-2.46,18.09-10.74,5.44,2.48,8.5-1.13,11.31-4.39,2.48,1.53,4.44,2.75,7.53,4.66.35-4.26.6-7.37.83-10.2-3.51-.4-6.11-.69-10.61-1.2,3.15-4.03,5.19-6.64,7.36-9.43,4.86,3.06,8.7,5.47,10.93,6.87,2.17,5.99,3.82,10.52,5.47,15.06l.78,1.55c3.42.82,6.84,1.63,11.19,2.67.37-.59,1.24-1.99,2.15-3.45h7.56c-.6,10.96,6.67,11.4,14.09,11.41.96,3.82,1.87,7.42,3.02,11.97,1.44.8,3.77,2.1,7.04,3.93,2.39-2.81,4.65-5.48,7.03-8.28,3.78.66,8.39,1.47,14.67,2.56,5.68,3.38,13.06,7.78,21.11,12.57,2.06-4.12,3.51-7.02,4.99-9.99,1.49.37,3.33.83,5.48,1.37v15.84c1.68.84,3.76,1.87,6.28,3.13-2.24,3.83-4.46,7.64-7.15,12.26,3.98,8.54,8.19,17.58,12.64,27.14-.19,2.07-.45,4.92-.85,9.23,5.51,1.48,11.06,2.96,17.05,4.57,1.64,2.45,3.68,5.49,5.63,8.39,7.78-3.26,8.87-3.15,16.18.94,3.75,13.34,1.52,27.81,9.48,40.43-.84,2.51-3.75,7.77-4.78,10.88"/>
                <path class="cls-45" d="M373.47,479.99c-4.53-.05-3.87-3.36-3.88-6.22-.02-5.44.24-10.9-.1-16.32-.2-3.21-1.32-6.37-2.35-11.02-8.17,1.63-15.4,3.08-23.69,4.73-3.88-2.59-9.02-6.02-13.83-9.23-3.24.96-6.07,1.79-9.1,2.69-.81-4.77-1.56-9.18-2.55-15.05-5.15-1.04-10.87-2.19-18.73-3.78-1.78-1.65-5.28-4.9-9.06-8.42-1.77,1.62-3.41,3.11-5.12,4.68-3.62-1.21-6.95-2.32-11.31-3.78-3.18,12.46-11.8,20.45-22.96,26.17-.63-1.26-1.15-2.3-1.67-3.34-.26-.26-.74-.75-.75-.74-1.33,1.26-2.62,2.56-3.76,3.69-9.99-1.51-19.81-4.03-29.7-4.29-19.4-.5-36.17-6.67-50.43-20.21.21-.99.53-2.53.64-3.09-3.15-2.23-5.85-4.15-8.55-6.06-5.8-4.04-13.99-4.75-16.52-13.32-3.88.21-8.02.43-12.12.65-1.73,2.27-3.51,4.62-4.68,6.17-14.85,3.8-21.82-7.55-31.01-14.12-9.11,1.19-18.13-3.48-22.8-10.77-1.69-2.65-5.33-6.28-7.58-5.96-11.01,1.58-16.97-6.82-24.93-11.21-.2-.11-.51-.01.39-.01-5.82-.35-10.77,4.55-14.92-1.16-1.59,4.09-3.01,7.77-4.63,11.93-7.9-5.47-13.76,1.22-21.25,2.58v-13.67c-6.38-7.5-17.86.65-21.54-9.81-4.64.47-9.05.91-12.16,1.22-.79,3.14-.63,6.51-2.22,7.96-3.74,3.43-2.58,6.95-2.35,11.06.47,8.26,4.63,16.56-.38,24.99-1.18,1.99.38,5.6.64,8.13-1.89,6.61-3.76,13.14-5.74,20.07,1.71,1.52,3.48,3.1,6.04,5.38-2.49,1.48-4.44,2.64-7.1,4.22-8.78-1.92-18.81-4.12-29.42-6.45v14.86c-7.5,5.62-17.07,9.1-18.79,18.99-1.27,7.29-.25,14.98-.25,23.85-3.04,1.9-6.69,4.19-10.72,6.71-1.5-3-2.54-5.07-4-7.96-5.82,2.16-6.77-4.17-9.99-6.96-2.86,1.91-5.67,3.78-7.9,5.27-10.43.3-16.86-4.8-21.98-14.45-2.43,8.13-4.33,14.49-6.3,21.05-2.83-.73-5.08-1.32-7.83-2.03-.82,2.83-1.42,4.93-2.05,7.11h-3.85c-3.07,0-6.01-.62-8.78-.71-2.56-.09-4.68,2.41-6.82,2.29-2.14-.12-1.8-2.62-3.54-3.31-1.65-.65-5,1.84-7.53,1.11-1.55-.45-2.8-1.35-4.48-1.56"/>
                <path class="cls-45" d="M2158.66,702.27c-4.92,2.59-9.72,5.46-14.81,7.67-3.12,1.35-6.68,1.69-10.92,2.69,1.79,11.78-10.08,17.94-12.61,27.46-3.98,4.96-7.55,9.41-12.36,15.4-3.5,2.31-13.06-1.8-13.67,7.79h-32.25c-3.66-6.29-7.21-12.24-10.6-18.28-1.75-3.12-3.19-6.4-5.23-10.54-7.09-2.41-15.45-5.25-25.6-8.7-1.46-3.03-8.83-6.45-5.13-13.56-3.59-5.6-6.98-10.87-11.1-17.29-4.51,1.65-7.91-3.21-12.14-7.54-9.12,6.14-18.17,5.27-27.09-.34-3.31,1.96-6.4,3.79-9.22,5.46-2.63,10.77-6.64,13.22-14.59,8.72-6.14,2.79-12.58,5.72-19.6,8.91-6.27-6.78-14.48-7.8-23.05-5.63-3.87-3.44-7.81-6.49-11.19-10.07-3.7-3.91-11.91,2.37-12.06-5.38h-12.08c-2.11,11.48-15.58,0-19.52,11.91-7.2-25.89-24.28-22.74-43.26-17.49-1.83-2.6-3.98-5.66-5.15-7.33-9.05-1.02-17.24,2.56-22.38-6.49-2.77,6.16-5.29,11.75-7.92,17.6-11.21-5.22-21.83-10.16-32.59-15.16-.47-2.16-.92-4.25-1.4-6.47-3.27-1.45-6.66-2.95-10.31-4.57,2.62-6.06.65-11.07-3.22-15.13h-16.09c-.94-1.83-1.77-3.43-3.1-6.02-4.31,3.06-8.28,5.88-12.68,9.01-1.88,8.49-3.84,17.33-5.72,25.82-5.62,1.35-11.12,2.67-17.99,4.32-4.28-1.88-10.13-4.45-17.02-7.47,1.58,5.85,2.83,10.46,4.13,15.25-.65.78-1.22,2.1-1.85,2.12-7.86.3-11.38,5.57-14.89,11.68-4.83,8.41-12.82,11.87-23.22,10.81,1.54,4.64,2.73,8.22,4.08,12.29-2.78,4.64-5.97,8.63-12.25,5.67-6.62,3.79-3.46,14.45-12.02,16.3-7.9,1.71-15.92,2.85-23.11,4.11-5.82-4.65-10.6-8.47-15.52-12.4-2.4.67-4.46,1.25-6.68,1.87-1.37,6.73-2.7,13.26-4.15,20.39-7.63-2.41-14.82-4.68-22.55-7.13-.57,2.24-1.11,4.39-1.65,6.5-3.51,1-6.9,1.97-10.23,2.93-1,4.02-1.98,7.92-3.12,12.5-6.5-.44-7.07,4.75-8.61,9.36-2.46,7.39-5.23,14.68-7.87,22-3.49-.44-6.33-.79-9.68-1.21-2.2,3.61-4.45,7.29-6.79,11.14-4.61-.11-8.5,1.17-9.03,6.94l1.55,1.55c-2.58-2.15-4.31-2.52-5.53,1.53-1.72,5.72-4.05,11.26-6.1,16.84,8.62,10.39,7.58,20.49.48,31-10.02-2.45-16.99,1.92-20.61,11.29-2.78,7.21-9.06,13.7-5.38,22.4-2.98,5.03-5.89,9.93-8.78,14.81.93,2.61,1.84,5.15,2.95,8.27-10.74,6.11-12.23,17.02-15.06,28.05-3.84.78-8.28,1.68-13.16,2.68-3.3,7.58-6.91,15.41-16.92,18.75,3.09,4.14,5.88,7.87,8.31,11.12-1.36,4.5-2.65,8.8-3.95,13.11.69.52,1.38,1.05,2.07,1.57-4.97,3.04-9.94,6.07-16.15,9.86.18,4.06,2.7,11.28.14,15.09-3.46,5.15-10.82,7.67-17.41,11.9,1.46,8.17-1.76,15.54-7.46,21.66,3.57,3.72,7.12,7.43,10.96,11.43-3.25,4.88-5.96,8.95-8.01,12.02-5.13-.64-9.53-1.19-13.93-1.73-.38.54-.75,1.08-1.13,1.62,1.37,2.4,2.96,4.71,4,7.25.41,1.02-3.74,10.83-4,12.13"/>
                <path class="cls-42" d="M1638.72,690.61c-4.01-3.53-8.02-7.06-11.59-10.2,2.74-5.49,5.68-11.4,8.67-17.39-3.13-4.31-5.71-7.85-8.28-11.4-.92.62-1.85,1.24-2.77,1.85,3.35-8.45-2.42-11.51-7.16-14.71-1.21-.82-4.21,1.01-7.55,1.95-1.97.22-5.79-.35-8.54,1.1-12.13,6.44-12.02,6.65-25.81,2.7-.68-4.27-1.43-8.89-2.53-15.75-2.12-2.43-7.53-6.28-4.16-13.77-2.78-1.42-5.46-2.79-7.88-4.03-4.05-13.71-19.67-18-31.73-8.55-3.98-7.14-11.15-12.57-9.71-22.19.17-1.15-1.69-2.48-2.15-3.88-1.13-3.45-1.99-6.99-3.34-11.86-1.79-.41-5.44-1.26-9.41-2.18-1.67-2.44-3.45-5.05-5.32-7.78,1.43-2.26,2.85-4.51,3.85-6.1-3.36-1.86-6.51-3.6-11-6.09-2.82,1.69-7.34,3.93-11.3,6.91-4.1,3.09-7.65,6.89-11.59,10.51-2.53-1.89-3.86-2.88-5.8-4.34-.57.12-2.12.44-4.25.89-1.85-.96-4.13-2.14-6.42-3.32.12.48.25.95.37,1.43-10.56,2.91-21.11,5.83-33.04,9.12-.76-.35-2.97-1.39-6.23-2.92-.39,3.48-.69,6.09-1.11,9.84-6.96-1.11-14.17-2.26-22.07-3.53-1.57-3.03-3.33-6.42-5.42-10.45-2.15-.93-5.02-2.17-6.93-2.99-4.22-13.41-8.24-26.15-12.01-38.13h-15.05c-2.37-4.67-4.03-10.24-7.53-14.18-3.61-4.07-9.01-6.55-13.98-9.96-1.58,2.36-3.01,4.51-4.97,7.43h-20.17c-1.65,4.28-3.09,8.05-4.72,12.28-5.07-1.69-9.73-3.24-14.66-4.89-4.44,2.07-9.39,4.38-14.34,6.68-.36-.61-.73-1.22-1.09-1.83-1.66,2.93-3.33,5.87-5.85,10.31-2.61-1.31-6.01-1.96-7.68-4.02-7.23-8.91-13.6-11.19-24.23-7.65-1.55.52-3.03,1.23-4.8,1.96-2.81-4.49-5.48-8.76-8-12.79-3.73.95-7.08,1.8-11.62,2.96-1.77-2.54-3.59-5.13-5.4-7.73.29-.68.58-1.36.88-2.03-9.01,1.47-17.97,3.46-27.04,4.27-9.16.82-17.26,3.42-25.03,8.43-2.58,1.66-7.13.26-11.36.26-.44.74-1.37,2.35-2.43,4.15-1.9-.63-3.7-1.22-5.87-1.94v12.92c-6.46,8.56-12.58,16.65-18.14,24.01-1.14,4.58-2.12,8.47-3.34,13.37.11.54,1.34,2.73.75,4.16-4.5,10.92-20.44,30.43-26.58,32.81-2.44-1.74-5.01-3.57-7.77-5.53-3.42,2.73-7.03,5.6-10.52,8.39-4.19-.24-8.33-.47-12.89-.73-.39,3.93-.7,7.07-1,10.05-3.81,2.73-7.42,5.33-11.06,7.91-3.27,2.32.22,9.13-9.15,8.46-7.99-2.36-11.48-.99-18.15,7.79-2.31,3.04-5.8,5.18-8.78,7.76-.59-5.47-1.01-9.37-1.58-14.7-8.56.67-15.82,1.24-24.33,1.91.45-2.13,1.08-5.16,1.78-8.52-8.6-9.77-11.03-10.43-16.73-4.25-7.55.25-8.13-5.96-9.94-11.19-2.66-1.2-5.29-2.38-7.65-3.44-8.21,6.24-16.39,12.27-24.3,18.62-1.36,1.09-2.41,3.58-2.29,5.33.73,10.07-4.7,17.99-8.79,26.73-1.51-1.26-2.95-2.46-4.39-3.66-.01.66-.03,1.31-.04,1.97-8.33.72-16.67,2.15-24.98,1.98-8.63-.18-14.55,3.03-19,10.55-6.96-1.87-14.18-3.81-19.48-5.23-5.73.57-9.61.95-13.48,1.33l-.4-1.4c-1.95,1.47-3.91,2.94-5.79,4.36-3-1.91-5.85-3.72-8.69-5.53l-1.55,1.55c-2.64,2.42-4.67,4.34-9.33,4.29-9.36-.11-18.74,2.07-28.03,3.29-1.15,6.11-2.12,11.31-3.19,16.98-4.05,1.8-8.39,3.73-13.22,5.88,1.88,2.25,3.07,3.69,4.39,5.28-4.02,8.92-5.11,17.96-1.85,27.65,3.2,1.6,6.62,3.31,8.36,4.18,3.89,4.81,6.69,8.28,9.69,11.99-8,.63-15.82,1.25-23.88,1.88-2.52,10.73-11.06,13.71-19.08,16.43-8.67-.41-17.2-.05-25.66.95-5.16.61-10.17,3.38-14.96-1.47-.76-.77-3.98.78-6.03,1.39-15.51,4.61-30.26,10.71-47.57,5.13-12.38-3.99-26.09-5.65-39.5-2.1-1.69.45-4.07.76-5.34-.07-4.11-2.7-7.95-1.64-11.72.17-7.73,3.71-15.96,2.81-24.11,3.13-12.98.52-23.95-3.31-32.69-13.24-3.99-4.53-8.51-8.6-12.68-12.78-3.33.81-6.14,1.49-9.55,2.32-4.06-11.96-11.2-20.53-24.22-21.63-3.7-16.21-16.03-25.21-25.75-35.57h-12.58c-2.13-2.48-4.64-5.41-6.97-8.13-12.98-.48-21.69,7.55-31.08,16.71,1.55.82,3.07,1.64,4.43,2.36-1.46,3.32-2.59,5.87-3.69,8.35,3.81,4.65,3.47,6.78-2.7,18.96-5.12,1.7-9.79,3.24-15.25,5.05,4.74,5.69,8.99,10.78,13.13,15.76-1.56,1.86-3.22,3.84-5.08,6.08,2.34,8.61,4.6,16.92,7.11,26.17-14.03,2.14-28.77,4.38-42.91,6.53-1.7-3.99-2.74-6.43-4.04-9.49-2.94,4.42-5.21,7.83-7.4,11.12q-16.24,0-22.22-16.87c-4.38-.74-9.04-1.54-14.5-2.46-1.08-1.42-2.74-3.62-4.31-5.68-6.15.79-11.86,1.52-17.4,2.22-3.43,4.62.87,11.85-5.58,15-4.92,2.4-9.92,4.64-14.88,6.95-.27-.53-.54-1.05-.81-1.58-1.51,2.61-3.02,5.23-4.6,7.95,6.19,2.14,10.82,9.4,18.82,5.28,6.48,5.62,13.03,11.19,22.35,5.68,3.73,2.87,7.1,5.46,10.44,8.03-.62,4-1.18,7.62-1.76,11.33,3.46,2.88,6.98,5.81,10.39,8.65-1.76,3.49-3.22,6.39-4.52,8.97-2.56.55-4.64,1-7.05,1.52,1.02,3.6,1.96,6.92,2.9,10.24-2.22,12.01-17.5,10.73-21.26,21.26-3.56-.28-7.19-.57-11.49-.91-1.22,1.11-2.85,2.61-4.49,4.1.07-.66.13-1.33.2-1.99-3.39-.92-6.78-1.84-10.76-2.92q1.74,13.38-2.14,19.38c9.32,6.37,12.44,19.2,6.82,29.07-2.13.34-4.48.72-5.06.82-1.82,6.98-3.43,13.12-5.27,20.18,1.78.43,4.16,1.01,6.86,1.66,1.58,3.45,4.3,7.34-.16,12.16,4.63-.33,9.26-.66,14.07-1.01.65,2.56,1.12,4.4,1.14,4.47-2.74,3.42-4.69,5.86-7.27,9.07-.92.46-3,1.5-4.81,2.41-.98,8.02,5.78,9.41,10,12.87-3.63,1.81-7.25,3.63-10.88,5.44l.78,2.33c3.01,2.43,6.03,4.86,8.14,6.56-3.73,7.05-7.1,3.46-9.77,2.29-8.13,5.08-14.58-2.79-21.77-1.77-4.99,5.41-6.72,5.32-13.9-.87l-.78,2.33c-1.1,3.86-2.2,7.73-3.27,11.47-5.11,3.38-10.17,6.73-15.95,10.55-9.07,15.67-22.51,27.26-42.31,31-.73,8.63-1.59,17.43-2.17,26.25-.4,6.1,3.89,9.06,8.98,11.69.62,4.84,1.24,9.74,1.82,14.33-10.9-5.45-21.35-10.72-31.84-15.9-4.35-2.15-8.5-1.77-13.26-.2-11.54,3.79-23.23,8.47-35.6,2.66-2.1,2.8-3.88,5.16-5.65,7.52-.11-.47-.23-.94-.34-1.41-5.55,1.54-11.18,2.85-16.56,4.83-1.04.39-1.11,3.42-1.63,5.23"/>
                <path class="cls-45" d="M421,675.57c-4.97,3.09-9.5,7.39-14.19,11.97,1.55.82,3.07,1.64,4.43,2.36-1.46,3.32-2.59,5.87-3.69,8.35,3.81,4.65,3.47,6.78-2.7,18.96-5.12,1.7-9.79,3.24-15.25,5.05,4.74,5.69,8.99,10.78,13.13,15.76-1.56,1.86-3.22,3.84-5.08,6.08,2.34,8.61,4.6,16.92,7.11,26.17-14.03,2.14-28.77,4.38-42.91,6.53-1.7-3.99-2.74-6.43-4.04-9.49-2.94,4.42-5.21,7.83-7.4,11.12q-16.24,0-22.22-16.87c-4.38-.74-9.04-1.54-14.5-2.46-1.08-1.42-2.74-3.62-4.31-5.68-6.15.79-11.86,1.52-17.4,2.22-3.43,4.62.87,11.85-5.58,15-4.92,2.4-9.92,4.64-14.88,6.95-.27-.53-.54-1.05-.81-1.58-1.51,2.61-3.02,5.23-4.6,7.95,6.19,2.14,10.82,9.4,18.82,5.28,6.48,5.62,13.03,11.19,22.35,5.68,3.73,2.87,7.1,5.46,10.44,8.03-.62,4-1.18,7.62-1.76,11.33,3.46,2.88,6.98,5.81,10.39,8.65-1.76,3.49-3.22,6.39-4.52,8.97-2.56.55-4.64,1-7.05,1.52,1.02,3.6,1.96,6.92,2.9,10.24-2.22,12.01-17.5,10.73-21.26,21.26-3.56-.28-7.19-.57-11.49-.91-1.22,1.11-2.85,2.61-4.49,4.1.07-.66.13-1.33.2-1.99-3.39-.92-6.78-1.84-10.76-2.92q1.74,13.38-2.14,19.38c9.32,6.37,12.44,19.2,6.82,29.07-2.13.34-4.48.72-5.06.82-1.82,6.98-3.43,13.12-5.27,20.18,1.78.43,4.16,1.01,6.86,1.66,1.58,3.45,4.3,7.34-.16,12.16,4.63-.33,9.26-.66,14.07-1.01.65,2.56,1.12,4.4,1.14,4.47-2.74,3.42-4.69,5.86-7.27,9.07-.92.46-3,1.5-4.81,2.41-.98,8.02,5.78,9.41,10,12.87-3.63,1.81-7.25,3.63-10.88,5.44l.78,2.33c3.01,2.43,6.03,4.86,8.14,6.56-3.73,7.05-7.1,3.46-9.77,2.29-8.13,5.08-14.58-2.79-21.77-1.77-4.99,5.41-6.72,5.32-13.9-.87l-.78,2.33c-1.1,3.86-2.2,7.73-3.27,11.47-5.11,3.38-10.17,6.73-15.95,10.55-9.07,15.67-22.51,27.26-42.31,31-.73,8.63-1.59,17.43-2.17,26.25-.4,6.1,3.89,9.06,8.98,11.69.62,4.84,1.24,9.74,1.82,14.33-10.9-5.45-21.35-10.72-31.84-15.9-4.35-2.15-8.5-1.77-13.26-.2-11.54,3.79-23.23,8.47-35.6,2.66-2.1,2.8-3.88,5.16-5.65,7.52-.11-.47-.23-.94-.34-1.41-5.55,1.54-11.18,2.85-16.56,4.83-1.04.39-3.06,12.18-3.58,13.99"/>
                <path class="cls-45" d="M1638.72,690.61c-4.01-3.53-8.02-7.06-11.59-10.2,2.74-5.49,5.68-11.4,8.67-17.39-3.13-4.31-5.71-7.85-8.28-11.4-.92.62-1.85,1.24-2.77,1.85,3.35-8.45-2.42-11.51-7.16-14.71-1.21-.82-4.21,1.01-7.55,1.95-1.97.22-5.79-.35-8.54,1.1-12.13,6.44-12.02,6.65-25.81,2.7-.68-4.27-1.43-8.89-2.53-15.75-2.12-2.43-7.53-6.28-4.16-13.77-2.78-1.42-5.46-2.79-7.88-4.03-4.05-13.71-19.67-18-31.73-8.55-3.98-7.14-11.15-12.57-9.71-22.19.17-1.15-1.69-2.48-2.15-3.88-1.13-3.45-1.99-6.99-3.34-11.86-1.79-.41-5.44-1.26-9.41-2.18-1.67-2.44-3.45-5.05-5.32-7.78,1.43-2.26,2.85-4.51,3.85-6.1-3.36-1.86-6.51-3.6-11-6.09-2.82,1.69-6.17,3.09-10.13,6.07"/>
                <path class="cls-45" d="M1879.34-242.3c-.34,3.36-2.71,27.99-3.05,31.33,3.94.73,7.62,1.42,11.31,2.1-.65.49-1.29.97-1.94,1.46,2.13,9.31,4.26,18.62,7.1,31.09-1.94,22.16-3.32,48.26-22.65,70.05-8.83.53-19.55.58-30.07,2.01-8.16,1.11-16.38,3.25-23.97,6.38-2.96,1.22-4.77,6.19-6.25,9.8-2.07,5.07-4.17,9.15-10.12,11.14-3.42,1.15-6.59,4.95-8.49,8.33-4.37,7.76-10.94,12.69-17.83,18.04-13.88,10.79-27.03,22.64-39.7,34.85-9.48,9.14-20.49,18.27-25.85,29.72-6.52,13.94-16.83,24.5-24.92,36.89-6.36,9.74-13.74,18.83-20.94,27.99-1.8,2.29-4.66,3.74-8.16,6.45.65,6.41-3.21,11.93-9.41,17.18-4.95,4.19-8.01,10.61-11.86,16.08-1.62,2.29-2.59,5.5-4.76,6.85-15.27,9.57-19.26,26.95-28.66,40.56-4.48,6.5-8.81,13.1-13.2,19.66-.61-.3-1.23-.61-1.85-.91.91,2.28,1.82,4.56,2.8,6.99,2.91,1.45,6.02,3.01,9.14,4.56,3.63,17.88,8.12,35.63,10.55,53.67,1.48,10.99,1.87,22.8-6.17,33.2,1.83,1.31,3.77,2.69,6.08,4.34-2.55,4.35-5.13,8.77-7.72,13.19.55.45,1.1.9,1.64,1.35,1.96-1.35,3.91-2.71,5.87-4.06.4.34.81.68,1.21,1.02-.44,2.05-.88,4.09-1.35,6.29,3.09.39,6.21.78,9.34,1.17,1.05,13.07,13.08,14.58,21.45,20.76-11.18,8.52-2.59,16.82,1.24,25.89-3.6,1.3-6.55,2.37-7.82,2.83-6.71-5.54-12.64-10.43-18.57-15.32-.11.41-.22.82-.33,1.23-3.87-.4-7.74-.81-13.13-1.37-1.05.52-3.54,1.76-7.04,3.5-5.18-5.68-10.37-11.36-15.61-17.1-2.24.34-5.69.86-7.63,1.14"/>
              </g>
              <path class="cls-74" d="M420.1,675.07c-2.95-2.53-5.9-5.06-8.95-7.67-2.26,1.34-3.94,2.34-4.3,2.55-2.22-1.19-3.74-2-4.11-2.19,1.12-8.14,2.09-15.18,3.03-22.01-2.64-4.38-5.27-8.75-8.09-13.43-6.05-.06-6.6.36-12.43-7.09-7.38-9.43-11.25-20.24-7.35-32.33-3.17-1.16-5.8-2.11-7.68-2.8-1.99-3.98-3.65-7.3-5.31-10.61.85-1.78,1.71-3.56,2.58-5.39-5.54-1.24-6.8-7.95-12.61-9.02-1.06-.19-2.68-7.12-1.36-8.69,6-7.14,4.53-14.39,1.65-22.37,6.41-8.23,12.84-16.5,19.27-24.76.57.34,1.13.68,1.7,1.02-.38-4.65-.57-9.33-1.17-13.96-.91-6.97-2.11-13.54,2.16-20.35,3.65-5.81,4.89-13.08,8.1-19.24,5.92-11.35,9.03-24.32,19.93-32.91,3.23-2.55,4.44-7.67,6.31-11.13,6.44-5.2,12.76-10.3,19.58-15.79,4.67,2.09,9.87,5.59,15.52,6.67,7.71,1.47,10.98,7.85,16.47,11.63,2.46,1.69,7.62,1.43,10.54,0,3.58-1.76,6.11-5.68,9.26-8.84,6.1,3.63,11.79,7.02,18.09,10.77,3.43-.38,5.05-8.48,10.87-3.37,3.61-6.91,9.77-9.19,16.33-9.78,6.29-.56,11.01-3.14,14.74-7.93,3.63-4.66,7.18-9.38,11-14.37h19.71c3.8-10.91,7.52-21.59,11.1-31.86,8.22-.74,16.23-1.46,24.24-2.18.45.52.9,1.05,1.35,1.57,1.11-1.74,2.2-3.5,3.34-5.22,5.33-8.03,12.36-15.33,9.45-26.46-.85-3.25-.62-6.79,2.85-9.46,1.33-1.02,1.21-3.96,1.67-6.05.57-2.58,1.05-5.18,1.57-7.77,1.06-5.31,2.12-10.63,3.18-15.94-.44-.05-.88-.11-1.32-.16,3.04-4.52,6.08-9.04,8.82-13.11,11.09-3.95,22.62-7.36,33.55-12.14,11.91-5.21,14.57-11.4,12.35-24.85,3.06.24,5.89.46,9.77.76,5.84-7.43,12.18-15.5,19.08-24.28-.4-1.5-1.07-4.04-2.07-7.84,4.4-2.24,8.84-4.51,13.29-6.78,5.33,10.86,11.84,2.41,18.76,2.52,8.09,7.26,16.6,5.84,25.41-1.35,2.56-2.09,7.06-1.99,10.72-2.47,4.11-.53,8.3-.44,12.42-.87,7.86-.82,12.85,4.4,11.64,12.46-.46,3.12-1.11,6.2-1.71,9.46,2.02,2.41,4.05,4.84,6.05,7.22-1.77,2.74-3.21,4.98-4.45,6.89,1.21,2.06,2.15,3.67,2.44,4.17,9.61,5.21,14.31-2.05,19.66-6.3,9.29,5.55,21.76,5.55,26.98.33-.78-1.55-1.55-3.11-2.61-5.21,2.55-2.37,5.23-4.87,8.16-7.6,3.75-7.51-2.4-18.53,5.63-23.29,9.71-1.73,17.27-3.08,25.34-4.52v-10.23c7.47,2.1,7.16-3.9,8.79-7.26,2.64-.57,4.72-1.02,5.11-1.1,2.11-2.8,3.33-4.42,5.48-7.27.44,3.52.14,6.13.9,6.49,11.34,5.35,13.96,15.24,15.8,26.53,1.1,6.75,5.48,12.96,9.06,20.9,3.1.55,7.25,1.28,12.22,2.16-.37,2.96-.89,7.07-1.43,11.42,5.96,2.4,11.98,4.82,18.66,7.51,3.91-3.24,7.42-9.84,15.45-5.41.67,11.87,1.34,23.74,2.01,35.62-1.4.81-2.8,1.62-4.2,2.43,2.67,1.28,5.33,2.57,8.35,4.02-3.45,1.72-5.53,2.75-7.12,3.54-2.17,6.24-4.22,12.12-6.21,17.85,3.73,3.34,7.33,5.51,11.59,2.37,9.58,6,16.44,2.71,20.1-10.17,5.2.33,10.63.68,16.54,1.05,3.43,10.08,12.46,12.51,21.13,17.11.98-15.86,3.44-30.71,11.88-42.58,1.1.45,2.38.98,4.38,1.8.87-2.18,1.48-5.65,3.41-8.05,2.38-2.96,5.86-5.04,8.27-7,7.35.88,13.8,1.65,19.83,2.37,1.01-7.22,1.88-13.47,2.45-17.54,4.7-1.17,7.98-1.99,11.27-2.82v3.11c4.03,4.99,6.1-1.49,9.3-1.81,1.4-.14,2.52-3.07,4.74-6.04,8.69,4.4,18.3,9.26,29.3,14.82,2.5-4,5.06-8.09,7.86-12.57,2.06,1.19,4.56,2.64,7.14,4.13,3.02-2.17,6.07-4.35,9.81-7.02,4.09,2.16,8.3,4.38,12.68,6.69v9.98c2.23-.56,3.44-.87,2.8-.7,4.85,4.84,8.99,8.99,12.8,12.79,3.49-1.79,5.44-2.79,8.14-4.18,1.1,3.27,1.89,5.64,2.69,8.02.33-.35.66-.7.98-1.04,3.52,3.25,7.04,6.49,10.49,9.67,3.62-1.45,7.06-2.83,10.5-4.21-.5-.52-1.01-1.04-1.51-1.55,4.55-5.83,9.09-11.66,13.61-17.45,5.54,3.7,8.68,1.92,11.11-2.36-3.6-4.5-7.09-8.86-10.55-13.18,6.41-1.87,11.54-3.35,16.65-4.88.07-.02-.09-.59.04-.72.13-.13.49-.03.58-.03,5.32,4.12,8.6,11.66,17.98,9.62.08-9.56,8.85-11.93,13.63-16.94,4.73.86,9.13,1.66,13.45,2.45,3.62,1.87,7.33,3.77,11.03,5.68.27-.53.55-1.06.82-1.59,10.18,10.18,13.77,10.61,19.43,2.33,2.07,1.04,4.15,2.07,6.2,3.09,4.98-11.49,18.09-.02,23.82-9.9,2.73,4.25,4.74,7.39,6.82,10.63,3.85.48,8,1,12.04,1.51,4.66,5.4,9.22,10.69,13.23,15.33,3.57-2.83,7.63-6.05,10.73-8.5,6.52,4.97,11.72,8.93,18.22,13.88h10.99c-.27,11.29,8.22,17.18,14.73,23.89-.31,6.04-.6,11.48-.88,16.88,12.29,3.68,24.3,6.48,32.77,15.83,2.62-1.3,4.69-2.34,6.54-3.26,4.5,2.37,4.03,5.64,1.38,8.99,11.22,6.44,18.7,7.23,29.87,3.35,5.73,5.15,6.3,17.53,18.58,13.09,7.95,6.6,13.38,6.6,23.44,5.15-1.29,8.03-6.06,17.45-4.4,26.77-17.78,1.22-19.31,16.5-23.57,29.59-2.04,6.27-2.56,13.47-10.88,16.09-.32,10.96,6.03,23.56-6.98,30.69-.19,6.6,3.82,11.62,1.32,18.69-2.4,6.82-6.05,10.79-11.37,14.67-4.26,3.11-7.7,7.32-11.78,10.73-3.74,3.13-7.85,5.83-13.66,10.08-5.79,10.32-5.32,24.52-7.13,38.17-.87,6.62-.27,13.46-.05,20.18.04,1.32,1.91,3.39,2.68,4.69l.05-.04c-.41.29-.82.58-1.22.88-4.1,3.09-7.65,6.89-11.59,10.51-2.53-1.89-3.86-2.88-5.8-4.34-.57.12-2.12.44-4.25.89-1.85-.96-4.13-2.14-6.42-3.32.12.48.25.95.37,1.43-10.56,2.91-21.11,5.83-33.04,9.12-.76-.35-2.97-1.39-6.23-2.92-.39,3.48-.69,6.09-1.11,9.84-6.96-1.11-14.17-2.26-22.07-3.53-1.57-3.03-3.33-6.42-5.42-10.45-2.15-.93-5.02-2.17-6.93-2.99-4.22-13.41-8.24-26.15-12.01-38.13h-15.05c-2.37-4.67-4.03-10.24-7.53-14.18-3.61-4.07-9.01-6.55-13.98-9.96-1.58,2.36-3.01,4.51-4.97,7.43h-20.17c-1.65,4.28-3.09,8.05-4.72,12.28-5.07-1.69-9.73-3.24-14.66-4.89-4.44,2.07-9.39,4.38-14.34,6.68-.36-.61-.73-1.22-1.09-1.83-1.66,2.93-3.33,5.87-5.85,10.31-2.61-1.31-6.01-1.96-7.68-4.02-7.23-8.91-13.6-11.19-24.23-7.65-1.55.52-3.03,1.23-4.8,1.96-2.81-4.49-5.48-8.76-8-12.79-3.73.95-7.08,1.8-11.62,2.96-1.77-2.54-3.59-5.13-5.4-7.73.29-.68.58-1.36.88-2.03-9.01,1.47-17.97,3.46-27.04,4.27-9.16.82-17.26,3.42-25.03,8.43-2.58,1.66-7.13.26-11.36.26-.44.74-1.37,2.35-2.43,4.15-1.9-.63-3.7-1.22-5.87-1.94v12.92c-6.46,8.56-12.58,16.65-18.14,24.01-1.14,4.58-2.12,8.47-3.34,13.37.11.54,1.34,2.73.75,4.16-4.5,10.92-20.44,30.43-26.58,32.81-2.44-1.74-5.01-3.57-7.77-5.53-3.42,2.73-7.03,5.6-10.52,8.39-4.19-.24-8.33-.47-12.89-.73-.39,3.93-.7,7.07-1,10.05-3.81,2.73-7.42,5.33-11.06,7.91-3.27,2.32.22,9.13-9.15,8.46-7.99-2.36-11.48-.99-18.15,7.79-2.31,3.04-5.8,5.18-8.78,7.76-.59-5.47-1.01-9.37-1.58-14.7-8.56.67-15.82,1.24-24.33,1.91.45-2.13,1.08-5.16,1.78-8.52-8.6-9.77-11.03-10.43-16.73-4.25-7.55.25-8.13-5.96-9.94-11.19-2.66-1.2-5.29-2.38-7.65-3.44-8.21,6.24-16.39,12.27-24.3,18.62-1.36,1.09-2.41,3.58-2.29,5.33.73,10.07-4.7,17.99-8.79,26.73-1.51-1.26-2.95-2.46-4.39-3.66-.01.66-.03,1.31-.04,1.97-8.33.72-16.67,2.15-24.98,1.98-8.63-.18-14.55,3.03-19,10.55-6.96-1.87-14.18-3.81-19.48-5.23-5.73.57-9.61.95-13.48,1.33l-.4-1.4c-1.95,1.47-3.91,2.94-5.79,4.36-3-1.91-5.85-3.72-8.69-5.53l-1.55,1.55c-2.64,2.42-4.67,4.34-9.33,4.29-9.36-.11-18.74,2.07-28.03,3.29-1.15,6.11-2.12,11.31-3.19,16.98-4.05,1.8-8.39,3.73-13.22,5.88,1.88,2.25,3.07,3.69,4.39,5.28-4.02,8.92-5.11,17.96-1.85,27.65,3.2,1.6,6.62,3.31,8.36,4.18,3.89,4.81,6.69,8.28,9.69,11.99-8,.63-15.82,1.25-23.88,1.88-2.52,10.73-11.06,13.71-19.08,16.43-8.67-.41-17.2-.05-25.66.95-5.16.61-10.17,3.38-14.96-1.47-.76-.77-3.98.78-6.03,1.39-15.51,4.61-30.26,10.71-47.57,5.13-12.38-3.99-26.09-5.65-39.5-2.1-1.69.45-4.07.76-5.34-.07-4.11-2.7-7.95-1.64-11.72.17-7.73,3.71-15.96,2.81-24.11,3.13-12.98.52-23.95-3.31-32.69-13.24-3.99-4.53-8.51-8.6-12.68-12.78-3.33.81-6.14,1.49-9.55,2.32-4.06-11.96-11.2-20.53-24.22-21.63-3.7-16.21-16.03-25.21-25.75-35.57h-12.58c-2.13-2.48-4.64-5.41-6.97-8.13-6.49-.24-11.91,1.65-16.89,4.74l-.91-.5Z"/>
            </g>
            <g class="cls-77">
              <g>
                <line class="cls-48" x1="1022.69" y1="386.6" x2="1027.26" y2="384.56"/>
                <polyline class="cls-48" points="1032.01 381.74 1032.21 381.59 1034.52 379.17 1034.98 377.84 1034.49 377.1 1032.14 376.65 1031.09 376.25 1030.43 375.55 1030.18 375.09"/>
                <polyline class="cls-31" points="1029.38 372.94 1028.65 370.22 1028.35 367.41 1027.66 365.87 1026.64 364.55 1025.36 363.3 1020.49 356.92"/>
                <polyline class="cls-48" points="1019.79 356 1018.11 353.79 1017.91 352.43 1018.14 351.62 1018.83 351.42 1020.36 351.62 1021.51 351.57 1022.94 350.88"/>
                <polyline class="cls-9" points="1025.67 349.84 1026.02 349.46 1026.41 347.49 1026.61 343.41 1027.63 338.76 1027.89 336.06 1027.96 332.48 1028.93 325.4"/>
                <polyline class="cls-48" points="1029.14 323.9 1029.28 322.93 1029.11 320.4 1028.52 319.04 1027.4 319.14 1026.28 319.5 1023.83 320.64"/>
                <polyline class="cls-48" points="1019.32 321.59 1019.23 321.6 1018.4 321.6 1017.71 321.02 1017.05 320.16 1016.4 318.94 1015.77 318.6 1015.24 318.87 1014.68 319.44 1014.03 319.16 1013.2 317.99 1012.13 315.34"/>
                <polyline class="cls-48" points="1008.28 311.6 1008.22 311.59 1006.67 311.78 1005.85 312.28 1005.13 313.09 1004.73 313.7 1004.14 313.85 1003.45 313.42 1002.46 311.63 1002.2 309.56 1002.2 309.5"/>
                <polyline class="cls-12" points="1002.14 307.31 1002.1 305.55 1001.31 302.52 1000.26 299.92 999.88 299.28"/>
                <line class="cls-48" x1="999.32" y1="298.33" x2="996.79" y2="294.02"/>
              </g>
              <g>
                <polyline class="cls-48" points="1528.85 401.02 1528.71 400.98 1523.88 400.42"/>
                <polyline class="cls-20" points="1520.65 400.04 1516.98 399.62 1515.92 399.7 1510.46 401.32 1503.47 401.72 1502.38 401.32 1501.63 400.57 1501.4 398.93 1501.27 396.84 1498.01 389.07 1497.61 387.54 1497.57 386.35 1497.35 385.08 1496.65 383.85 1493.71 382.14"/>
                <polyline class="cls-48" points="1492.2 381.72 1487.2 381.79 1484.26 385.83"/>
                <polyline class="cls-44" points="1482.62 388.08 1479.29 392.66 1474.78 394.59 1474.19 395.2 1473.45 396.05 1473.36 396.75 1473.39 397.49 1473.56 398.28 1474.42 401.25 1475.01 404.33 1475.11 405.84 1474.85 406.84 1474.42 407.14 1473.65 407.33 1461.43 407.6 1455.07 408.65 1451.12 408.54 1446.64 407.38 1440.93 403.92"/>
                <polyline class="cls-48" points="1439.74 403.2 1436.96 401.52 1435.66 400.35 1435.73 399.87 1435.2 399.32 1434.05 398.6 1431.46 397.33"/>
                <polyline class="cls-50" points="1429.03 396.49 1410.63 390.49 1408.92 390.44"/>
                <polyline class="cls-48" points="1407.63 390.4 1402.63 390.26 1402.49 395.25"/>
                <polyline class="cls-4" points="1402.41 398.13 1402.4 398.45 1402.53 399.05 1402.73 399.67 1402.86 400.6 1402.86 404.85 1402.99 406.08 1403.88 409.42 1404.01 410.07 1403.88 412.1 1403.98 412.92 1404.27 413.89 1405.46 416.72 1405.79 418.03 1405.82 419.2 1405.49 420.6 1404.83 422.35 1403.98 423.32 1402.79 424.03 1398.77 425.38 1395.28 428.54 1390.44 429.45 1389.01 430.14 1388.81 430.58 1388.52 431.66 1388.19 432.17 1387.63 432.64 1386.77 433.11 1385.59 433.54 1383.91 433.84 1381.87 433.61 1379.57 432.86 1375.57 429.89 1374.06 429.26 1372.31 429.08 1368.59 429.25 1363.12 428.26 1349.78 422.98 1343.62 411.8 1342.62 410.29 1341.42 407.83 1340.75 405.85 1340.48 402.61 1340.25 401.03 1340.16 400.81"/>
                <polyline class="cls-48" points="1339.62 399.47 1337.75 394.84 1334.76 396.34 1334.23 396.88 1333.49 397.38"/>
                <polyline class="cls-48" points="1327.81 396.67 1327.17 396.35 1326.25 395.2 1325.69 394.16 1325.59 393.36 1325.33 392.58 1324.97 392.54 1324.51 393.17 1324.28 395.61 1324.01 396.9 1323.65 397.54 1323.09 397.36 1322.24 396.38 1320.72 395.1 1319.93 394.85 1318.9 394.88 1316.93 395.55 1316.17 396.09 1315.91 396.68 1316.6 397.98 1316.86 398.75 1316.93 399.77 1316.71 401.45"/>
                <polyline class="cls-43" points="1316.27 404.43 1315.77 406.25 1315.15 407.63 1314.42 408.35 1313.64 408.75 1312.94 408.95 1309.55 409.3 1307.05 410.32 1306.09 410.49 1303.03 410.47 1301.94 410.65 1301.12 411 1300.62 411.57 1300.29 412.19 1300.13 412.89 1300.16 413.56 1300.36 414.21 1300.69 414.71 1301.71 415.54 1302.04 415.91 1302.07 416.15 1301.87 416.46 1301.28 416.71 1298.45 417.02 1295.88 416.74 1293.57 415.55 1289.68 412.02 1287.38 408.29 1287.28 407.48 1287.25 406.84 1287.45 406.13 1287.87 405.44 1289.09 403.93 1289.42 403.27 1289.85 402.68 1291.13 401.45 1291.43 400.95 1291.49 400.47 1291.13 399.37 1291.03 398.8 1290.74 398.39 1290.14 398.26 1288.83 398.83 1287.64 398.9 1286.59 398.6 1285.14 397.49 1283.66 396.81 1281.61 396.76 1278.51 395.61 1274.17 396.46 1272.92 395.91 1271.04 394.19 1270.01 393.02 1269.35 392.09 1268.96 391.42 1268.37 390.79 1267.58 390.21 1266.52 389.59 1265.86 389.1 1265.07 388.84 1264.05 388.77 1260.17 390.02 1259.17 390.06 1255.09 389.54 1247.01 386.8 1244.08 387.14 1243.49 387.34 1242.67 387.52 1241.85 387.22 1240.99 386.43 1239.77 384.57 1239.34 383.53 1239.11 382.76 1239.08 382.23 1238.49 381.34 1234.97 377.95 1234 376.52 1233.54 375.01 1233.61 374.13 1233.61 373.38 1233.51 372.56 1232.95 370.87 1232.12 370.42 1231.39 370.33"/>
                <polyline class="cls-48" points="1229.89 370.41 1227.98 370.7 1226.76 371.14 1226.04 371.55 1225.87 371.95 1225.57 372.36 1224.62 372.17 1221.26 369.96"/>
                <polyline class="cls-18" points="1219.97 369.11 1218.65 368.24 1214.36 367.58"/>
                <polyline class="cls-48" points="1213.75 367.13 1209.98 363.85 1205.1 364.91"/>
                <polyline class="cls-48" points="1200.19 364.51 1198.5 363.72 1197.83 362.9 1197.79 362.09 1198.65 361.16 1198.45 360.52 1197.33 359.88 1194.37 359.19"/>
                <polyline class="cls-48" points="1190.74 357.63 1188.97 356.83 1186.6 356.24 1186 356.38 1185.77 357.26 1185.93 357.91 1186.46 359.03 1186.53 359.82 1186.43 360.77 1186.34 361.19"/>
                <polyline class="cls-48" points="1186.33 361.22 1186.16 362.04 1186.06 362.85 1186.06 363.43 1186.3 363.78 1186.67 364.12 1187.72 364.87 1188.12 365.25 1188.05 365.6 1187.68 365.87 1186.95 366.16 1183.6 365.6"/>
                <polyline class="cls-51" points="1180.38 365.05 1173.64 363.92 1169.76 364.17 1168.41 364.57 1167.52 365 1167.29 365.44 1167.26 365.92 1167.39 366.44 1167.98 367.71 1168.08 368.13 1167.95 368.45 1166.86 369.63 1166.27 370.14 1165.42 370.69 1163.21 371.7 1160.57 372.02 1158.1 371.84 1156.78 371.25 1154.18 366.91 1153.79 366.11 1152.7 365.57 1150.94 365.15 1146.5 364.67 1141.4 361.64 1136.4 357.77"/>
                <polyline class="cls-48" points="1135.16 356.71 1134.67 356.24 1134.21 355.29 1134.71 352.97 1134.54 352.09 1133.45 351.68 1132.47 351.98 1130.79 353.7 1130.2 354.79 1129.93 355.82 1131.02 357.8 1131.08 358.37 1130.33 358.8 1125.31 360.54 1124.72 360.84 1124.62 361.33 1124.69 362.04 1125.05 363.67 1125.41 364.52 1125.81 365.07 1126.17 365.36 1126.4 365.62 1126.5 365.97 1126.1 365.7 1125.31 364.82 1123.41 362.08"/>
                <polyline class="cls-48" points="1120.02 358.69 1117.18 356.74 1115.66 356.39 1115.44 355.99 1114.9 355.52 1114.37 355.31 1113.52 355.74 1110.62 358.55"/>
                <polyline class="cls-58" points="1108.38 359.5 1108.09 359.33 1107.53 359.38 1106.97 359.73 1105.49 360.99 1096.19 365.12 1093.4 366.98 1092.31 368.06 1090.88 370.09"/>
                <polyline class="cls-48" points="1090.14 371.14 1089.63 371.85 1087.13 374.21 1087.03 374.9 1087.62 375.58 1090.09 375.96 1091.61 376.46"/>
                <polyline class="cls-48" points="1092.88 376.88 1095.96 380.82 1091.76 383.53"/>
                <polyline class="cls-39" points="1089.74 384.84 1089.67 384.88 1088.48 386.1 1087.03 388.25 1085.22 392.77"/>
                <polyline class="cls-48" points="1084.78 393.89 1084.53 394.51 1081.4 397.51"/>
              </g>
              <g>
                <polyline class="cls-48" points="375.27 504.67 375.73 503.03 376.45 502.94 380.53 501.68"/>
                <polyline class="cls-53" points="383.13 500.87 389.3 498.97 393.24 498.79"/>
                <polyline class="cls-48" points="394.6 498.73 398.89 498.55 399.58 498.4 399.71 497.87 399.48 497.09 398.85 495.59 400.14 495.5 402.91 496.27 403.66 496.63"/>
                <polyline class="cls-1" points="406.25 497.87 412.23 500.74 414.31 501.42 415.56 501.12 424.38 497.29 427.26 495.5 431.08 494.43 433.71 494.3 435.36 493.83 436.28 492.9 437.13 490.84 437.93 489.88 438.86 489.27 440.8 488.41 442.44 487.28 442.87 486.83 443.23 486.26 443.7 484.91 444.02 484.25 444.55 483.58 445.51 482.66 446.79 481.7 447.22 481.54 447.64 481.46 447.97 481.32 448.2 481.02 448.41 480.56 453.57 472.17"/>
                <polyline class="cls-48" points="454.32 470.94 454.4 470.8 456.28 468.41 457.66 467.27 458.68 467.54 459.24 467.96 459.67 468.41 460.1 468.75 462.09 469.34"/>
                <polyline class="cls-52" points="464.67 471.4 464.72 471.46 465.54 472.64 466.33 474.15 466.86 476.44 466.96 479.46 465.74 483.15 464.62 485.36 460.86 490.45 460.16 491.18 459.54 491.44 458.81 491.51 458.12 491.44 457.4 491.56 456.97 492.09 456.41 493.61"/>
                <polyline class="cls-48" points="455.83 495.18 455.49 496.1 455.13 496.68 454.63 497.14 452.26 498.35 452.33 500.38 451.24 502.9 454.79 506.42"/>
                <polyline class="cls-48" points="459.23 510.85 462.78 514.38 460.79 515.69 459.93 516.58 459.11 517.69"/>
                <polyline class="cls-57" points="458.17 519.13 455.69 523.09 454.84 524.8"/>
                <polyline class="cls-48" points="454.46 525.57 453.88 526.76 454.6 530.36 457.33 531.43 459.4 531.39"/>
                <polyline class="cls-38" points="460.9 531.54 461.16 531.68 461.62 532.07 462.22 532.74 463.76 533.91 464.98 535.12 465.33 535.34"/>
                <polyline class="cls-48" points="466.03 535.61 466.46 535.71 470.25 535.84 470.91 536.24 471 536.92 470.51 538.16 470.08 538.79 469.98 539.45 470.38 540.14 470.96 540.62"/>
                <polyline class="cls-41" points="473.13 542.61 474.57 544.89 476.22 546.57 477.17 548.1 480.73 555.25 481.58 556.36 482.24 556.92 483.46 556.99 484.29 557.36 484.97 558.02 486.17 559.42 486.86 560.45 487.45 561.58 487.94 562.22 487.94 563.49 487.45 565.24 485.64 569.42 484.05 572.17 483.92 572.95 483.89 573.61 485.17 577.22 491.64 582.47"/>
                <polyline class="cls-48" points="492.78 583.4 496.67 586.55 493.46 590.39"/>
                <polyline class="cls-30" points="492.02 592.1 490.81 593.56 489.79 595.52 489.59 597.11 490.02 600.01 490.45 601.03 490.97 601.54 491.93 601.74 496.32 603.77 496.78 604.86 496.75 605.65"/>
                <polyline class="cls-48" points="496.68 606.77 496.32 609.76 496.78 610.96 497.26 611.47 498.16 611.19 498.52 611.21 498.78 611.44 499.21 612.21 499.54 612.62 499.54 613.61 499.36 614.54"/>
                <polyline class="cls-48" points="498.76 616.35 497.9 618.58 497.17 619.94 496.38 620.65 495.25 620.22 492.88 620.98 491.85 621.78"/>
                <polyline class="cls-24" points="488.8 624.17 486.17 626.23 480.53 628.75 479.51 628.78 478.59 628.42 476.97 627.15 475.99 626.69 475.8 626.67"/>
                <polyline class="cls-48" points="473.87 626.46 473.12 626.38 472.53 626.15 472.29 625.82 472.22 625.29 472.46 624.63 473.41 622.91 473.06 621.77 472.81 621.27 472.73 620.75 472.55 620.26 472.13 620.16 471.46 620.38 470.15 621.23 469.29 621.57 468.57 622.08 468.3 622.49"/>
                <polyline class="cls-56" points="467.64 624.96 467.42 626.08 467.51 626.97 467.71 627.56 467.98 628.12 469.03 629.3 469.46 629.88 469.72 630.39 469.79 630.83 469.52 631.39 468.93 632.07 467.58 632.61 466.79 632.82 465.9 633.25 465.01 633.95 463.4 635.49 461.32 636.88 460.44 637.12 458.06 637.22 457.49 637.08"/>
                <polyline class="cls-48" points="456.23 636.78 453.05 636.01 452.3 636.03 451.87 636.31 451.74 636.75 452.96 638.75 453.02 639.46 452.96 640.27 452.73 641.38"/>
                <polyline class="cls-2" points="454.14 644.26 454.63 644.63 455.79 645.81 456.25 646.1 456.71 646.23 460.1 645.94 460.46 646.02 460.83 646.22 461.1 646.5 461.45 647.1 461.36 647.45 460.46 648.35 458.12 649.82 457.58 650.27"/>
                <polyline class="cls-48" points="456.21 651.41 454.9 652.51 453.42 653.15 452.4 653.25 451.84 652.92 451.34 653.1 451.01 653.74 450.98 655.63 451.21 656.86 451.39 657.45"/>
                <polyline class="cls-49" points="450.27 659.8 448.48 660.81 447.35 661.64 443.43 666.39 443.18 668.11"/>
                <polyline class="cls-48" points="442.97 669.57 442.26 674.42 442.24 674.52"/>
              </g>
              <g>
                <line class="cls-48" x1="473.58" y1="415.2" x2="470.5" y2="419.14"/>
                <polyline class="cls-48" points="466.03 423.89 462.41 427.35 467.08 429.15"/>
                <polyline class="cls-48" points="471.98 428.42 475.1 424.52 476.15 424.67 477.27 425.86 478.6 427.73"/>
                <polyline class="cls-62" points="480.35 430.05 481.84 431.76 482.17 431.99 482.54 432.29 482.96 432.57 483.42 432.77 485.23 433.22 485.9 433.77 486.79 434.81 488.5 437.23 489.62 439.3 490.28 441.33 490.15 443.54 489.82 444.4 488.97 445.29 488.67 445.88 488.37 447.05 487.98 447.89 487.15 449.43 486.79 450.25 486.46 451.39 486.56 452.2 486.96 452.95 488.14 454 488.73 455 489.36 458.57 489.95 459.47 490.84 460.6 492.88 462.66 495.28 466.11 497.19 470.34"/>
                <polyline class="cls-48" points="497.79 471.67 499.84 476.23 503.61 472.95"/>
                <polyline class="cls-48" points="506.76 470.61 507.08 470.26 507.67 470.15 508.1 470.15 511.14 471.88 518.02 469.76 518.61 468.56 519.27 467.72 519.24 467.08 519.24 466.57 519.3 466.11 519.34 465.66 519.24 464.63 519.34 463.22 519.47 462.62 519.63 462.14 519.99 462 520.45 462.14 521.95 463.79 522.47 463.95 523.83 463.95"/>
                <polyline class="cls-46" points="526.35 463.01 527.11 462.27 533.77 459.43 537.3 458.44 540.16 459.86 542 462.16 544.31 466.45 544.77 466.99 545.47 467.47 549.42 469.42 553.3 470.03 555.5 469.99"/>
                <polyline class="cls-48" points="556.91 469.96 560.66 469.88 561.87 469.6 562.01 469.16 561.94 468.67 561.84 468.21 561.81 467.77 561.91 467.39 562.14 467.14 562.73 467.33 563.52 467.91 565.16 469.5 565.76 470.44"/>
                <polyline class="cls-60" points="566.58 471.73 566.88 472.19 567.83 473.15 568.62 473.37 569.82 472.92 570.57 472.51 571.33 472.17 571.51 472.19"/>
                <polyline class="cls-48" points="572.27 472.28 572.52 472.31 573.54 472.79 574.89 474.25 575.38 474.98 575.71 475.66 580.59 476.73"/>
                <line class="cls-8" x1="582.63" y1="477.17" x2="590.43" y2="478.88"/>
                <line class="cls-48" x1="591.45" y1="479.1" x2="596.34" y2="480.17"/>
              </g>
              <g>
                <polyline class="cls-48" points="676.63 250.65 680.45 251.9 680.51 254.42 680.58 255.01 680.71 255.68 680.94 256.26 681.24 256.75"/>
                <polyline class="cls-15" points="682.66 259.13 694.02 278.11 694.55 279.23 694.81 280.05 694.71 280.53 694.38 281.36 694.35 281.76 694.51 282.36 695.57 284.39 695.8 285.08 695.9 285.63 695.86 285.93 696.19 286.66 698.86 291.54 700.02 293.13 701.21 294.29 706.31 297.68 706.64 297.78 707.36 297.78 707.89 297.92 708.58 298.41 711.15 300.81 712.05 301.43 712.87 301.77 714.05 302.07 718.04 304.58 719.09 305.55 720.8 307.98 721.43 309.56 721.53 311.93 721.39 313.19 721.46 313.63"/>
                <polyline class="cls-48" points="721.75 314.99 721.82 315.21 724.37 319.24 718.66 325.26 717.87 326.43 718.17 327.07 718.53 327.17 719.39 327.17 722.43 328.09 722.84 328.39 722.9 328.44"/>
                <polyline class="cls-16" points="724.51 330.79 724.73 331.35 724.99 331.72 725.29 332.01 726.11 332.46 726.47 332.73 726.84 333.15 727.1 333.56 727.17 334.07 727.1 334.65 726.77 335.96 726.7 336.51 726.74 337 726.87 337.42 726.9 337.9 726.8 338.42 726.44 339.32 726.24 339.99 726.21 340.66 726.84 344.97 726.38 346.79 725.29 348.97 722.49 353 720.04 355.92 718.07 357.53 711.67 359.35 710.36 360.18 709.11 361.38 707.1 364.85 705.88 366.12 705.02 366.86 704.34 367.26"/>
                <polyline class="cls-48" points="703.1 368 698.79 370.54 699.99 373.14 701.69 374.44"/>
                <polyline class="cls-5" points="705.41 375.22 705.65 375.26 708.61 376.25 709.43 376.4 711.01 376.05 716.69 372.71 718.14 371.35 718.28 371.14"/>
                <polyline class="cls-48" points="719.02 369.43 719.09 369.11 719.42 368.61 722.18 365.61 722.69 365.61 723.22 366.09 724.53 368.74 724.93 369.34 727 369.4 729.8 368.56"/>
                <polyline class="cls-13" points="731.97 367.92 733.85 367.36 742.68 369.64 746.74 370.04 747.92 370.73 748.75 371.35 749.27 372.03"/>
                <polyline class="cls-48" points="749.96 372.93 752.99 376.9 751.94 377.87 751.54 378.49 750.98 379.07 750.56 379.45 750.13 379.71 749.8 380.02 749.64 380.42 749.62 380.49"/>
                <polyline class="cls-55" points="748.52 383.12 748.45 383.22 748.15 383.93 748.22 385.17 749.44 390.09 749.54 391.72 749.47 393.02 748.88 394.94 748.75 395.79 748.75 396.7 749.04 398.18 749.11 398.97 749.04 399.76 748.75 401.8 748.78 403.64 749.24 404.67 750.13 405.88 754.93 410.27 755.49 410.65 755.99 410.85 756.98 411.15 757.54 411.44 758.3 411.95 758.83 412.2 759.72 412.46 760.27 412.99"/>
                <polyline class="cls-48" points="761.31 413.99 763.08 415.69 764.33 416.41 764.95 416.93 765.02 417.22 764.52 417.82 764.39 418.62 764.49 419.69 765.11 421.94"/>
                <polyline class="cls-29" points="766.45 424.49 767.29 425.79 773.22 433.23"/>
                <polyline class="cls-48" points="774.12 434.36 774.54 434.89 775.17 435.9 775.73 438.98"/>
              </g>
              <g>
                <polyline class="cls-48" points="815 652.98 814.93 649.06 815.3 648.05"/>
                <polyline class="cls-32" points="816.78 645.83 817.73 644.44 818.36 642.87 818.96 642 819.75 641.21 820.8 640.55 821.75 639.74 823 638.35 824.55 636.28 825.31 634.1 825.41 631.9 824.12 626.07 824.06 624.35 824.65 622.02 825.08 620.73 825.51 619.8 826.46 618.43 826.69 617.77 826.76 617.16 826.76 616.23"/>
                <polyline class="cls-48" points="826.59 614.94 826.56 614.84 826.3 614.32 823.43 611.09 820.01 614.25 819.74 614.46"/>
                <polyline class="cls-54" points="817.16 615.74 816.77 615.78 816.05 615.77 814.8 615.52 814.21 615.63 813.45 615.93 809.89 616.79 806.93 618.35 805.81 618.74 804.39 618.94 802.67 619.49 801.88 620.04 801.09 620.41 799.51 620.87 798.82 621.36 798.16 622.22 797.51 623.53 797.24 624.55 797.14 625.18 797.01 625.53 796.81 625.72 796.42 625.77 795.1 625.6 794.14 625.67 792.1 626.31 791.04 626.41 789.99 626.26 788.28 625.77 787.65 625.74 786.5 625.93 785.91 625.9 785.02 625.67 784 625.09 779.91 621.82 779.02 621.33 777.83 621.05 776.78 620.95 775.86 621 775.17 621.36 774.64 621.95 774.15 623.05 773.72 623.7 773.19 624.15 772.67 624.27 772.11 624.14 771.58 623.71 770.92 622.77 770.53 621.47 770.22 619.85 770.22 617.97 770.55 616.59 771.71 614.93 773.09 613.63 773.98 612.51 775 612 775.3 611.46 775.27 610.5 774.41 608.42 772.67 605.29 772.51 604.78"/>
                <polyline class="cls-48" points="772.43 603.35 772.44 603.3 773.23 602.58 773.52 602.12 773.52 601.62 771.58 599.55 771.71 598.43 772.5 596.88 773.77 595.17"/>
                <polyline class="cls-14" points="775.78 592.75 777.5 591.03 778.16 589.53 778.59 588.34 780.37 579.3 772.04 560.17 770.72 558.6 765.22 553.95 759.12 544.9 756.61 544.23 755.66 544.61 754.47 545.38 752.47 547.79 749.41 550.84 748.81 551.66 748.06 553.02 746.83 554.35 746.56 554.95 746.48 555.73 746.21 556.51 745.77 557.2 744.85 558.23 744.69 559.21 744.62 560.25 744.42 560.98 743.9 561.86 737.08 564.07 723.77 566.14 721.1 567.06 719.32 569.01 718.72 569.97"/>
                <polyline class="cls-48" points="717.87 571.31 717.51 571.79 716.03 573.05 715.44 573.71 714.74 575.11 713.79 575.01 711.65 571.43 712.7 569.97 714.48 568.15 714.86 567.62"/>
                <polyline class="cls-37" points="715.93 564.82 716.16 564.43 717.58 563.28 718.3 562.45 719.16 561.11 719.72 559.56 720.21 557.61 720.41 555.5 720.14 552.96 719.29 548.79 717.67 545.7 716.52 544.35 715.57 544.01 714.94 543.95 714.48 543.5 714.28 542.46 714.51 540.66 714.51 538.75 714.02 536.95 712.24 533.71 711.58 531.97 711.63 531.3"/>
                <polyline class="cls-48" points="711.78 529.8 712.31 528.91 714.09 526.56 714.35 525.98 714.22 525.62 713 525.37 712.64 524.89 712.54 524.01 712.9 521.94 712.92 521.77"/>
                <polyline class="cls-22" points="713.09 519.99 713.13 518.96 712.7 517.51 711.98 516.61 710.19 515.97 708.92 515.97"/>
                <polyline class="cls-48" points="708.03 516.03 703.15 517.11 702.62 516.68 702.88 515.52 704.23 513.01 707.36 509.18 707.82 508.41 707.43 507.39 705.98 506.37 702.88 501.62 705.29 496.44 710.25 495.81"/>
                <line class="cls-33" x1="712.29" y1="495.56" x2="720.1" y2="494.57"/>
                <polyline class="cls-48" points="721.12 494.44 726.08 493.81 726.14 493.1 726.28 492.6 727 490.5 727.07 489.95 727.07 489.46 727.03 488.96"/>
                <polyline class="cls-23" points="727.8 486.33 728.05 485.88 729.04 484.47 732.2 480.77 734.22 477.84"/>
                <polyline class="cls-48" points="735.01 476.69 737.84 472.57 742.67 473.87"/>
                <polyline class="cls-48" points="747.19 475.08 749.47 475.69 750.66 475.64 752.07 475.31 752.1 474.02 751.64 471.21 752.01 470.51 752.06 470.46"/>
                <polyline class="cls-34" points="753.94 468.65 755.76 467.08 756.58 466 761.63 456.39 762.65 455.05 763.83 454.43 766.96 454.31 767.95 454 768.7 453.48 771.65 448.96 773.62 444.78"/>
                <polyline class="cls-48" points="774.19 443.6 774.9 442.54 775.33 441.73 775.59 441.13 775.73 438.98 779.81 436.1"/>
                <polyline class="cls-48" points="782.97 433.88 784.82 432.57 787.42 431.74 787.78 432.24 788.05 432.89 788.21 433.54 788.51 434.06 788.77 434.44 789.17 434.84 789.66 435.73 789.76 436.17 793.35 437.02 794.66 437.09"/>
                <line class="cls-7" x1="796.86" y1="437.22" x2="805.31" y2="437.72"/>
                <polyline class="cls-48" points="806.42 437.79 811.41 438.08 813.78 433.68"/>
                <polyline class="cls-35" points="814.71 431.12 814.8 430.77 815.49 426.98 815.59 425.4 815.46 424.37 815.16 423.93 812.33 421.35 811.11 419.07 810.91 417.64 811.18 416.65 811.8 415.91 812.63 414.67 812.82 413.3 812.63 411.42 811.47 407.44 811.44 406.35 811.9 405.59 815.42 403.82 816.44 402.75 816.97 402.08"/>
                <polyline class="cls-48" points="817.54 400.84 819.52 396.25 824.51 396.54"/>
                <polyline class="cls-47" points="827.16 396.69 829.6 396.83 860.12 392.42"/>
                <polyline class="cls-48" points="861.43 392.23 864.71 391.76 866.4 391.79 866.69 392.33 867.02 393.48 867.39 393.86 868.04 394.19 868.54 394.91 868.97 396.09 869.33 398.67 869.43 399.87 869.36 400.65 869.13 400.82 868.37 400.92 868.08 401.07 867.85 401.47 867.35 402.81 867.75 403.02 868.41 403.05 872.25 402.45"/>
                <polyline class="cls-36" points="875.23 401.99 877.06 401.7 878.23 401.32 879.35 400.48 879.77 399.95 880.07 399.42 880.27 398.77 880.56 396.71 880.93 395.5 883.2 392.51 887.67 389.91 894.76 381.12 930.41 375.03 946.52 377.03 960.15 382.11 961.77 383.36 962.93 384.67 963.72 385.12 965.83 385.67 966.62 386.05 967.24 386.67 967.8 387.39 968.89 388.45 969.71 388.77 970.5 388.75 973.05 387.32 982.76 384.48 984.74 384.53 990.7 386.2 1011.03 386.65 1011.59 386.47 1014.12 386.22 1017.84 384.4 1019 384.36 1019.92 384.48 1022.69 386.6 1053.26 390.42 1057.29 390.12 1060.58 387.19 1061.99 387.17 1065.88 389.19 1070.04 390.56 1071.19 391.17 1072.74 392.42 1075.8 394.22"/>
                <polyline class="cls-48" points="1077.09 394.98 1081.4 397.51 1076.63 398.99"/>
                <polyline class="cls-40" points="1074.91 401.53 1066.6 414.04 1065.68 415.91 1065.88 417.49 1065.81 418.48 1065.68 419.28 1065.55 422.39 1065.52 424.92 1066.14 428.1 1066.24 429.78 1065.35 431.18 1064.33 432.46 1063.21 433.52 1062.49 434.42 1061.99 435.25 1061.83 436.68 1061.9 438.6 1062.65 442.41 1063.48 444.37 1065.15 446 1067.54 446.5 1068.02 446.79 1078.92 455.84 1080.09 458.21 1084.5 471.11 1085.95 477.02 1085.75 477.6 1085.55 478.18 1085.45 478.85 1085.49 479.58 1085.85 480.18 1086.64 480.92 1088.55 481.92 1090.06 482.38 1092.38 482.71 1093.1 482.95 1094.88 483.93 1096.75 484.66 1097.21 485.02 1097.31 485.54 1096.72 487.73 1095.9 491.9 1095.57 492.92 1095.17 493.66 1094.61 494.45 1094.05 495.49 1093.56 496.66 1093 498.47 1091.45 506.06 1090.88 507.37 1089.7 509.18 1088.91 510.77 1088.35 512.32 1087.95 514.36 1088.02 515.67 1088.28 516.8 1089.01 518.29 1089.24 519.16 1089.27 520.08 1089.11 520.89 1089.04 521.71 1089.57 522.73 1089.64 522.8"/>
                <polyline class="cls-48" points="1090.74 523.86 1094.32 526.07 1094.81 526.69 1094.65 527.21 1094.25 527.81 1093.99 528.36 1093.82 528.86 1093.89 529.23 1094.84 529.36 1098.87 529.02"/>
                <polyline class="cls-10" points="1102.63 528.7 1103.81 528.6 1107.13 529.05 1108.88 528.95 1112.56 526.88 1114.11 526.32 1116.45 526.3"/>
                <polyline class="cls-48" points="1118.34 526.29 1118.76 526.28 1122.32 528.91 1122.44 529"/>
              </g>
              <g>
                <polyline class="cls-48" points="539.26 748.49 539.3 748.44 540.98 746.65 541.81 744.34 541.81 744.32"/>
                <polyline class="cls-48" points="542.69 740 543.32 736.94 543.76 735.87 544.24 735.34 544.75 735.47 545.6 735.96 546.03 736.05 546.49 736.06 546.95 736.15 547.45 736.34 548.66 735.96 548.94 735.81"/>
                <polyline class="cls-3" points="551.54 734.13 554.39 731.9 555.94 730.41 556.84 729.12 556.9 722.32 557.66 720.2 558.45 718.69 559.6 717.44 560.23 716.87 560.79 716.67 561.22 716.8 562.04 716.38 563.65 715.19 566.05 711.65 571.1 707.12 574.66 704.83 576.01 703.54 576.27 702.39 575.61 700.91 574.19 698.49 574.59 694.72 575.02 693.66"/>
                <polyline class="cls-48" points="575.36 692.15 575.41 691.48 575.18 690.25 574.92 689.3 573.37 687.89 573.69 682.9"/>
                <polyline class="cls-61" points="573.89 679.85 573.9 679.68 572.42 668.67 573.4 661.77 573.34 660.08 572.81 658.8 572.25 658.39 571.73 658.21 571 658.21 570.61 658.16 569.72 657.83 568.23 657.64 567.55 657.39 566.61 656.61 566.28 656.1 566.35 655.3 567.21 652.79 566.81 651.67 566.15 651.28 564.87 651.47 561.38 652.69 560.23 652.79 559.31 652.44 557.86 651.23 557.27 650.44 557.13 649.44 557.53 648.24 559.27 643.84 559.37 641.24 558.22 639.05 552.51 632.73"/>
                <polyline class="cls-48" points="551.49 631.59 548.89 628.71 548.79 627.59 549.62 626.62 553.09 625.28"/>
                <polyline class="cls-59" points="555.99 625.75 556.46 625.97 557.92 626.9 558.52 627.08 559.11 627.06 559.77 626.82 560.36 626.48 560.89 625.98 561.28 625.44 561.81 623.91 561.91 622.08 561.25 620.28 561.24 620.27"/>
                <polyline class="cls-48" points="560.55 618.93 559.44 616.75 558.88 615.29 558.81 614.3 560.29 613.59 561.08 613.12 561.51 613.07 562.1 613.33 562.96 614.38"/>
                <polyline class="cls-28" points="564.64 616.44 565.07 616.97 565.49 617.25 566.05 617.15 568.42 615.19 571.89 613.16 572.78 612.37 573.44 611.22 574.1 608.92 574.13 607.19 573.77 605.91 573.04 604.88 570.94 602.68 570.38 602.21 569.85 602.09 569.29 601.57 568.66 600.64 567.83 598.11 567.63 596.98 567.88 596 568.47 595.36 569.09 594.27 569.09 593.38 568.63 592.45"/>
                <polyline class="cls-48" points="568.81 591.17 568.96 590.77 569.85 589.48 571.3 586.85 565.79 581.91 565.49 581.21 565.23 580.26 565.79 579.7 566.22 579.17 566.55 578.33 566.98 575.74"/>
                <polyline class="cls-26" points="567.42 573.1 567.44 573 567.55 571.7 567.77 570.44 568.03 569.52 568.99 564.78 572.52 561.21 587.5 534.04 587.91 533.59"/>
                <polyline class="cls-48" points="588.8 532.6 592.14 528.88 588.65 525.31"/>
                <polyline class="cls-25" points="587.08 523.71 582.7 519.24 578.01 515.4 577.22 515 576.63 514.91 572.7 512.88"/>
                <polyline class="cls-48" points="571.71 512.37 567.27 510.07 570.57 506.31"/>
                <line class="cls-27" x1="571.95" y1="503.61" x2="576.18" y2="492.67"/>
                <polyline class="cls-48" points="576.73 491.24 577.85 488.35 578.8 486.71 579.44 486.75 580.12 487.06 582.83 488.92 583.16 488.96"/>
                <polyline class="cls-11" points="585.11 488.93 585.92 488.82 592.17 486.28"/>
                <polyline class="cls-48" points="593.08 485.9 595.74 484.82 596.83 484.06 597.29 483.4 597.09 482.71 596.86 482.2 596.34 480.17 600.42 475.67 600.98 475.28 601.83 475.03 602.39 475.4 603.31 475.86 603.78 475.49 604.08 474.7 604.5 472.67 604.57 471.21 604.56 471.18"/>
                <polyline class="cls-6" points="604.27 468.46 604.08 467.38 603.84 466.97 603.64 466.69 603.38 466.41 603.18 466.16 602.99 465.66 602.89 465.51 602.56 465.35 602.39 465.22 602.26 464.97 601.34 462.87 601.11 461.85 600.91 461.38 600.71 461.01 600.52 460.85 600.29 460.28 600.12 459.36 600.15 457.17 600.06 455.81 599.86 454.46 599.4 452.44 599.36 451.39 599.56 450.5 600.62 449.16 601.78 448.23"/>
                <polyline class="cls-48" points="603.05 448.02 606.55 448.31 607.18 448.65 607.8 449.1 607.87 449.8 607.83 450.7 608.03 452.05 608.39 452.52 609.8 452.82"/>
                <polyline class="cls-19" points="612.75 453.46 623.51 455.79 625.26 456.86 629.91 461.69 631.03 463.26 633.37 467.59 635.08 469.97 644.27 475.25 647.96 476.24 650.36 478.6 652.07 481.47 652.18 483.41 650.95 486.43 649.14 489.2 647.43 492.39 647.27 494.49 647.7 495.8 648.22 496.5 648.91 497.23 648.98 498.72 649.54 499.32 650.46 499.6 653.01 499.54 653.83 499.9 654.59 500.58 655.71 501.82 659.85 504.63 660.81 505.66 662.83 510.1 663.17 511.15"/>
                <polyline class="cls-48" points="663.65 512.58 665.23 517.33 670.43 519.23 671.88 519.33 672.01 519.06 672.47 517.9 673.03 516.76 673.49 516.53 673.89 516.76 675.27 518.8 676.69 520.04 677.16 519.88 677.42 519.66 677.48 519.24 677.62 518.93 678.01 518.55 680.47 517.08"/>
                <polyline class="cls-17" points="682.28 515.67 687.93 510.71 697.62 504.82"/>
                <line class="cls-48" x1="698.61" y1="504.22" x2="702.88" y2="501.62"/>
              </g>
            </g>
          </g>
          <g>
            <g>
              <path class="cls-73" d="M395.99,604.46c0-6.6,5.98-11.95,13.35-11.95s13.35,5.35,13.35,11.95c0,13.36-13.35,25.5-13.35,25.5,0,0-13.35-12.61-13.35-25.5Z"/>
              <circle class="cls-74" cx="409.34" cy="605.7" r="6.06"/>
            </g>
            <text class="cls-63" transform="translate(377.41 585.04)"><tspan x="0" y="0">BRATISLAVA</tspan></text>
          </g>
          <g>
            <g>
              <path class="cls-71" d="M270.46,589.46c0-6.6,5.98-11.95,13.35-11.95s13.35,5.35,13.35,11.95c0,13.36-13.35,25.5-13.35,25.5,0,0-13.35-12.61-13.35-25.5Z"/>
              <circle class="cls-72" cx="283.81" cy="590.7" r="6.06"/>
            </g>
            <text class="cls-66" transform="translate(249.53 570.04)"><tspan x="0" y="0">VIEDE</tspan></text>
          </g>
          <g>
            <g>
              <path class="cls-71" d="M788.99,799.46c0-6.6,5.98-11.95,13.35-11.95s13.35,5.35,13.35,11.95c0,13.36-13.35,25.5-13.35,25.5,0,0-13.35-12.61-13.35-25.5Z"/>
              <circle class="cls-72" cx="802.34" cy="800.7" r="6.06"/>
            </g>
            <text class="cls-66" transform="translate(753.72 780.04)"><tspan x="0" y="0">BUDAPE</tspan></text>
          </g>
          <text class="cls-70" transform="translate(1208.16 102.98)"><tspan x="0" y="0">PL</tspan></text>
          <text class="cls-70" transform="translate(1744.85 440.23)"><tspan x="0" y="0">UA</tspan></text>
          <text class="cls-69" transform="translate(1018.69 755.48)"><tspan x="0" y="0">HU</tspan></text>
          <text class="cls-65" transform="translate(118.64 666.77)"><tspan x="0" y="0">AT</tspan></text>
          <text class="cls-69" transform="translate(233.77 208.68)"><tspan x="0" y="0">CZ</tspan></text>
          <g>
            <g>
              <path class="cls-73" d="M1069.49,344.03c0-4.52,4.1-8.19,9.15-8.19s9.15,3.67,9.15,8.19c0,9.15-9.15,17.47-9.15,17.47,0,0-9.15-8.64-9.15-17.47Z"/>
              <circle class="cls-74" cx="1078.64" cy="344.88" r="4.15"/>
            </g>
            <text class="cls-67" transform="translate(1039.86 328.76)"><tspan x="0" y="0">POPRAD</tspan></text>
          </g>
          <g>
            <g>
              <path class="cls-73" d="M775.82,279.71c0-4.52,4.1-8.19,9.15-8.19s9.15,3.67,9.15,8.19c0,9.15-9.15,17.47-9.15,17.47,0,0-9.15-8.64-9.15-17.47Z"/>
              <circle class="cls-74" cx="784.97" cy="280.56" r="4.15"/>
            </g>
            <text class="cls-64" transform="translate(753.39 264.44)"><tspan x="0" y="0">ILINA</tspan></text>
          </g>
          <g>
            <g>
              <path class="cls-71" d="M1018.82,55.71c0-4.52,4.1-8.19,9.15-8.19s9.15,3.67,9.15,8.19c0,9.15-9.15,17.47-9.15,17.47,0,0-9.15-8.64-9.15-17.47Z"/>
              <circle class="cls-72" cx="1027.97" cy="56.56" r="4.15"/>
            </g>
            <text class="cls-68" transform="translate(989.25 40.44)"><tspan x="0" y="0">KRAKOV</tspan></text>
          </g>
          <g>
            <g>
              <path class="cls-73" d="M1286.94,350.67c0-4.52,4.1-8.19,9.15-8.19s9.15,3.67,9.15,8.19c0,9.15-9.15,17.47-9.15,17.47,0,0-9.15-8.64-9.15-17.47Z"/>
              <circle class="cls-74" cx="1296.09" cy="351.52" r="4.15"/>
            </g>
            <text class="cls-67" transform="translate(1259.08 335.44)"><tspan x="0" y="0">PREOV</tspan></text>
          </g>
          <g>
            <g>
              <path class="cls-73" d="M1286.94,455.04c0-4.52,4.1-8.19,9.15-8.19s9.15,3.67,9.15,8.19c0,9.15-9.15,17.47-9.15,17.47,0,0-9.15-8.64-9.15-17.47Z"/>
              <circle class="cls-74" cx="1296.09" cy="455.89" r="4.15"/>
            </g>
            <text class="cls-63" transform="translate(1261.48 439.81)"><tspan x="0" y="0">KOICE</tspan></text>
          </g>
          <g>
            <g>
              <path class="cls-73" d="M489.96,545.91c0-4.52,4.1-8.19,9.15-8.19s9.15,3.67,9.15,8.19c0,9.15-9.15,17.47-9.15,17.47,0,0-9.15-8.64-9.15-17.47Z"/>
              <circle class="cls-74" cx="499.11" cy="546.76" r="4.15"/>
            </g>
            <text class="cls-63" transform="translate(462.21 529.71)"><tspan x="0" y="0">TRNAVA</tspan></text>
          </g>
          <g>
            <g>
              <path class="cls-71" d="M312.96,321.91c0-4.52,4.1-8.19,9.15-8.19s9.15,3.67,9.15,8.19c0,9.15-9.15,17.47-9.15,17.47,0,0-9.15-8.64-9.15-17.47Z"/>
              <circle class="cls-72" cx="322.11" cy="322.76" r="4.15"/>
            </g>
            <text class="cls-66" transform="translate(297.1 305.71)"><tspan x="0" y="0">BRNO</tspan></text>
          </g>
          <g>
            <g>
              <path class="cls-73" d="M600.39,570.18c0-4.52,4.1-8.19,9.15-8.19s9.15,3.67,9.15,8.19c0,9.15-9.15,17.47-9.15,17.47,0,0-9.15-8.64-9.15-17.47Z"/>
              <circle class="cls-74" cx="609.54" cy="571.03" r="4.15"/>
            </g>
            <text class="cls-63" transform="translate(582.18 553.98)"><tspan x="0" y="0">NITRA</tspan></text>
          </g>
          <g>
            <g>
              <path class="cls-73" d="M464.41,662.07c0-3.35,3.04-6.07,6.78-6.07s6.78,2.72,6.78,6.07c0,6.79-6.78,12.96-6.78,12.96,0,0-6.78-6.41-6.78-12.96Z"/>
              <circle class="cls-74" cx="471.19" cy="662.7" r="3.08"/>
            </g>
            <text class="cls-63" transform="translate(450.76 646.46)"><tspan x="0" y="0">AMORN</tspan></text>
          </g>
          <g>
            <g>
              <path class="cls-73" d="M832.17,474.31c0-4.52,4.1-8.19,9.15-8.19s9.15,3.67,9.15,8.19c0,9.15-9.15,17.47-9.15,17.47,0,0-9.15-8.64-9.15-17.47Z"/>
              <circle class="cls-74" cx="841.32" cy="475.16" r="4.15"/>
            </g>
            <text class="cls-64" transform="translate(805.11 458.11)"><tspan x="0" y="0">ZVOLEN</tspan></text>
          </g>
          <g>
            <g>
              <path class="cls-73" d="M610.1,737.65c0-4.52,4.1-8.19,9.15-8.19s9.15,3.67,9.15,8.19c0,9.15-9.15,17.47-9.15,17.47,0,0-9.15-8.64-9.15-17.47Z"/>
              <circle class="cls-74" cx="619.25" cy="738.5" r="4.15"/>
            </g>
            <text class="cls-64" transform="translate(572.96 721.45)"><tspan x="0" y="0">KOMRNO</tspan></text>
          </g>
        </g>
      </g>
    </g>
  </g>
</svg>